<svg width="301" height="301" viewBox="0 0 301 301" fill="none" xmlns="http://www.w3.org/2000/svg">
<g clip-path="url(#clip0_14_178)">
<path d="M270.84 239.891H250.901V240.042H270.84V239.891Z" fill="#EBEBEB"/>
<path d="M199.394 241.528H194.163V241.679H199.394V241.528Z" fill="#EBEBEB"/>
<path d="M250.299 234.304H238.747V234.455H250.299V234.304Z" fill="#EBEBEB"/>
<path d="M57.5812 235.316H31.5808V235.466H57.5812V235.316Z" fill="#EBEBEB"/>
<path d="M66.7557 235.316H62.9451V235.466H66.7557V235.316Z" fill="#EBEBEB"/>
<path d="M135.54 237.856H79.1449V238.007H135.54V237.856Z" fill="#EBEBEB"/>
<path d="M143.517 203.356H27.2705C26.3589 203.356 25.4846 202.993 24.8399 202.349C24.1953 201.704 23.8331 200.83 23.8331 199.918V36.5174C23.8411 35.6109 24.2067 34.7443 24.8505 34.1062C25.4943 33.468 26.3641 33.11 27.2705 33.11H143.517C143.968 33.11 144.415 33.1989 144.832 33.3717C145.249 33.5444 145.628 33.7976 145.947 34.1168C146.267 34.436 146.52 34.815 146.693 35.232C146.865 35.6491 146.954 36.096 146.954 36.5475V199.918C146.954 200.37 146.865 200.817 146.693 201.234C146.52 201.651 146.267 202.03 145.947 202.349C145.628 202.668 145.249 202.921 144.832 203.094C144.415 203.267 143.968 203.356 143.517 203.356ZM27.2705 33.2304C26.3993 33.232 25.5642 33.5788 24.9481 34.1949C24.332 34.811 23.9852 35.6461 23.9836 36.5174V199.918C23.9852 200.789 24.332 201.625 24.9481 202.241C25.5642 202.857 26.3993 203.204 27.2705 203.205H143.517C144.388 203.204 145.223 202.857 145.839 202.241C146.455 201.625 146.802 200.789 146.804 199.918V36.5174C146.802 35.6461 146.455 34.811 145.839 34.1949C145.223 33.5788 144.388 33.232 143.517 33.2304H27.2705Z" fill="#EBEBEB"/>
<path d="M273.73 203.356H157.483C156.572 203.356 155.697 202.993 155.053 202.349C154.408 201.704 154.046 200.83 154.046 199.918V36.5174C154.054 35.6109 154.419 34.7443 155.063 34.1062C155.707 33.468 156.577 33.11 157.483 33.11H273.73C274.641 33.11 275.516 33.4722 276.16 34.1168C276.805 34.7615 277.167 35.6358 277.167 36.5475V199.918C277.167 200.83 276.805 201.704 276.16 202.349C275.516 202.993 274.641 203.356 273.73 203.356ZM157.483 33.2304C156.612 33.232 155.777 33.5788 155.161 34.1949C154.545 34.811 154.198 35.6461 154.196 36.5174V199.918C154.198 200.789 154.545 201.625 155.161 202.241C155.777 202.857 156.612 203.204 157.483 203.205H273.73C274.601 203.204 275.436 202.857 276.052 202.241C276.668 201.625 277.015 200.789 277.016 199.918V36.5174C277.015 35.6461 276.668 34.811 276.052 34.1949C275.436 33.5788 274.601 33.232 273.73 33.2304H157.483Z" fill="#EBEBEB"/>
<path d="M301 230.205H0V230.355H301V230.205Z" fill="#EBEBEB"/>
<path d="M243.455 54.9807H227.267C222.134 54.9807 217.972 59.1422 217.972 64.2756V80.4634C217.972 85.5968 222.134 89.7582 227.267 89.7582H243.455C248.588 89.7582 252.75 85.5968 252.75 80.4634V64.2756C252.75 59.1422 248.588 54.9807 243.455 54.9807Z" fill="#F0F0F0"/>
<path d="M239.686 67.4541C239.686 70.416 238.181 72.8119 235.22 72.8119C232.258 72.8119 230.753 70.4039 230.753 67.4541C230.753 64.5043 232.258 62.0903 235.22 62.0903C238.181 62.0903 239.686 64.4923 239.686 67.4541Z" fill="#FAFAFA"/>
<path d="M235.219 82.6426H243.485V77.7303C243.485 75.0153 239.783 72.812 235.219 72.812C230.656 72.812 226.954 75.0153 226.954 77.7303V82.6426H235.219Z" fill="#FAFAFA"/>
<path d="M91.197 66.6414H79.8914C76.3073 66.6414 73.4019 69.5469 73.4019 73.131V84.4366C73.4019 88.0206 76.3073 90.9261 79.8914 90.9261H91.197C94.7811 90.9261 97.6865 88.0206 97.6865 84.4366V73.131C97.6865 69.5469 94.7811 66.6414 91.197 66.6414Z" fill="#E6E6E6"/>
<path d="M85.0505 80.0961C85.4152 79.5896 85.8374 79.1269 86.3087 78.7176C86.6303 78.4332 86.9283 78.1232 87.1997 77.7905C87.3853 77.5444 87.4848 77.2439 87.4826 76.9356C87.4892 76.7251 87.4431 76.5163 87.3485 76.3281C87.2539 76.1399 87.1137 75.9783 86.9408 75.8581C86.5147 75.5787 86.0109 75.4417 85.502 75.4668C84.9686 75.4542 84.4406 75.5763 83.9669 75.8219C83.518 76.0638 83.1307 76.4057 82.8352 76.8213L80.6138 75.5209C81.1307 74.7405 81.8509 74.1161 82.6967 73.7149C83.6725 73.2623 84.7398 73.0419 85.815 73.0708C87.0101 73.0144 88.1936 73.3276 89.2043 73.9678C89.6095 74.2409 89.9391 74.612 90.1622 75.0468C90.3854 75.4815 90.4949 75.9656 90.4805 76.454C90.4905 76.9084 90.4043 77.3597 90.2277 77.7784C90.0815 78.1305 89.8781 78.456 89.6257 78.7416C89.3849 79.0065 89.0779 79.3075 88.6986 79.6507C88.3356 79.9593 88.003 80.302 87.7053 80.6741C87.4915 80.9625 87.3812 81.3145 87.3923 81.6734H84.6171C84.5948 81.1154 84.7462 80.5643 85.0505 80.0961ZM84.7555 85.7971C84.5901 85.6441 84.4595 85.4576 84.3722 85.2499C84.285 85.0422 84.2433 84.8182 84.2498 84.5931C84.245 84.3749 84.2872 84.1583 84.3734 83.9578C84.4596 83.7574 84.5879 83.5778 84.7495 83.4312C85.1022 83.1282 85.5517 82.9616 86.0167 82.9616C86.4817 82.9616 86.9313 83.1282 87.2839 83.4312C87.4445 83.5783 87.5716 83.7582 87.6568 83.9586C87.7419 84.159 87.7831 84.3754 87.7776 84.5931C87.7841 84.8182 87.7424 85.0422 87.6552 85.2499C87.568 85.4576 87.4373 85.6441 87.2719 85.7971C86.928 86.111 86.4793 86.285 86.0137 86.285C85.5481 86.285 85.0994 86.111 84.7555 85.7971Z" fill="#FAFAFA"/>
<path d="M241.787 149.772H250.534C251.868 149.772 253.146 150.301 254.089 151.244C255.031 152.187 255.561 153.465 255.561 154.798V163.545C255.561 164.877 255.032 166.154 254.091 167.096C253.149 168.037 251.872 168.566 250.54 168.566H241.787C240.456 168.566 239.179 168.037 238.237 167.096C237.296 166.154 236.767 164.877 236.767 163.545V154.798C236.767 153.467 237.296 152.19 238.237 151.248C239.179 150.307 240.456 149.778 241.787 149.778V149.772Z" fill="#EBEBEB"/>
<path d="M245.772 160.186C246.055 159.795 246.383 159.437 246.748 159.121C246.998 158.9 247.23 158.658 247.44 158.398C247.584 158.21 247.66 157.979 247.657 157.742C247.663 157.579 247.628 157.417 247.554 157.272C247.48 157.127 247.371 157.002 247.235 156.911C246.907 156.692 246.516 156.584 246.122 156.604C245.718 156.592 245.318 156.682 244.958 156.865C244.599 157.048 244.291 157.319 244.063 157.652L242.341 156.646C242.739 156.037 243.297 155.55 243.954 155.238C244.708 154.889 245.532 154.718 246.362 154.738C247.289 154.693 248.206 154.937 248.987 155.436C249.302 155.648 249.558 155.937 249.73 156.275C249.903 156.613 249.987 156.989 249.974 157.369C249.981 157.72 249.916 158.068 249.782 158.392C249.668 158.666 249.51 158.918 249.312 159.139C249.087 159.387 248.848 159.622 248.596 159.843C248.317 160.083 248.059 160.347 247.825 160.632C247.664 160.858 247.579 161.13 247.584 161.408H245.441C245.423 160.976 245.538 160.549 245.772 160.186ZM245.544 164.599C245.418 164.483 245.319 164.341 245.252 164.183C245.186 164.025 245.154 163.855 245.158 163.684C245.155 163.515 245.187 163.348 245.252 163.192C245.317 163.036 245.415 162.896 245.538 162.781C245.811 162.547 246.159 162.419 246.519 162.419C246.879 162.419 247.227 162.547 247.5 162.781C247.624 162.896 247.723 163.036 247.789 163.191C247.855 163.347 247.888 163.515 247.885 163.684C247.889 163.855 247.856 164.026 247.789 164.184C247.721 164.341 247.621 164.483 247.494 164.599C247.365 164.724 247.213 164.823 247.045 164.888C246.878 164.953 246.699 164.984 246.519 164.978C246.339 164.982 246.161 164.951 245.993 164.886C245.826 164.821 245.673 164.723 245.544 164.599Z" fill="#FAFAFA"/>
<path d="M70.5002 103.062H59.1946C55.6106 103.062 52.7051 105.968 52.7051 109.552V120.858C52.7051 124.442 55.6106 127.347 59.1946 127.347H70.5002C74.0843 127.347 76.9898 124.442 76.9898 120.858V109.552C76.9898 105.968 74.0843 103.062 70.5002 103.062Z" fill="#EBEBEB"/>
<path d="M64.8474 108.36C64.1259 108.36 63.4115 108.502 62.745 108.779C62.0785 109.055 61.473 109.46 60.9631 109.97C60.4532 110.481 60.0489 111.087 59.7734 111.753C59.4978 112.42 59.3564 113.135 59.3572 113.856C59.3572 116.866 61.8133 124.163 64.8474 124.163C67.8815 124.163 70.3377 116.884 70.3377 113.856C70.3384 113.135 70.197 112.42 69.9215 111.753C69.6459 111.087 69.2416 110.481 68.7317 109.97C68.2218 109.46 67.6163 109.055 66.9498 108.779C66.2833 108.502 65.5689 108.36 64.8474 108.36ZM64.8474 115.512C64.52 115.512 64.1999 115.415 63.9277 115.233C63.6554 115.051 63.4432 114.792 63.3179 114.49C63.1926 114.187 63.1599 113.854 63.2237 113.533C63.2876 113.212 63.4453 112.917 63.6768 112.686C63.9083 112.454 64.2033 112.296 64.5244 112.233C64.8456 112.169 65.1784 112.202 65.481 112.327C65.7835 112.452 66.042 112.664 66.2239 112.937C66.4058 113.209 66.5029 113.529 66.5029 113.856C66.4966 114.291 66.3194 114.706 66.0096 115.011C65.6998 115.317 65.2823 115.488 64.8474 115.488V115.512Z" fill="#FAFAFA"/>
<path d="M67.2735 148.357C67.4502 147.242 67.4502 146.107 67.2735 144.992L65.5819 144.769C65.4454 144.147 65.2437 143.542 64.9799 142.963L66.22 141.789C65.7044 140.785 65.0363 139.867 64.2395 139.068L62.7345 139.887C62.2692 139.465 61.7607 139.094 61.2174 138.779L61.5305 137.1C60.5306 136.585 59.4559 136.232 58.3459 136.052L57.6175 137.587C57.3104 137.557 57.0155 137.539 56.6783 137.539C56.3412 137.539 56.0402 137.539 55.7332 137.587L55.0048 136.052C53.8889 136.228 52.808 136.579 51.8021 137.093L52.1152 138.773C51.5719 139.088 51.0634 139.459 50.5981 139.881L49.0931 139.062C48.2963 139.861 47.6282 140.779 47.1126 141.783L48.3527 142.957C48.0889 143.536 47.8872 144.141 47.7507 144.763L46.0651 144.986C45.8805 146.1 45.8805 147.237 46.0651 148.351L47.7507 148.574C47.8872 149.195 48.0889 149.801 48.3527 150.38L47.1126 151.554C47.627 152.558 48.2953 153.476 49.0931 154.275L50.5981 153.456C51.0634 153.878 51.5719 154.249 52.1152 154.564L51.8021 156.243C52.808 156.757 53.8889 157.109 55.0048 157.285L55.7332 155.749C56.0402 155.78 56.3352 155.798 56.6783 155.798C57.0215 155.798 57.2803 155.798 57.6175 155.749L58.3459 157.285C59.4617 157.109 60.5427 156.757 61.5485 156.243L61.2355 154.564C61.7788 154.249 62.2873 153.878 62.7525 153.456L64.2575 154.275C65.0543 153.475 65.7225 152.557 66.2381 151.554L65.016 150.368C65.279 149.788 65.4808 149.183 65.618 148.562L67.2735 148.357ZM56.6783 150.422C55.9361 150.423 55.2101 150.204 54.5924 149.792C53.9747 149.381 53.4931 148.795 53.2085 148.109C52.9239 147.424 52.8491 146.669 52.9936 145.941C53.1382 145.213 53.4955 144.544 54.0203 144.019C54.5452 143.494 55.214 143.137 55.9421 142.993C56.6702 142.848 57.4248 142.923 58.1103 143.207C58.7959 143.492 59.3816 143.974 59.7932 144.591C60.2049 145.209 60.424 145.935 60.4228 146.677C60.4212 147.67 60.0262 148.621 59.3243 149.323C58.6224 150.025 57.6709 150.42 56.6783 150.422Z" fill="#EBEBEB"/>
<path d="M72.7035 160.469C72.7467 160.19 72.7688 159.909 72.7697 159.626C72.7693 159.344 72.7472 159.062 72.7035 158.784L71.8547 158.675C71.7903 158.367 71.6934 158.066 71.5657 157.778L72.1677 157.176C71.9101 156.672 71.5749 156.21 71.1744 155.81L70.4219 156.219C70.1881 156.01 69.934 155.824 69.6634 155.665L69.8199 154.828C69.3173 154.57 68.7768 154.393 68.2186 154.305L67.8574 155.075C67.7009 155.075 67.5444 155.075 67.3878 155.075C67.2313 155.075 67.0688 155.075 66.9123 155.075L66.5511 154.305C65.9929 154.393 65.4523 154.57 64.9497 154.828L65.1063 155.665C64.8356 155.824 64.5815 156.01 64.3477 156.219L63.5952 155.81C63.1947 156.21 62.8595 156.672 62.6019 157.176L63.2039 157.778C63.0762 158.066 62.9794 158.367 62.915 158.675L62.0722 158.784C62.0254 159.062 62.0033 159.344 62.006 159.626C62.0038 159.909 62.026 160.191 62.0722 160.469L62.915 160.577C62.9794 160.884 63.0762 161.183 63.2039 161.468L62.6019 162.07C62.8601 162.573 63.1952 163.032 63.5952 163.431L64.3477 163.022C64.5785 163.235 64.833 163.421 65.1063 163.575L64.9497 164.412C65.4523 164.671 65.9929 164.848 66.5511 164.936L66.9123 164.165C67.2265 164.198 67.5432 164.198 67.8574 164.165L68.2186 164.936C68.7768 164.848 69.3173 164.671 69.8199 164.412L69.6634 163.575C69.9367 163.421 70.1912 163.235 70.4219 163.022L71.1744 163.431C71.5744 163.032 71.9096 162.573 72.1677 162.07L71.5657 161.468C71.6934 161.183 71.7903 160.884 71.8547 160.577L72.7035 160.469ZM67.4059 161.499C67.0356 161.499 66.6736 161.389 66.3657 161.183C66.0579 160.977 65.8179 160.685 65.6762 160.343C65.5345 160.001 65.4974 159.624 65.5696 159.261C65.6419 158.898 65.8202 158.564 66.082 158.302C66.3439 158.041 66.6775 157.862 67.0406 157.79C67.4038 157.718 67.7803 157.755 68.1224 157.897C68.4645 158.038 68.7569 158.278 68.9626 158.586C69.1683 158.894 69.2781 159.256 69.2781 159.626C69.2766 160.119 69.0813 160.592 68.7344 160.942C68.3875 161.292 67.9169 161.492 67.424 161.499H67.4059Z" fill="#E0E0E0"/>
<path d="M258.704 148.321C258.931 148.153 259.146 147.97 259.348 147.773C259.547 147.573 259.73 147.357 259.896 147.129L259.378 146.455C259.549 146.192 259.69 145.912 259.799 145.618H260.654C260.829 145.081 260.919 144.521 260.919 143.956L260.094 143.716C260.082 143.402 260.033 143.091 259.95 142.788L260.654 142.307C260.484 141.768 260.225 141.262 259.89 140.808L259.089 141.091C258.991 140.969 258.886 140.852 258.776 140.742C258.661 140.627 258.547 140.525 258.427 140.423L258.71 139.622C258.252 139.292 257.746 139.034 257.211 138.857L256.729 139.562C256.423 139.484 256.111 139.435 255.796 139.417L255.555 138.599C254.991 138.597 254.43 138.686 253.894 138.863V139.712C253.601 139.826 253.32 139.969 253.057 140.14L252.377 139.622C251.916 139.959 251.509 140.365 251.173 140.826L251.69 141.5C251.521 141.766 251.377 142.049 251.263 142.343H250.414C250.24 142.88 250.15 143.44 250.149 144.004L250.968 144.245C250.986 144.558 251.034 144.869 251.112 145.172L250.408 145.66C250.585 146.196 250.843 146.701 251.173 147.159L251.973 146.87C252.076 146.99 252.178 147.111 252.292 147.225C252.407 147.34 252.521 147.442 252.641 147.538L252.359 148.339C252.813 148.675 253.319 148.933 253.857 149.103L254.339 148.399C254.642 148.483 254.953 148.531 255.266 148.544L255.507 149.368C256.073 149.368 256.636 149.278 257.175 149.103V148.249C257.467 148.137 257.748 147.996 258.011 147.827L258.704 148.321ZM254.231 145.311C253.969 145.049 253.791 144.715 253.719 144.352C253.647 143.989 253.684 143.613 253.826 143.271C253.967 142.929 254.207 142.636 254.515 142.431C254.823 142.225 255.185 142.115 255.555 142.115C255.925 142.115 256.287 142.225 256.595 142.431C256.903 142.636 257.143 142.929 257.285 143.271C257.426 143.613 257.464 143.989 257.391 144.352C257.319 144.715 257.141 145.049 256.88 145.311C256.706 145.485 256.499 145.623 256.271 145.717C256.044 145.812 255.8 145.86 255.554 145.859C255.308 145.859 255.064 145.809 254.837 145.714C254.61 145.619 254.404 145.48 254.231 145.305V145.311Z" fill="#F0F0F0"/>
<path d="M150.5 255.073C214.964 255.073 267.222 252.022 267.222 248.259C267.222 244.495 214.964 241.444 150.5 241.444C86.0363 241.444 33.7782 244.495 33.7782 248.259C33.7782 252.022 86.0363 255.073 150.5 255.073Z" fill="#F5F5F5"/>
<path d="M171.907 68.4835V59.1044L176.518 58.4542V67.8334L171.907 68.4835Z" fill="#263238"/>
<path d="M156.574 73.7089L153.119 68.2066L156.063 66.0996L159.512 71.5959L156.574 73.7089Z" fill="#263238"/>
<path d="M188.908 67.4601L192.363 60.9946L195.301 62.2769L191.851 68.7484L188.908 67.4601Z" fill="#263238"/>
<g opacity="0.5">
<path d="M171.907 68.4835V59.1044L176.518 58.4542V67.8334L171.907 68.4835Z" fill="white"/>
<path d="M156.574 73.7089L153.119 68.2066L156.063 66.0996L159.512 71.5959L156.574 73.7089Z" fill="white"/>
<path d="M188.908 67.4601L192.363 60.9947L195.301 62.2769L191.851 68.7484L188.908 67.4601Z" fill="white"/>
</g>
<path d="M177.175 59.9652L171.251 60.802C171.036 60.8417 170.815 60.8327 170.604 60.7756C170.392 60.7186 170.197 60.6149 170.031 60.4722C169.865 60.3296 169.734 60.1516 169.646 59.9513C169.558 59.751 169.516 59.5336 169.523 59.315C169.537 58.8371 169.717 58.3788 170.032 58.0194C170.348 57.66 170.779 57.422 171.251 57.3465L177.175 56.5157C177.389 56.4762 177.61 56.485 177.821 56.5418C178.031 56.5985 178.227 56.7016 178.392 56.8436C178.558 56.9856 178.69 57.1628 178.778 57.3624C178.866 57.5619 178.909 57.7786 178.902 57.9967C178.888 58.4743 178.707 58.9319 178.392 59.2911C178.077 59.6503 177.646 59.8886 177.175 59.9652Z" fill="#263238"/>
<path d="M157.02 65.9491L152.631 69.1036C152.54 69.1799 152.434 69.2366 152.32 69.2702C152.206 69.3038 152.086 69.3135 151.968 69.2988C151.85 69.2841 151.736 69.2453 151.634 69.1848C151.531 69.1243 151.443 69.0434 151.373 68.9471C151.257 68.7263 151.227 68.4704 151.29 68.229C151.352 67.9876 151.502 67.7779 151.71 67.6407L156.105 64.4923C156.195 64.4153 156.3 64.3579 156.414 64.3239C156.528 64.2898 156.647 64.2799 156.765 64.2946C156.883 64.3093 156.996 64.3484 157.098 64.4094C157.2 64.4704 157.288 64.5519 157.357 64.6488C157.472 64.8687 157.502 65.1237 157.439 65.364C157.377 65.6044 157.227 65.813 157.02 65.9491Z" fill="#263238"/>
<path d="M195.794 63.0354L191.4 61.1211C191.295 61.0678 191.202 60.9934 191.128 60.9025C191.053 60.8117 190.999 60.7063 190.967 60.5931C190.935 60.4799 190.927 60.3614 190.944 60.245C190.96 60.1286 191.001 60.017 191.063 59.9171C191.173 59.6917 191.362 59.5149 191.594 59.4205C191.826 59.3261 192.085 59.3207 192.321 59.4054L196.71 61.3257C196.816 61.3775 196.91 61.4512 196.985 61.5419C197.061 61.6327 197.116 61.7384 197.148 61.8521C197.18 61.9658 197.188 62.085 197.17 62.2018C197.152 62.3186 197.11 62.4303 197.047 62.5297C196.937 62.7535 196.748 62.9289 196.517 63.0222C196.286 63.1155 196.029 63.1202 195.794 63.0354Z" fill="#263238"/>
<path opacity="0.7" d="M177.175 59.9652L171.251 60.802C171.036 60.8417 170.815 60.8327 170.604 60.7756C170.392 60.7186 170.197 60.6149 170.031 60.4722C169.865 60.3296 169.734 60.1516 169.646 59.9513C169.558 59.751 169.516 59.5336 169.523 59.315C169.537 58.8371 169.717 58.3788 170.032 58.0194C170.348 57.66 170.779 57.422 171.251 57.3465L177.175 56.5157C177.389 56.4762 177.61 56.485 177.821 56.5418C178.031 56.5985 178.227 56.7016 178.392 56.8436C178.558 56.9856 178.69 57.1628 178.778 57.3624C178.866 57.5619 178.909 57.7786 178.902 57.9967C178.888 58.4743 178.707 58.9319 178.392 59.2911C178.077 59.6503 177.646 59.8886 177.175 59.9652Z" fill="white"/>
<path opacity="0.7" d="M157.02 65.9491L152.631 69.1036C152.54 69.1799 152.434 69.2366 152.32 69.2702C152.206 69.3038 152.086 69.3135 151.968 69.2988C151.85 69.2841 151.736 69.2453 151.634 69.1848C151.531 69.1243 151.443 69.0434 151.373 68.9471C151.257 68.7263 151.227 68.4704 151.29 68.229C151.352 67.9876 151.502 67.7779 151.71 67.6407L156.105 64.4923C156.195 64.4153 156.3 64.3579 156.414 64.3239C156.528 64.2898 156.647 64.2799 156.765 64.2946C156.883 64.3093 156.996 64.3484 157.098 64.4094C157.2 64.4704 157.288 64.5519 157.357 64.6488C157.472 64.8687 157.502 65.1237 157.439 65.364C157.377 65.6044 157.227 65.813 157.02 65.9491Z" fill="white"/>
<path opacity="0.7" d="M195.794 63.0354L191.4 61.1211C191.295 61.0678 191.202 60.9934 191.128 60.9025C191.053 60.8117 190.999 60.7063 190.967 60.5931C190.935 60.4799 190.927 60.3614 190.944 60.245C190.96 60.1286 191.001 60.017 191.063 59.9171C191.173 59.6917 191.362 59.5149 191.594 59.4205C191.826 59.3261 192.085 59.3207 192.321 59.4054L196.71 61.3257C196.816 61.3775 196.91 61.4512 196.985 61.5419C197.061 61.6327 197.116 61.7384 197.148 61.8521C197.18 61.9658 197.188 62.085 197.17 62.2018C197.152 62.3186 197.11 62.4303 197.047 62.5297C196.937 62.7535 196.748 62.9289 196.517 63.0222C196.286 63.1155 196.029 63.1202 195.794 63.0354Z" fill="white"/>
<path d="M174.213 127.203C158.181 129.454 145.184 118.287 145.184 102.256C145.184 86.2245 158.181 71.3972 174.213 69.1457C190.244 66.8942 203.241 78.0614 203.241 94.0926L207.202 93.5388C207.202 75.3162 192.429 62.6261 174.213 65.1846C155.996 67.7431 141.223 84.593 141.223 102.81C141.223 121.026 155.99 133.722 174.213 131.164V127.203Z" fill="#FF3F20"/>
<path d="M162.679 118.736L160.512 122.794L161.362 123.247L163.528 119.19L162.679 118.736Z" fill="#263238"/>
<path d="M187.052 73.0959L184.886 77.153L185.735 77.6067L187.902 73.5496L187.052 73.0959Z" fill="#263238"/>
<path d="M151.413 87.6824L151.027 88.5651L154.779 90.2033L155.164 89.3206L151.413 87.6824Z" fill="#263238"/>
<path d="M161.723 77.381L160.905 77.8914L163.065 81.3557L163.883 80.8452L161.723 77.381Z" fill="#263238"/>
<path d="M154.702 111.602L150.945 114.297L151.507 115.08L155.263 112.384L154.702 111.602Z" fill="#263238"/>
<path d="M196.917 81.2857L193.16 83.981L193.722 84.7636L197.478 82.0683L196.917 81.2857Z" fill="#263238"/>
<path d="M153.318 100.138L147.541 100.95L147.809 102.858L153.586 102.046L153.318 100.138Z" fill="#263238"/>
<path d="M175.176 71.638H173.25V77.4172H175.176V71.638Z" fill="#263238"/>
<path d="M175.176 118.931H173.25V124.71H175.176V118.931Z" fill="#263238"/>
<path d="M166.754 91.9134C166.53 92.1389 166.404 92.4441 166.404 92.7622C166.404 93.0803 166.53 93.3854 166.754 93.611L173.219 99.1614L174.911 97.229L168.452 91.6726C168.325 91.5758 168.18 91.5052 168.026 91.465C167.871 91.4247 167.71 91.4155 167.552 91.4379C167.394 91.4603 167.242 91.5138 167.105 91.5955C166.968 91.6771 166.849 91.7851 166.754 91.9134Z" fill="#FF3F20"/>
<path opacity="0.4" d="M166.754 91.9134C166.53 92.1389 166.404 92.4441 166.404 92.7622C166.404 93.0803 166.53 93.3854 166.754 93.611L173.219 99.1614L174.911 97.229L168.452 91.6726C168.325 91.5758 168.18 91.5052 168.026 91.465C167.871 91.4247 167.71 91.4155 167.552 91.4379C167.394 91.4603 167.242 91.5138 167.105 91.5955C166.968 91.6771 166.849 91.7851 166.754 91.9134Z" fill="white"/>
<path d="M210.026 92.6599L205.204 99.1193L200.388 94.0144L210.026 92.6599Z" fill="#FF3F20"/>
<path d="M185.211 85.4479C185.085 85.3511 184.94 85.2806 184.785 85.2403C184.631 85.2 184.47 85.1908 184.312 85.2132C184.154 85.2356 184.002 85.2891 183.865 85.3708C183.728 85.4524 183.609 85.5605 183.514 85.6887L174.761 95.6698C174.292 95.6107 173.816 95.6695 173.375 95.8408C172.935 96.0122 172.544 96.2907 172.238 96.6511C171.251 97.7828 171.251 99.3902 172.238 100.263C173.226 101.136 174.839 100.865 175.85 99.7574C176.162 99.4101 176.381 98.9894 176.486 98.5346C176.591 98.0798 176.58 97.6058 176.452 97.1568L185.205 87.1696C185.32 87.0579 185.412 86.9243 185.475 86.7766C185.537 86.629 185.57 86.4704 185.571 86.31C185.571 86.1496 185.54 85.9907 185.478 85.8427C185.416 85.6946 185.326 85.5604 185.211 85.4479Z" fill="#FF3F20"/>
<path d="M186.795 121.761L194.32 120.701L193.651 124.175L180.088 126.083L180.63 123.32L188.793 115.777C189.561 115.083 190.251 114.307 190.852 113.465C191.226 112.935 191.435 112.307 191.454 111.659C191.47 111.396 191.416 111.135 191.297 110.9C191.179 110.665 191 110.466 190.78 110.323C190.18 110.005 189.486 109.913 188.823 110.064C188.083 110.169 187.374 110.434 186.746 110.84C186.069 111.268 185.479 111.819 185.007 112.466L182.219 110.834C182.999 109.681 184.028 108.719 185.229 108.017C186.519 107.245 187.953 106.745 189.443 106.548C190.537 106.365 191.658 106.416 192.73 106.699C193.593 106.922 194.362 107.413 194.928 108.101C195.456 108.779 195.733 109.62 195.71 110.479C195.699 111.626 195.381 112.748 194.789 113.73C193.906 115.101 192.829 116.338 191.593 117.402L186.795 121.761Z" fill="#263238"/>
<path d="M212.253 117.799L209.315 118.215L208.569 122.08L204.53 122.645L205.282 118.775L195.65 120.135L196.186 117.27L206.727 104.423L211.26 103.791L201.429 115.945L206.143 115.283L206.805 111.834L210.67 111.292L210.002 114.735L212.945 114.326L212.253 117.799Z" fill="#263238"/>
<path d="M224.076 98.3548L227.815 97.825L214.661 123.783L210.953 124.301L224.076 98.3548Z" fill="#263238"/>
<path d="M241.143 99.5888L240.607 102.352L231.036 118.919L226.43 119.569L235.617 103.743L229.807 104.561L229.205 107.571L225.521 108.089L226.773 101.618L241.143 99.5888Z" fill="#263238"/>
<path d="M182.147 143.878C181.576 143.815 181.024 143.639 180.522 143.36L181.401 141.554C181.846 141.815 182.336 141.99 182.845 142.072C183.39 142.159 183.945 142.159 184.489 142.072C184.993 142.021 185.478 141.852 185.904 141.578C186.056 141.488 186.183 141.36 186.274 141.208C186.364 141.055 186.415 140.883 186.421 140.705C186.428 140.573 186.391 140.443 186.316 140.334C186.24 140.225 186.132 140.144 186.006 140.103C185.578 139.96 185.136 139.863 184.688 139.814C184.188 139.741 183.694 139.639 183.207 139.507C182.827 139.397 182.483 139.189 182.207 138.905C181.909 138.559 181.76 138.109 181.792 137.653C181.789 137.034 181.972 136.428 182.316 135.914C182.698 135.357 183.213 134.904 183.815 134.595C184.515 134.228 185.276 133.99 186.06 133.891C186.658 133.801 187.265 133.787 187.866 133.849C188.368 133.89 188.857 134.022 189.311 134.24L188.498 136.01C188.134 135.812 187.736 135.684 187.324 135.631C186.871 135.571 186.411 135.571 185.958 135.631C185.438 135.685 184.939 135.867 184.507 136.16C184.35 136.253 184.219 136.384 184.125 136.541C184.032 136.697 183.979 136.875 183.971 137.057C183.966 137.15 183.985 137.243 184.025 137.327C184.065 137.411 184.125 137.484 184.2 137.539C184.368 137.667 184.564 137.756 184.772 137.798C185.001 137.846 185.326 137.9 185.747 137.96C186.243 138.016 186.734 138.108 187.216 138.237C187.589 138.35 187.927 138.557 188.197 138.839C188.342 139.003 188.452 139.194 188.521 139.4C188.59 139.607 188.617 139.826 188.601 140.043C188.607 140.668 188.422 141.279 188.071 141.795C187.681 142.35 187.162 142.802 186.56 143.113C185.849 143.504 185.074 143.763 184.272 143.878C183.568 143.98 182.852 143.98 182.147 143.878Z" fill="#263238"/>
<path d="M193.206 134.848L192.803 136.937L197.143 136.335L196.812 138.069L192.459 138.671L192.032 140.898L197.131 140.182L196.77 141.988L189.546 143.005L191.412 133.373L198.479 132.38L198.118 134.186L193.206 134.848Z" fill="#263238"/>
<path d="M207.118 136.323C206.627 137.029 205.947 137.582 205.156 137.918L206.781 140.573L204.499 140.898L203.031 138.49L201.188 138.749L200.665 141.44L198.491 141.747L200.358 132.115L204.168 131.579C205.082 131.376 206.039 131.513 206.859 131.964C207.182 132.183 207.442 132.483 207.611 132.834C207.78 133.185 207.853 133.575 207.822 133.963C207.838 134.804 207.592 135.628 207.118 136.323ZM205.041 135.986C205.24 135.791 205.396 135.557 205.499 135.299C205.603 135.041 205.652 134.765 205.643 134.487C205.661 134.305 205.629 134.121 205.549 133.957C205.469 133.792 205.346 133.653 205.192 133.554C204.79 133.357 204.334 133.302 203.897 133.397L202.188 133.638L201.532 136.979L203.374 136.72C203.993 136.659 204.577 136.402 205.041 135.986Z" fill="#263238"/>
<path d="M219.158 129.49L213.246 139.664L211.121 139.959L208.942 130.929L211.176 130.616L212.681 137.063L216.895 129.803L219.158 129.49Z" fill="#263238"/>
<path d="M219.929 129.382L222.108 129.075L220.242 138.707L218.062 139.014L219.929 129.382Z" fill="#263238"/>
<path d="M224.907 137.683C224.251 137.472 223.683 137.049 223.294 136.479C222.907 135.869 222.712 135.156 222.734 134.433C222.729 133.4 222.979 132.383 223.462 131.471C223.95 130.549 224.654 129.76 225.515 129.171C226.413 128.552 227.444 128.154 228.525 128.009C229.264 127.887 230.02 127.928 230.741 128.13C231.332 128.287 231.849 128.65 232.197 129.153L230.632 130.652C230.371 130.32 230.02 130.07 229.621 129.932C229.222 129.795 228.791 129.775 228.381 129.875C227.726 129.963 227.105 130.216 226.575 130.61C226.063 131.002 225.65 131.509 225.371 132.091C225.082 132.683 224.933 133.334 224.937 133.993C224.915 134.298 224.966 134.604 225.085 134.886C225.204 135.167 225.389 135.416 225.624 135.613C225.904 135.803 226.22 135.933 226.552 135.995C226.885 136.057 227.226 136.05 227.556 135.974C228.537 135.838 229.426 135.327 230.036 134.547L231.319 135.673C230.84 136.282 230.244 136.788 229.565 137.162C228.887 137.535 228.14 137.768 227.369 137.846C226.548 137.989 225.703 137.933 224.907 137.683Z" fill="#263238"/>
<path d="M235.9 128.876L235.496 130.959L239.837 130.357L239.506 132.085L235.153 132.687L234.726 134.908L239.825 134.192L239.464 135.998L232.24 137.015L234.112 127.383L241.161 126.42L240.8 128.226L235.9 128.876Z" fill="#263238"/>
<path d="M118.275 86.9709C111.84 86.9709 106.626 90.7695 106.626 95.4531C106.626 98.8544 109.39 101.786 113.369 103.135C112.942 105.088 112.209 106.961 111.196 108.685C112.64 108.47 114.016 107.93 115.22 107.105C116.425 106.28 117.426 105.192 118.149 103.923H118.275C124.71 103.923 129.924 100.131 129.924 95.4471C129.924 90.7635 124.71 86.9709 118.275 86.9709Z" fill="#FF3F20"/>
<path opacity="0.7" d="M118.275 86.9709C111.84 86.9709 106.626 90.7695 106.626 95.4531C106.626 98.8544 109.39 101.786 113.369 103.135C112.942 105.088 112.209 106.961 111.196 108.685C112.64 108.47 114.016 107.93 115.22 107.105C116.425 106.28 117.426 105.192 118.149 103.923H118.275C124.71 103.923 129.924 100.131 129.924 95.4471C129.924 90.7635 124.71 86.9709 118.275 86.9709Z" fill="white"/>
<path d="M113.14 97.0845C113.795 97.0845 114.326 96.5535 114.326 95.8986C114.326 95.2436 113.795 94.7126 113.14 94.7126C112.485 94.7126 111.954 95.2436 111.954 95.8986C111.954 96.5535 112.485 97.0845 113.14 97.0845Z" fill="#263238"/>
<path d="M119.383 95.8986C119.383 96.1367 119.312 96.3695 119.18 96.5675C119.048 96.7655 118.859 96.9198 118.639 97.0109C118.419 97.1021 118.177 97.1259 117.944 97.0794C117.71 97.033 117.496 96.9183 117.327 96.7499C117.159 96.5816 117.044 96.367 116.998 96.1335C116.951 95.8999 116.975 95.6578 117.066 95.4378C117.158 95.2178 117.312 95.0298 117.51 94.8975C117.708 94.7652 117.941 94.6946 118.179 94.6946C118.498 94.6946 118.804 94.8214 119.03 95.0472C119.256 95.273 119.383 95.5793 119.383 95.8986Z" fill="#263238"/>
<path d="M123.253 97.0845C123.908 97.0845 124.439 96.5535 124.439 95.8986C124.439 95.2436 123.908 94.7126 123.253 94.7126C122.598 94.7126 122.068 95.2436 122.068 95.8986C122.068 96.5535 122.598 97.0845 123.253 97.0845Z" fill="#263238"/>
<path d="M223.944 216.75C223.944 216.75 224.022 208.713 221.097 209.773C218.171 210.832 223.944 216.75 223.944 216.75Z" fill="#FF3F20"/>
<path d="M227.087 209.309C227.087 209.309 230.963 202.88 227.46 201.959C223.956 201.038 227.087 209.309 227.087 209.309Z" fill="#FF3F20"/>
<path d="M242.407 204.77C242.407 204.77 250.456 204.355 248.638 201.339C246.82 198.323 242.407 204.77 242.407 204.77Z" fill="#FF3F20"/>
<path d="M229.675 206.907C229.675 206.907 238.103 205.005 236.526 209.737C234.949 214.468 229.675 206.907 229.675 206.907Z" fill="#FF3F20"/>
<path d="M223.553 224.016C223.553 224.016 220.332 216.72 218.526 219.315C216.72 221.909 223.553 224.016 223.553 224.016Z" fill="#FF3F20"/>
<path d="M232.739 205.39C232.739 205.39 241.324 203.139 238.651 199.972C235.978 196.806 232.739 205.39 232.739 205.39Z" fill="#FF3F20"/>
<path d="M239.229 204.505C239.229 204.505 246.019 207.84 242.889 210.02C239.759 212.199 239.229 204.505 239.229 204.505Z" fill="#FF3F20"/>
<path d="M224.793 213.517C224.793 213.517 229.494 207.859 230.945 211.97C232.396 216.082 224.793 213.517 224.793 213.517Z" fill="#FF3F20"/>
<g opacity="0.4">
<path d="M223.553 224.016C223.553 224.016 220.332 216.72 218.526 219.315C216.72 221.909 223.553 224.016 223.553 224.016Z" fill="white"/>
<path d="M232.739 205.39C232.739 205.39 241.324 203.139 238.651 199.972C235.978 196.806 232.739 205.39 232.739 205.39Z" fill="white"/>
<path d="M239.229 204.505C239.229 204.505 246.019 207.84 242.889 210.02C239.759 212.199 239.229 204.505 239.229 204.505Z" fill="white"/>
<path d="M224.793 213.517C224.793 213.517 229.494 207.858 230.945 211.97C232.396 216.082 224.793 213.517 224.793 213.517Z" fill="white"/>
</g>
<path d="M223.505 220.862C223.505 220.862 226.876 213.638 229.591 217.28C232.306 220.922 223.505 220.862 223.505 220.862Z" fill="#FF3F20"/>
<path d="M223.559 228.459C222.537 223.752 222.684 218.865 223.986 214.228C226.743 205.198 235.201 203.073 243.75 204.439C244.43 204.548 244.129 205.571 243.455 205.463C238.916 204.74 233.823 204.668 229.868 207.413C227.038 209.394 225.437 212.542 224.666 215.841C223.763 219.909 223.74 224.123 224.6 228.2C224.739 228.874 223.703 229.139 223.559 228.465V228.459Z" fill="#FF3F20"/>
<g opacity="0.3">
<path d="M223.559 228.459C222.537 223.752 222.684 218.865 223.986 214.228C226.743 205.198 235.201 203.073 243.75 204.439C244.43 204.548 244.129 205.571 243.455 205.463C238.916 204.74 233.823 204.668 229.868 207.413C227.038 209.394 225.437 212.542 224.666 215.841C223.763 219.909 223.74 224.123 224.6 228.2C224.739 228.874 223.703 229.139 223.559 228.465V228.459Z" fill="black"/>
</g>
<path d="M216.858 214.312C216.858 214.312 212.644 204.487 209.911 207.052C207.178 209.616 216.858 214.312 216.858 214.312Z" fill="#FF3F20"/>
<path d="M216.497 203.861C216.497 203.861 217.497 194.344 213.018 194.753C208.539 195.162 216.497 203.861 216.497 203.861Z" fill="#FF3F20"/>
<path d="M231.541 191.653C231.541 191.653 240.481 187.637 236.809 184.76C233.136 181.882 231.541 191.653 231.541 191.653Z" fill="#FF3F20"/>
<path d="M218.171 199.81C218.171 199.81 226.773 193.79 227.478 200.267C228.182 206.745 218.171 199.81 218.171 199.81Z" fill="#FF3F20"/>
<path d="M220.29 223.306C220.29 223.306 212.711 215.853 212.03 219.79C211.35 223.727 220.29 223.306 220.29 223.306Z" fill="#FF3F20"/>
<path d="M220.85 196.625C220.85 196.625 229.434 190.136 224.703 187.445C219.971 184.754 220.85 196.625 220.85 196.625Z" fill="#FF3F20"/>
<path d="M227.779 192.718C227.779 192.718 237.284 193.82 234.87 197.835C232.456 201.851 227.779 192.718 227.779 192.718Z" fill="#FF3F20"/>
<path d="M216.118 209.984C216.118 209.984 218.466 201.044 222.306 205.42C226.147 209.797 216.118 209.984 216.118 209.984Z" fill="#FF3F20"/>
<g opacity="0.4">
<path d="M220.29 223.306C220.29 223.306 212.711 215.853 212.03 219.79C211.35 223.727 220.29 223.306 220.29 223.306Z" fill="white"/>
<path d="M220.85 196.625C220.85 196.625 229.434 190.136 224.703 187.445C219.971 184.754 220.85 196.625 220.85 196.625Z" fill="white"/>
<path d="M227.779 192.718C227.779 192.718 237.284 193.82 234.87 197.835C232.456 201.851 227.779 192.718 227.779 192.718Z" fill="white"/>
<path d="M216.118 209.984C216.118 209.984 218.466 201.044 222.306 205.42C226.147 209.797 216.118 209.984 216.118 209.984Z" fill="white"/>
</g>
<path d="M218.562 219.489C218.562 219.489 218.562 209.213 223.583 212.47C228.603 215.727 218.562 219.489 218.562 219.489Z" fill="#FF3F20"/>
<path d="M222.65 228.712C219.122 223.553 216.401 217.274 215.582 211.206C213.933 199.021 222.421 192.73 232.89 190.659C233.721 190.497 233.919 191.863 233.1 192.044C227.544 193.14 221.662 195.289 218.652 200.346C216.479 203.988 216.323 208.521 217.196 212.867C218.357 218.259 220.562 223.372 223.685 227.917C223.736 227.986 223.772 228.064 223.793 228.147C223.813 228.23 223.817 228.316 223.804 228.4C223.791 228.485 223.762 228.566 223.718 228.639C223.674 228.712 223.615 228.776 223.547 228.826C223.478 228.877 223.4 228.913 223.317 228.934C223.234 228.954 223.148 228.958 223.064 228.945C222.979 228.932 222.898 228.903 222.825 228.859C222.752 228.815 222.688 228.757 222.638 228.688L222.65 228.712Z" fill="#FF3F20"/>
<g opacity="0.3">
<path d="M222.65 228.712C219.122 223.553 216.401 217.274 215.582 211.206C213.933 199.021 222.421 192.73 232.89 190.659C233.721 190.497 233.919 191.863 233.1 192.044C227.544 193.14 221.662 195.289 218.652 200.346C216.479 203.988 216.323 208.521 217.196 212.867C218.357 218.259 220.562 223.372 223.685 227.917C223.736 227.986 223.772 228.064 223.793 228.147C223.813 228.23 223.817 228.316 223.804 228.4C223.791 228.485 223.762 228.566 223.718 228.639C223.674 228.712 223.615 228.776 223.547 228.826C223.478 228.877 223.4 228.913 223.317 228.934C223.234 228.954 223.148 228.958 223.064 228.945C222.979 228.932 222.898 228.903 222.825 228.859C222.752 228.815 222.688 228.757 222.638 228.688L222.65 228.712Z" fill="black"/>
</g>
<path d="M215.859 216.895C215.859 216.895 217.858 210.23 220.001 211.856C222.144 213.481 215.859 216.895 215.859 216.895Z" fill="#FF3F20"/>
<path d="M215.161 209.935C215.161 209.935 213.614 203.62 216.744 203.765C219.874 203.909 215.161 209.935 215.161 209.935Z" fill="#FF3F20"/>
<path d="M203.669 202.272C203.669 202.272 197.125 199.864 199.407 197.835C201.688 195.806 203.669 202.272 203.669 202.272Z" fill="#FF3F20"/>
<path d="M213.644 207.281C213.644 207.281 207.154 203.542 207.257 207.883C207.359 212.223 213.644 207.281 213.644 207.281Z" fill="#FF3F20"/>
<path d="M214.312 222.993C214.312 222.993 218.875 217.81 219.7 220.41C220.525 223.011 214.312 222.993 214.312 222.993Z" fill="#FF3F20"/>
<path d="M211.501 205.24C211.501 205.24 204.987 201.17 208.009 199.22C211.031 197.269 211.501 205.24 211.501 205.24Z" fill="#FF3F20"/>
<path d="M206.36 202.874C206.36 202.874 199.894 203.885 201.923 206.486C203.952 209.087 206.36 202.874 206.36 202.874Z" fill="#FF3F20"/>
<path d="M215.979 213.999C215.979 213.999 213.571 208.111 211.29 211.139C209.008 214.167 215.979 213.999 215.979 213.999Z" fill="#FF3F20"/>
<g opacity="0.4">
<path d="M214.312 222.993C214.312 222.993 218.875 217.81 219.7 220.41C220.525 223.011 214.312 222.993 214.312 222.993Z" fill="white"/>
<path d="M211.501 205.24C211.501 205.24 204.987 201.17 208.009 199.22C211.031 197.269 211.501 205.24 211.501 205.24Z" fill="white"/>
<path d="M206.36 202.874C206.36 202.874 199.894 203.885 201.923 206.486C203.952 209.087 206.36 202.874 206.36 202.874Z" fill="white"/>
<path d="M215.979 213.999C215.979 213.999 213.571 208.111 211.29 211.139C209.008 214.167 215.979 213.999 215.979 213.999Z" fill="white"/>
</g>
<path d="M215.149 220.398C215.149 220.398 214.228 213.553 211.043 215.871C207.859 218.189 215.149 220.398 215.149 220.398Z" fill="#FF3F20"/>
<path d="M213.156 226.659C215.211 223.034 216.344 218.959 216.455 214.794C216.497 206.63 210.062 202.693 202.645 201.622C202.043 201.538 202.043 202.465 202.645 202.549C206.582 203.115 210.826 204.355 213.367 207.654C215.173 210.014 215.715 213.03 215.504 215.949C215.205 219.545 214.139 223.034 212.38 226.183C212.091 226.701 212.879 227.189 213.174 226.665L213.156 226.659Z" fill="#FF3F20"/>
<g opacity="0.3">
<path d="M213.156 226.659C215.211 223.034 216.344 218.959 216.455 214.794C216.497 206.63 210.062 202.693 202.645 201.622C202.043 201.538 202.043 202.465 202.645 202.549C206.582 203.115 210.826 204.355 213.367 207.654C215.173 210.014 215.715 213.03 215.504 215.949C215.205 219.545 214.139 223.034 212.38 226.183C212.091 226.701 212.879 227.189 213.174 226.665L213.156 226.659Z" fill="black"/>
</g>
<path d="M231.89 224.967L229.561 242.54C229.415 243.632 228.877 244.635 228.048 245.361C227.219 246.088 226.154 246.488 225.052 246.489H210.561C209.459 246.488 208.394 246.088 207.565 245.361C206.736 244.635 206.198 243.632 206.053 242.54L203.723 224.967H231.89Z" fill="#FF3F20"/>
<path opacity="0.3" d="M231.89 224.967L229.561 242.54C229.415 243.632 228.877 244.635 228.048 245.361C227.219 246.088 226.154 246.488 225.052 246.489H210.561C209.459 246.488 208.394 246.088 207.565 245.361C206.736 244.635 206.198 243.632 206.053 242.54L203.723 224.967H231.89Z" fill="white"/>
<path d="M101.058 191.213H97.1025V217.208H101.058V191.213Z" fill="#263238"/>
<path opacity="0.5" d="M101.058 191.213H97.1025V217.208H101.058V191.213Z" fill="white"/>
<path d="M111.099 236.676L101.834 235.003V216.401C101.835 216.264 101.809 216.128 101.757 216.001C101.705 215.875 101.628 215.76 101.531 215.663C101.434 215.566 101.319 215.489 101.192 215.437C101.066 215.385 100.93 215.359 100.793 215.359H97.3675C97.2302 215.359 97.0941 215.385 96.9671 215.437C96.84 215.489 96.7245 215.566 96.6272 215.662C96.5298 215.759 96.4526 215.874 96.3998 216.001C96.3471 216.128 96.32 216.264 96.32 216.401V235.003L87.0612 236.676C86.4112 236.792 85.8228 237.133 85.399 237.64C84.9752 238.146 84.7432 238.785 84.7435 239.446L99.0771 238.151L113.417 239.446C113.416 238.786 113.183 238.147 112.76 237.641C112.336 237.135 111.749 236.793 111.099 236.676Z" fill="#263238"/>
<path d="M87.7535 242.257C87.7535 242.852 87.577 243.434 87.2462 243.929C86.9155 244.424 86.4454 244.81 85.8954 245.038C85.3454 245.266 84.7402 245.325 84.1563 245.209C83.5724 245.093 83.0361 244.806 82.6151 244.385C82.1942 243.964 81.9075 243.428 81.7914 242.844C81.6752 242.26 81.7348 241.655 81.9626 241.105C82.1905 240.555 82.5763 240.085 83.0713 239.754C83.5662 239.423 84.1482 239.247 84.7435 239.247C85.5418 239.247 86.3074 239.564 86.8719 240.128C87.4364 240.693 87.7535 241.459 87.7535 242.257Z" fill="#FF3F20"/>
<path d="M116.427 242.257C116.427 242.852 116.25 243.434 115.92 243.929C115.589 244.424 115.119 244.81 114.569 245.038C114.019 245.266 113.414 245.325 112.83 245.209C112.246 245.093 111.709 244.806 111.288 244.385C110.868 243.964 110.581 243.428 110.465 242.844C110.349 242.26 110.408 241.655 110.636 241.105C110.864 240.555 111.25 240.085 111.745 239.754C112.24 239.423 112.822 239.247 113.417 239.247C113.812 239.247 114.204 239.325 114.569 239.476C114.934 239.627 115.266 239.849 115.545 240.128C115.825 240.408 116.046 240.74 116.198 241.105C116.349 241.47 116.427 241.862 116.427 242.257Z" fill="#FF3F20"/>
<path d="M101.431 242.257C101.431 243.918 100.745 245.267 99.0772 245.267C97.4096 245.267 96.7294 243.918 96.7294 242.257C96.7294 240.595 97.4157 239.247 99.0772 239.247C100.739 239.247 101.431 240.595 101.431 242.257Z" fill="#FF3F20"/>
<g opacity="0.5">
<path d="M101.925 235.015V238.41L103.044 238.512V235.219L101.925 235.015Z" fill="black"/>
<path d="M95.14 235.213V238.506L96.2597 238.41V235.015L95.14 235.213Z" fill="black"/>
</g>
<path d="M73.2574 167.537C73.0078 167.537 72.7614 167.592 72.5355 167.698C72.3096 167.804 72.1098 167.959 71.9501 168.15C71.7905 168.342 71.6749 168.567 71.6116 168.808C71.5483 169.05 71.5388 169.302 71.5838 169.547L75.256 189.335C75.422 190.234 75.8976 191.047 76.6003 191.632C77.303 192.217 78.1884 192.537 79.1028 192.538H136.973C137.314 192.538 137.652 192.47 137.967 192.34C138.283 192.209 138.569 192.017 138.81 191.776C139.051 191.534 139.242 191.247 139.372 190.932C139.502 190.616 139.568 190.278 139.568 189.937C139.568 188.958 139.179 188.02 138.487 187.328C137.795 186.636 136.856 186.247 135.877 186.247H102.858C101.983 186.247 101.132 185.954 100.443 185.415C99.7534 184.876 99.2641 184.122 99.0531 183.273L96.0972 171.341C95.8284 170.256 95.2041 169.291 94.3237 168.602C93.4432 167.912 92.3574 167.537 91.2391 167.537H73.2574Z" fill="#263238"/>
<path d="M81.0713 183.273L78.1155 171.341C77.8467 170.256 77.2223 169.291 76.3419 168.602C75.4615 167.912 74.3756 167.537 73.2574 167.537C73.0078 167.537 72.7614 167.592 72.5355 167.698C72.3096 167.804 72.1098 167.959 71.9501 168.15C71.7905 168.342 71.6749 168.567 71.6116 168.808C71.5483 169.05 71.5388 169.302 71.5838 169.547L75.256 189.335C75.422 190.234 75.8976 191.047 76.6003 191.632C77.303 192.217 78.1884 192.537 79.1028 192.538H118.985C119.327 192.538 119.666 192.472 119.981 192.341C120.297 192.211 120.584 192.019 120.826 191.778C121.068 191.536 121.259 191.249 121.39 190.933C121.52 190.617 121.587 190.279 121.586 189.937C121.584 188.959 121.195 188.021 120.503 187.329C119.812 186.638 118.874 186.248 117.896 186.247H84.882C84.0055 186.249 83.1535 185.958 82.4626 185.419C81.7716 184.879 81.2817 184.124 81.0713 183.273Z" fill="#263238"/>
<path opacity="0.2" d="M81.0713 183.273L78.1155 171.341C77.8467 170.256 77.2223 169.291 76.3419 168.602C75.4615 167.912 74.3756 167.537 73.2574 167.537C73.0078 167.537 72.7614 167.592 72.5355 167.698C72.3096 167.804 72.1098 167.959 71.9501 168.15C71.7905 168.342 71.6749 168.567 71.6116 168.808C71.5483 169.05 71.5388 169.302 71.5838 169.547L75.256 189.335C75.422 190.234 75.8976 191.047 76.6003 191.632C77.303 192.217 78.1884 192.537 79.1028 192.538H118.985C119.327 192.538 119.666 192.472 119.981 192.341C120.297 192.211 120.584 192.019 120.826 191.778C121.068 191.536 121.259 191.249 121.39 190.933C121.52 190.617 121.587 190.279 121.586 189.937C121.584 188.959 121.195 188.021 120.503 187.329C119.812 186.638 118.874 186.248 117.896 186.247H84.882C84.0055 186.249 83.1535 185.958 82.4626 185.419C81.7716 184.879 81.2817 184.124 81.0713 183.273Z" fill="white"/>
<path d="M105.519 110.918C105.519 110.918 112.104 112.881 109.028 117.751L106.169 113.585L105.519 110.918Z" fill="#263238"/>
<path d="M129.243 136.022L132.115 131.808L134.956 132.711L135.474 133.855L131.934 138.918L129.243 136.022Z" fill="#DBB178"/>
<path d="M133.5 137.124C130.622 141.639 126.083 148.224 124.349 147.833C119.256 146.695 112.255 141.873 108.661 136.576C108.118 135.777 107.896 134.803 108.038 133.847C108.179 132.892 108.675 132.024 109.426 131.417V131.38C109.817 131.061 110.269 130.821 110.753 130.676C111.238 130.53 111.746 130.482 112.249 130.534C112.753 130.585 113.241 130.735 113.686 130.976C114.131 131.216 114.524 131.542 114.844 131.934C114.91 132.013 114.97 132.097 115.03 132.181C118.215 136.75 122.254 141.085 122.916 141.452C123.693 141.897 125.71 139.989 129.978 134.595L133.5 137.124Z" fill="#FF3F20"/>
<path opacity="0.6" d="M133.5 137.124C130.622 141.639 126.083 148.224 124.349 147.833C119.256 146.695 112.255 141.873 108.661 136.576C108.118 135.777 107.896 134.803 108.038 133.847C108.179 132.892 108.675 132.024 109.426 131.417V131.38C109.817 131.061 110.269 130.821 110.753 130.676C111.238 130.53 111.746 130.482 112.249 130.534C112.753 130.585 113.241 130.735 113.686 130.976C114.131 131.216 114.524 131.542 114.844 131.934C114.91 132.013 114.97 132.097 115.03 132.181C118.215 136.75 122.254 141.085 122.916 141.452C123.693 141.897 125.71 139.989 129.978 134.595L133.5 137.124Z" fill="white"/>
<path d="M133.566 133.481L139.255 134.595L136.606 129.827C136.606 129.827 133.162 129.827 132.115 131.808L133.566 133.481Z" fill="#DBB178"/>
<path opacity="0.2" d="M117.089 144.54C112.965 141.723 112.417 135.113 112.417 135.113L110.082 134.047L108.962 137.021C111.199 139.993 113.952 142.54 117.089 144.54Z" fill="black"/>
<path d="M143.276 132.554L140.844 128.677L136.612 129.827L139.255 134.595L143.276 132.554Z" fill="#DBB178"/>
<path d="M111.683 159.012L91.5041 160.337C91.5041 160.337 91.3596 154.919 90.6552 149.928C90.4367 148.191 90.0906 146.473 89.6198 144.787C89.0961 143.065 88.4158 141.133 87.6332 138.887C87.5309 138.611 87.4285 138.334 87.3141 138.045C87.0493 137.346 86.7784 136.618 86.4713 135.859V135.823C86.1987 135.082 86.2282 134.263 86.5537 133.544C86.8792 132.824 87.4744 132.261 88.2111 131.977C88.3498 131.923 88.4928 131.88 88.6385 131.85C89.9208 131.579 91.2151 131.332 92.5275 131.128L93.6592 130.959C96.6808 130.509 99.7261 130.236 102.78 130.14C104.363 130.14 106.054 130.189 107.499 130.255L108.703 130.315C110.232 130.405 111.292 130.502 111.292 130.502C111.292 130.502 111.954 130.634 112.345 134.18C112.354 134.381 112.374 134.582 112.405 134.782C112.454 135.516 112.496 136.443 112.514 137.557C112.574 142.108 112.303 149.748 111.683 159.012Z" fill="#FF3F20"/>
<path opacity="0.6" d="M111.683 159.012L91.5041 160.337C91.5041 160.337 91.3596 154.919 90.6552 149.928C90.4367 148.191 90.0906 146.473 89.6198 144.787C89.0961 143.065 88.4158 141.133 87.6332 138.887C87.5309 138.611 87.4285 138.334 87.3141 138.045C87.0493 137.346 86.7784 136.618 86.4713 135.859V135.823C86.1987 135.082 86.2282 134.263 86.5537 133.544C86.8792 132.824 87.4744 132.261 88.2111 131.977C88.3498 131.923 88.4928 131.88 88.6385 131.85C89.9208 131.579 91.2151 131.332 92.5275 131.128L93.6592 130.959C96.6808 130.509 99.7261 130.236 102.78 130.14C104.363 130.14 106.054 130.189 107.499 130.255L108.703 130.315C110.232 130.405 111.292 130.502 111.292 130.502C111.292 130.502 111.954 130.634 112.345 134.18C112.354 134.381 112.374 134.582 112.405 134.782C112.454 135.516 112.496 136.443 112.514 137.557C112.574 142.108 112.303 149.748 111.683 159.012Z" fill="white"/>
<path d="M94.3634 130.863L99.3961 137.569L103.008 134.475L107.704 136.738L105.163 130.17C104.381 130.17 103.574 130.17 102.797 130.17C99.9755 130.247 97.16 130.478 94.3634 130.863Z" fill="#FF3F20"/>
<path opacity="0.9" d="M94.3634 130.863L99.3961 137.569L103.008 134.475L107.704 136.738L105.163 130.17C104.381 130.17 103.574 130.17 102.797 130.17C99.9755 130.247 97.16 130.478 94.3634 130.863Z" fill="white"/>
<path d="M138.905 239.939H134.613L136.57 207.539H144.6L138.905 239.939Z" fill="#DBB178"/>
<path d="M134.138 239.53C134.09 239.12 139.213 238.735 139.213 238.735C139.213 238.735 142.776 241.48 145.907 241.745C149.037 242.01 147.598 244.087 144.209 244.556L135.823 245.76C133.415 246.116 134.631 243.81 134.138 239.53Z" fill="#263238"/>
<path d="M141.783 239.704C141.13 239.666 140.484 239.543 139.863 239.337C139.838 239.331 139.815 239.319 139.796 239.301C139.784 239.26 139.784 239.216 139.796 239.175C139.796 239.12 140.079 237.85 140.736 237.477C140.834 237.417 140.944 237.379 141.058 237.366C141.172 237.352 141.288 237.363 141.398 237.399C141.717 237.495 141.801 237.676 141.807 237.802C141.807 238.061 141.56 238.35 141.205 238.615C141.548 238.518 141.91 238.518 142.253 238.615C142.327 238.643 142.395 238.686 142.453 238.74C142.511 238.795 142.557 238.861 142.59 238.934C142.64 239.029 142.662 239.136 142.652 239.243C142.642 239.35 142.602 239.452 142.535 239.536C142.316 239.689 142.046 239.749 141.783 239.704ZM140.404 239.163C141.175 239.361 142.078 239.494 142.277 239.277C142.325 239.235 142.313 239.145 142.277 239.036C142.262 239.001 142.24 238.969 142.212 238.943C142.184 238.917 142.15 238.898 142.114 238.886C141.53 238.816 140.937 238.912 140.404 239.163ZM141.103 237.658C141.013 237.657 140.926 237.682 140.85 237.73C140.507 238.028 140.265 238.426 140.158 238.868C140.82 238.488 141.482 238.013 141.482 237.808C141.482 237.772 141.41 237.724 141.295 237.682C141.233 237.664 141.168 237.656 141.103 237.658Z" fill="#FF3F20"/>
<path opacity="0.2" d="M136.227 213.204L143.565 213.427L144.6 207.539H136.57L136.227 213.204Z" fill="black"/>
<path d="M118.305 240.487L114.193 239.939L120.701 204.066L128.816 206.384L118.305 240.487Z" fill="#DBB178"/>
<path d="M113.658 239.367C113.658 238.946 118.787 239.367 118.787 239.367C118.787 239.367 121.899 242.612 124.951 243.34C128.003 244.069 126.276 245.917 122.856 245.869L114.38 245.767C111.93 245.742 113.495 243.69 113.658 239.367Z" fill="#263238"/>
<path d="M121.484 240.704C120.734 240.611 120.006 240.387 119.334 240.041L119.292 240.005C119.29 239.999 119.288 239.992 119.288 239.984C119.288 239.977 119.29 239.97 119.292 239.963C119.283 239.944 119.279 239.924 119.279 239.903C119.279 239.882 119.283 239.862 119.292 239.843C119.292 239.795 119.762 238.591 120.496 238.308C120.6 238.26 120.713 238.235 120.827 238.235C120.942 238.235 121.055 238.26 121.159 238.308C121.46 238.458 121.514 238.639 121.502 238.765C121.502 239.024 121.177 239.271 120.797 239.476C121.151 239.432 121.509 239.489 121.833 239.638C121.902 239.675 121.963 239.726 122.011 239.789C122.058 239.851 122.092 239.923 122.11 239.999C122.148 240.097 122.156 240.205 122.131 240.307C122.106 240.41 122.05 240.502 121.971 240.571C121.83 240.673 121.657 240.72 121.484 240.704ZM119.876 239.933C120.611 240.246 121.484 240.535 121.682 240.33C121.73 240.294 121.742 240.21 121.682 240.09C121.673 240.054 121.657 240.02 121.634 239.991C121.611 239.962 121.582 239.938 121.55 239.921C121.001 239.779 120.423 239.783 119.876 239.933ZM120.719 238.549C120.653 238.551 120.588 238.565 120.526 238.591C120.147 238.831 119.851 239.182 119.678 239.596C120.412 239.325 121.104 238.934 121.116 238.741C121.116 238.705 121.056 238.645 120.954 238.597C120.89 238.565 120.82 238.544 120.749 238.536L120.719 238.549Z" fill="#FF3F20"/>
<path opacity="0.2" d="M128.816 206.384L120.701 204.066L119.419 211.139L126.932 212.494L128.816 206.384Z" fill="black"/>
<path d="M134.445 210.321L144.769 210.863C147.412 198.69 150.048 185.272 149.525 182.328C148.531 176.687 140.868 170.944 111.117 166.074L97.2711 186.879C97.2711 186.879 117.522 185.934 135.98 185.934C135.974 185.946 134.944 197.528 134.445 210.321Z" fill="#FF3F20"/>
<path opacity="0.1" d="M134.445 210.321L144.769 210.863C147.412 198.69 150.048 185.272 149.525 182.328C148.531 176.687 140.868 170.944 111.117 166.074L97.2711 186.879C97.2711 186.879 117.522 185.934 135.98 185.934C135.974 185.946 134.944 197.528 134.445 210.321Z" fill="black"/>
<path d="M133.752 208.701L134.059 211.404L145.371 211.79L145.925 209.303L133.752 208.701Z" fill="#FF3F20"/>
<path d="M104.525 130.158H102.779C100.275 130.237 97.7768 130.441 95.2905 130.76C96.3741 132.055 99.7514 134.071 102.015 134.071C105.175 134.047 104.471 131.7 104.525 130.158Z" fill="#DBB178"/>
<path d="M118.395 208.226L128.948 209.941C133.235 197.944 137.521 185.175 137.449 182.298C137.304 176.567 136.046 173.593 115.319 168.969C115.319 168.969 114.217 167.362 111.707 159.036L91.5039 160.361C91.5039 160.361 82.2873 177.337 89.421 184.585C90.9982 186.199 94.0985 186.921 97.247 186.891C97.247 186.891 104.531 186.927 122.531 186.084C122.537 186.084 120.4 196.354 118.395 208.226Z" fill="#FF3F20"/>
<path d="M117.974 206.384L130.2 208.449L129.039 211.019L117.92 209.195L117.974 206.384Z" fill="#FF3F20"/>
<path opacity="0.1" d="M133.752 208.701L134.059 211.404L145.371 211.79L145.925 209.303L133.752 208.701Z" fill="black"/>
<path d="M102.996 128.419C102.764 129.905 102.825 131.423 103.177 132.886L97.6443 132.073C97.5251 132.055 97.4116 132.01 97.3126 131.942C97.2136 131.873 97.1318 131.782 97.0735 131.677C97.0153 131.572 96.9822 131.454 96.9767 131.334C96.9713 131.213 96.9938 131.093 97.0423 130.983C97.8008 129.261 98.1018 125.794 98.2885 124.199C98.3908 123.235 98.4329 122.357 98.439 121.742C98.445 121.128 98.439 120.9 98.439 120.9L100.913 122.031L104.953 123.88C104.021 125.256 103.358 126.796 102.996 128.419Z" fill="#DBB178"/>
<path opacity="0.2" d="M104.965 123.88C104.024 125.255 103.351 126.795 102.978 128.419C100.959 127.618 99.2924 126.124 98.2765 124.205C98.3848 123.241 98.427 122.363 98.433 121.749C99.3119 121.839 100.131 121.929 100.913 122.037L104.965 123.88Z" fill="black"/>
<path d="M105.26 119.93C105.097 121.779 106.042 123.272 107.367 123.272C108.691 123.272 109.901 121.779 110.064 119.93C110.226 118.082 109.281 116.583 107.957 116.583C106.632 116.583 105.422 118.082 105.26 119.93Z" fill="#FF3F20"/>
<path opacity="0.5" d="M105.025 119.93C104.862 121.779 105.808 123.272 107.132 123.272C108.456 123.272 109.66 121.779 109.823 119.93C109.985 118.082 109.04 116.583 107.716 116.583C106.391 116.583 105.181 118.082 105.025 119.93Z" fill="black"/>
<path d="M95.7601 116.68C96.7474 121.207 97.0905 123.904 99.7634 125.969C100.625 126.653 101.658 127.088 102.75 127.226C103.841 127.365 104.95 127.202 105.955 126.754C106.961 126.307 107.824 125.592 108.452 124.689C109.079 123.785 109.448 122.726 109.516 121.628C109.871 117.414 108.197 110.714 103.43 109.432C102.405 109.126 101.318 109.095 100.277 109.342C99.2366 109.59 98.2796 110.107 97.5023 110.841C96.725 111.576 96.1548 112.502 95.849 113.527C95.5432 114.552 95.5125 115.639 95.7601 116.68Z" fill="#DBB178"/>
<path d="M94.7127 121.405C95.4458 122.29 96.4625 122.894 97.5902 123.115C99.017 123.356 99.3421 122.037 98.6136 120.755C97.9635 119.605 96.4284 118.094 95.1521 118.431C93.8759 118.769 93.7916 120.292 94.7127 121.405Z" fill="#DBB178"/>
<path d="M102.906 117.125C102.966 117.498 103.207 117.775 103.454 117.727C103.701 117.679 103.845 117.372 103.791 117.005C103.737 116.638 103.49 116.355 103.243 116.403C102.996 116.451 102.852 116.752 102.906 117.125Z" fill="#263238"/>
<path d="M107.156 116.625C107.21 116.999 107.457 117.276 107.698 117.227C107.939 117.179 108.095 116.872 108.041 116.499C107.987 116.126 107.734 115.855 107.493 115.897C107.252 115.939 107.066 116.252 107.156 116.625Z" fill="#263238"/>
<path d="M105.814 116.969C106.437 118.053 107.2 119.051 108.083 119.936C107.853 120.148 107.579 120.307 107.28 120.401C106.981 120.494 106.666 120.521 106.355 120.478L105.814 116.969Z" fill="#C0854B"/>
<path d="M101.395 115.927C101.359 115.935 101.322 115.935 101.287 115.927C101.261 115.913 101.238 115.895 101.22 115.872C101.202 115.849 101.188 115.823 101.18 115.795C101.172 115.767 101.17 115.737 101.174 115.708C101.178 115.679 101.187 115.651 101.202 115.626C101.364 115.319 101.599 115.057 101.887 114.862C102.175 114.668 102.506 114.548 102.852 114.512C102.88 114.51 102.909 114.513 102.937 114.523C102.964 114.532 102.989 114.546 103.01 114.565C103.032 114.585 103.049 114.608 103.061 114.634C103.073 114.66 103.08 114.688 103.08 114.717C103.083 114.746 103.08 114.775 103.071 114.803C103.061 114.83 103.047 114.856 103.028 114.878C103.009 114.9 102.985 114.918 102.959 114.93C102.933 114.943 102.905 114.95 102.876 114.952C102.604 114.983 102.344 115.08 102.12 115.235C101.895 115.391 101.712 115.6 101.588 115.843C101.565 115.872 101.535 115.894 101.502 115.909C101.468 115.924 101.431 115.93 101.395 115.927Z" fill="#263238"/>
<path d="M108.715 114.982C108.679 114.983 108.644 114.975 108.612 114.958C108.58 114.941 108.554 114.916 108.535 114.886C108.382 114.648 108.176 114.448 107.934 114.302C107.692 114.156 107.42 114.067 107.138 114.043C107.086 114.034 107.039 114.007 107.004 113.967C106.97 113.927 106.952 113.876 106.952 113.823C106.952 113.77 106.97 113.719 107.004 113.679C107.039 113.639 107.086 113.612 107.138 113.603C107.491 113.627 107.834 113.733 108.14 113.912C108.445 114.092 108.704 114.341 108.896 114.639C108.929 114.687 108.941 114.746 108.931 114.803C108.921 114.861 108.889 114.912 108.842 114.946C108.803 114.969 108.76 114.981 108.715 114.982Z" fill="#263238"/>
<path d="M96.645 122.633C96.645 122.633 99.5226 119.69 98.1139 112.466C98.1139 112.466 100.432 114.434 105.813 112.977C105.813 112.977 102.629 113.29 101.172 111.773C101.172 111.773 104.14 113.152 108.938 111.773C108.938 111.773 108.083 106.915 102.918 106.668C102.918 106.668 104.585 105.266 106.193 105.537C106.193 105.537 104.549 104.122 100.377 106.873L98.7279 107.547C98.7279 107.547 94.0805 105.874 91.5039 109.811C89.4511 112.923 90.4805 122.724 96.645 122.633Z" fill="#263238"/>
<path d="M107.198 121.303C107.198 121.303 105.741 120.936 101.636 120.846C102.093 122.092 102.966 123.121 105.073 123.145C105.336 123.174 105.601 123.149 105.854 123.07C106.106 122.992 106.339 122.862 106.539 122.689C106.738 122.516 106.9 122.304 107.013 122.065C107.127 121.827 107.19 121.567 107.198 121.303Z" fill="#263238"/>
<path d="M104.146 122.152C104.955 122.122 105.753 122.348 106.428 122.796C106.034 123.048 105.57 123.168 105.103 123.139C104.297 123.173 103.502 122.947 102.834 122.495C103.224 122.245 103.683 122.125 104.146 122.152Z" fill="#A02724"/>
<path d="M107.011 121.267C106.969 121.418 106.885 121.555 106.769 121.661C106.653 121.767 106.51 121.839 106.355 121.869C105.143 121.841 103.935 121.712 102.743 121.484C102.553 121.467 102.37 121.403 102.21 121.298C102.05 121.193 101.919 121.05 101.828 120.882C103.563 120.876 105.296 121.005 107.011 121.267Z" fill="white"/>
<path d="M94.4116 118.239V113.381C94.4113 111.943 94.8751 110.543 95.7342 109.39C96.5933 108.237 97.8016 107.392 99.1795 106.981L100.805 106.692C99.392 107.114 98.1531 107.98 97.2723 109.163C96.3915 110.345 95.9161 111.78 95.9166 113.254V118.239H94.4116Z" fill="#FF3F20"/>
<path d="M98.1861 120.593C98.3486 122.441 97.4035 123.934 96.0791 123.934C94.7547 123.934 93.5447 122.441 93.3881 120.593C93.2316 118.745 94.1707 117.246 95.4951 117.246C96.8195 117.246 98.0235 118.745 98.1861 120.593Z" fill="#FF3F20"/>
<path opacity="0.5" d="M98.1861 120.593C98.3486 122.441 97.4035 123.934 96.0791 123.934C94.7547 123.934 93.5447 122.441 93.3881 120.593C93.2316 118.745 94.1707 117.246 95.4951 117.246C96.8195 117.246 98.0235 118.745 98.1861 120.593Z" fill="black"/>
<path d="M97.3855 120.593C97.542 122.441 96.6029 123.934 95.2725 123.934C93.9421 123.934 92.7441 122.441 92.5815 120.593C92.419 118.745 93.3641 117.246 94.6885 117.246C96.0129 117.246 97.223 118.745 97.3855 120.593Z" fill="#FF3F20"/>
<path opacity="0.3" d="M95.7179 121.08L95.6096 120.105H95.7962C95.5554 119.148 94.8811 118.431 94.1407 118.431C93.4002 118.431 92.8584 119.148 92.7802 120.105H92.9066L93.0149 121.08H92.8705C93.1113 122.037 93.7855 122.748 94.5199 122.748C95.2544 122.748 95.8082 122.037 95.8805 121.08H95.7179Z" fill="white"/>
<path d="M87.0671 121.002L89.6979 115.825L91.8229 120.846C91.8229 120.846 89.6919 123.555 87.4946 123.163L87.0671 121.002Z" fill="#DBB178"/>
<path d="M93.7856 113.917L95.3327 118.221L91.817 120.846L89.698 115.825L93.7856 113.917Z" fill="#DBB178"/>
<path d="M87.7595 126.577L90.2879 122.32L90.023 120.587L87.7956 119.798L84.623 124.734L87.7595 126.577Z" fill="#DBB178"/>
<path d="M89.5836 123.928L84.9663 134.09C84.9663 134.09 87.2117 132.073 88.4518 131.784C90.4264 131.32 96.3862 133.12 90.3481 139.676C90.3481 139.676 78.3924 147.147 75.9543 144.251C74.058 142 82.1128 128.316 85.803 122.32L89.5836 123.928Z" fill="#FF3F20"/>
<path opacity="0.6" d="M89.5836 123.928L84.9663 134.09C84.9663 134.09 87.2117 132.073 88.4518 131.784C90.4264 131.32 96.3862 133.12 90.3481 139.676C90.3481 139.676 78.3924 147.147 75.9543 144.251C74.058 142 82.1128 128.316 85.803 122.32L89.5836 123.928Z" fill="white"/>
<path opacity="0.2" d="M84.9663 134.09L83.678 138.057L87.4585 132.241C86.5768 132.786 85.743 133.404 84.9663 134.09Z" fill="black"/>
<path d="M102.262 125.078C101.756 125.09 101.251 125.058 100.751 124.981C99.4625 124.518 98.2159 123.946 97.0244 123.272L97.2652 122.838C98.4222 123.487 99.6302 124.041 100.877 124.494C102.159 124.6 103.448 124.6 104.73 124.494L104.766 124.993C104.67 124.993 103.406 125.078 102.262 125.078Z" fill="#FF3F20"/>
<path d="M102.803 125.18L105.211 124.999C105.211 124.999 105.145 124.253 104.007 124.283C102.87 124.313 102.803 125.18 102.803 125.18Z" fill="#FF3F20"/>
<g opacity="0.5">
<path d="M102.262 125.078C101.756 125.09 101.251 125.058 100.751 124.981C99.4625 124.518 98.2159 123.946 97.0244 123.272L97.2652 122.838C98.4222 123.487 99.6302 124.041 100.877 124.494C102.159 124.6 103.448 124.6 104.73 124.494L104.766 124.993C104.67 124.993 103.406 125.078 102.262 125.078Z" fill="black"/>
<path d="M102.804 125.18L105.212 124.999C105.212 124.999 105.145 124.253 104.008 124.283C102.87 124.313 102.804 125.18 102.804 125.18Z" fill="black"/>
</g>
<path d="M198.696 245.941C198.57 245.946 198.443 245.926 198.325 245.882C198.206 245.838 198.097 245.771 198.004 245.685C197.911 245.599 197.837 245.495 197.784 245.38C197.731 245.265 197.702 245.141 197.697 245.014L191.677 175.314C191.666 174.713 191.431 174.138 191.018 173.701C190.605 173.264 190.043 172.998 189.443 172.955H161.005C160.405 172.998 159.844 173.264 159.43 173.701C159.017 174.138 158.782 174.713 158.772 175.314L152.752 245.014C152.751 245.143 152.724 245.271 152.673 245.389C152.622 245.508 152.548 245.615 152.455 245.704C152.361 245.794 152.251 245.863 152.131 245.909C152.01 245.955 151.881 245.976 151.752 245.971C151.492 245.919 151.262 245.768 151.11 245.551C150.957 245.333 150.894 245.066 150.933 244.803L156.953 175.098C157.164 172.66 158.904 170.824 161.005 170.824H189.443C191.544 170.824 193.284 172.66 193.495 175.098L199.515 244.803C199.554 245.066 199.491 245.333 199.339 245.551C199.186 245.768 198.956 245.919 198.696 245.971V245.941Z" fill="#FF3F20"/>
<g opacity="0.4">
<path d="M198.696 245.941C198.57 245.946 198.443 245.926 198.325 245.882C198.206 245.838 198.097 245.771 198.004 245.685C197.911 245.599 197.837 245.495 197.784 245.38C197.731 245.265 197.702 245.141 197.697 245.014L191.677 175.314C191.666 174.713 191.431 174.138 191.018 173.701C190.605 173.264 190.043 172.998 189.443 172.955H161.005C160.405 172.998 159.844 173.264 159.43 173.701C159.017 174.138 158.782 174.713 158.772 175.314L152.752 245.014C152.751 245.143 152.724 245.271 152.673 245.389C152.622 245.508 152.548 245.615 152.455 245.704C152.361 245.794 152.251 245.863 152.131 245.909C152.01 245.955 151.881 245.976 151.752 245.971C151.492 245.919 151.262 245.768 151.11 245.551C150.957 245.333 150.894 245.066 150.933 244.803L156.953 175.098C157.164 172.66 158.904 170.824 161.005 170.824H189.443C191.544 170.824 193.284 172.66 193.495 175.098L199.515 244.803C199.554 245.066 199.491 245.333 199.339 245.551C199.186 245.768 198.956 245.919 198.696 245.971V245.941Z" fill="black"/>
</g>
<path d="M198.299 167.808H120.996C120.321 167.808 119.774 168.355 119.774 169.03V172.991C119.774 173.666 120.321 174.213 120.996 174.213H198.299C198.974 174.213 199.521 173.666 199.521 172.991V169.03C199.521 168.355 198.974 167.808 198.299 167.808Z" fill="#263238"/>
<path opacity="0.2" d="M164.527 167.808H198.299C198.618 167.808 198.924 167.934 199.15 168.16C199.376 168.386 199.503 168.692 199.503 169.012V172.973C199.503 173.292 199.376 173.598 199.15 173.824C198.924 174.05 198.618 174.177 198.299 174.177H164.527V167.808Z" fill="white"/>
<path d="M167.549 245.941C167.419 245.947 167.29 245.926 167.168 245.881C167.047 245.835 166.936 245.766 166.842 245.676C166.748 245.587 166.674 245.48 166.622 245.361C166.571 245.242 166.544 245.114 166.543 244.984L160.523 175.284C160.513 174.683 160.278 174.108 159.865 173.671C159.451 173.234 158.89 172.968 158.29 172.925H129.851C129.253 172.969 128.692 173.236 128.28 173.673C127.868 174.109 127.634 174.684 127.624 175.284L121.604 245.014C121.603 245.143 121.577 245.271 121.526 245.389C121.475 245.508 121.4 245.615 121.307 245.704C121.214 245.794 121.104 245.863 120.983 245.909C120.862 245.955 120.734 245.976 120.605 245.971C120.341 245.916 120.109 245.76 119.958 245.536C119.807 245.312 119.75 245.039 119.798 244.773L125.818 175.068C126.029 172.63 127.774 170.793 129.869 170.793H158.308C160.409 170.793 162.149 172.63 162.359 175.068L168.379 244.773C168.419 245.035 168.356 245.302 168.205 245.519C168.054 245.736 167.826 245.887 167.567 245.941H167.549Z" fill="#FF3F20"/>
<g opacity="0.4">
<path d="M167.549 245.941C167.419 245.947 167.29 245.926 167.168 245.881C167.047 245.835 166.936 245.766 166.842 245.676C166.748 245.587 166.674 245.48 166.622 245.361C166.571 245.242 166.544 245.114 166.543 244.984L160.523 175.284C160.513 174.683 160.278 174.108 159.865 173.671C159.451 173.234 158.89 172.968 158.29 172.925H129.851C129.253 172.969 128.692 173.236 128.28 173.673C127.868 174.109 127.634 174.684 127.624 175.284L121.604 245.014C121.603 245.143 121.577 245.271 121.526 245.389C121.475 245.508 121.4 245.615 121.307 245.704C121.214 245.794 121.104 245.863 120.983 245.909C120.862 245.955 120.734 245.976 120.605 245.971C120.341 245.916 120.109 245.76 119.958 245.536C119.807 245.312 119.75 245.039 119.798 244.773L125.818 175.068C126.029 172.63 127.774 170.793 129.869 170.793H158.308C160.409 170.793 162.149 172.63 162.359 175.068L168.379 244.773C168.419 245.035 168.356 245.302 168.205 245.519C168.054 245.736 167.826 245.887 167.567 245.941H167.549Z" fill="black"/>
</g>
<path d="M145.281 164.653H167.591V166.754C167.591 167.033 167.48 167.301 167.282 167.499C167.085 167.696 166.817 167.807 166.537 167.807H146.334C146.055 167.807 145.787 167.696 145.589 167.499C145.392 167.301 145.281 167.033 145.281 166.754V164.665V164.653Z" fill="#263238"/>
<path opacity="0.2" d="M145.281 164.653H167.591V166.754C167.591 167.033 167.48 167.301 167.282 167.499C167.085 167.696 166.817 167.807 166.537 167.807H146.334C146.055 167.807 145.787 167.696 145.589 167.499C145.392 167.301 145.281 167.033 145.281 166.754V164.665V164.653Z" fill="white"/>
<path d="M129.502 164.653H151.812V166.754C151.812 167.033 151.701 167.301 151.504 167.499C151.306 167.696 151.038 167.807 150.759 167.807H130.556C130.276 167.807 130.008 167.696 129.811 167.499C129.613 167.301 129.502 167.033 129.502 166.754V164.665V164.653Z" fill="#263238"/>
<path opacity="0.6" d="M129.502 164.653H151.812V166.754C151.812 167.033 151.701 167.301 151.504 167.499C151.306 167.696 151.038 167.807 150.759 167.807H130.556C130.276 167.807 130.008 167.696 129.811 167.499C129.613 167.301 129.502 167.033 129.502 166.754V164.665V164.653Z" fill="white"/>
<path d="M149.23 165.851H147.159V166.597H149.23V165.851Z" fill="#263238"/>
<path d="M145.913 165.851H143.842V166.597H145.913V165.851Z" fill="#263238"/>
<path d="M169.162 167.807H170.228C170.519 167.801 170.799 167.693 171.019 167.502C171.239 167.31 171.385 167.048 171.432 166.76L175.044 144.552C175.072 144.376 175.062 144.196 175.015 144.023C174.968 143.851 174.885 143.691 174.771 143.554C174.657 143.416 174.515 143.305 174.354 143.227C174.194 143.149 174.018 143.106 173.84 143.101L156.52 143.071L151.837 167.753H152.902L169.162 167.807Z" fill="#263238"/>
<path opacity="0.6" d="M169.162 167.807H170.228C170.519 167.801 170.799 167.693 171.019 167.502C171.239 167.31 171.385 167.048 171.432 166.76L175.044 144.552C175.072 144.376 175.062 144.196 175.015 144.023C174.968 143.851 174.885 143.691 174.771 143.554C174.657 143.416 174.515 143.305 174.354 143.227C174.194 143.149 174.018 143.106 173.84 143.101L156.52 143.071L151.837 167.753H152.902L169.162 167.807Z" fill="white"/>
<path opacity="0.2" d="M152.107 166.2L151.806 167.777H152.872L169.126 167.808H170.191C170.483 167.801 170.763 167.693 170.983 167.502C171.203 167.31 171.349 167.048 171.395 166.76L171.48 166.236L152.107 166.2Z" fill="black"/>
<path d="M151.83 167.796H152.908C153.2 167.789 153.48 167.681 153.7 167.49C153.92 167.298 154.066 167.036 154.112 166.748L157.724 144.528C157.752 144.352 157.743 144.172 157.696 144C157.649 143.828 157.565 143.668 157.451 143.532C157.337 143.395 157.195 143.284 157.034 143.206C156.874 143.129 156.698 143.087 156.52 143.083L151.83 167.796Z" fill="#263238"/>
<path opacity="0.3" d="M151.83 167.796H152.908C153.2 167.789 153.48 167.681 153.7 167.49C153.92 167.298 154.066 167.036 154.112 166.748L157.724 144.528C157.752 144.352 157.743 144.172 157.696 144C157.649 143.828 157.565 143.668 157.451 143.532C157.337 143.395 157.195 143.284 157.034 143.206C156.874 143.129 156.698 143.087 156.52 143.083L151.83 167.796Z" fill="white"/>
</g>
<defs>
<clipPath id="clip0_14_178">
<rect width="301" height="301" fill="white"/>
</clipPath>
</defs>
</svg>
