<svg width="269" height="312" viewBox="0 0 269 312" fill="none" xmlns="http://www.w3.org/2000/svg">
<g opacity="0.5">
<g opacity="0.2">
<path d="M136.854 53.2704H26.523L-51.4929 131.286V241.618L26.523 319.634H136.854L214.87 241.618V131.286L136.854 53.2704Z" fill="#0092CC"/>
<path d="M136.854 46.474H26.523L-51.4929 124.49V234.821L26.523 312.837H136.854L214.87 234.821V124.49L136.854 46.474Z" fill="#E10E00"/>
<path d="M120.613 85.6902H42.7682L-12.2729 140.735V218.576L42.7682 273.621H120.613L175.654 218.576V140.735L120.613 85.6902Z" fill="url(#paint0_linear_3_83)"/>
<path d="M130.263 62.3919H33.1185L-35.5713 131.085V228.23L33.1185 296.919H130.263L198.952 228.23V131.085L130.263 62.3919ZM192.431 225.525L127.562 290.398H35.8192L-29.0501 225.525V133.786L35.8192 68.9168H127.562L192.431 133.786V225.525Z" fill="#0092CC"/>
<path d="M130.731 298.054H32.6461L-36.7095 228.698V130.613L32.6499 61.2535H130.735L200.094 130.613V228.698L130.731 298.054ZM33.5873 295.781H129.79L197.814 227.757V131.554L129.79 63.5302H33.5873L-34.4366 131.554V227.757L33.5873 295.781V295.781Z" fill="white"/>
<path d="M123.079 79.7308H40.3018L-18.2324 138.265V221.046L40.3018 279.58H123.083L181.617 221.046V138.265L123.079 79.7308ZM175.654 218.576L120.613 273.621H42.7682L-12.2729 218.576V140.735L42.7719 85.6903H120.617L175.661 140.735V218.576H175.654Z" fill="#0092CC"/>
<path d="M123.481 280.548H39.9001L39.6174 280.265L-19.2032 221.448V137.863L39.9001 78.7599H123.481L123.764 79.0426L182.584 137.863V221.444L123.481 280.548ZM40.7036 278.609H122.678L180.646 220.644V138.667L122.678 80.7017H40.7036L-17.2651 138.667V220.644L40.7036 278.609V278.609Z" fill="white"/>
<path d="M50.7439 30.571H66.1373V56.1274H50.7439V30.571Z" fill="url(#paint1_linear_3_83)"/>
<path d="M97.2439 30.571H112.637V56.1274H97.2439V30.571Z" fill="url(#paint2_linear_3_83)"/>
<path d="M50.7439 306.855H66.1373V332.412H50.7439V306.855Z" fill="url(#paint3_linear_3_83)"/>
<path d="M97.2439 306.855H112.637V332.412H97.2439V306.855Z" fill="url(#paint4_linear_3_83)"/>
</g>
<path d="M67.5137 238.08L67.5211 241.975L-37.9186 242.191L-37.9223 238.296L67.5137 238.08Z" fill="#6B5A84"/>
<path d="M-16.0457 227.475L89.394 227.207L89.4039 231.098L-16.0358 231.366L-16.0457 227.475Z" fill="#6B5A84"/>
<path d="M-56.3702 217.305H49.0695V221.196H-56.3702V217.305Z" fill="#6B5A84"/>
<path d="M103.813 205.843L103.817 209.737L-1.61885 209.953L-1.63 206.058L103.813 205.843ZM134.541 154.994C137.818 154.339 144.447 153.844 150.674 153.844C158.289 153.844 162.958 154.581 166.972 156.958C170.822 159.004 173.604 162.772 173.604 167.768C173.604 172.682 170.74 177.269 164.516 179.561V179.724C170.822 181.447 175.49 186.193 175.49 193.321C175.49 198.317 173.195 202.249 169.758 205.035C165.748 208.227 159.029 210.031 148.055 210.031C141.91 210.031 137.327 209.618 134.541 209.209V154.994V154.994ZM146.906 176.123H151.002C157.553 176.123 161.075 173.419 161.075 169.327C161.075 165.149 157.88 162.94 152.225 162.94C149.525 162.94 147.966 163.103 146.902 163.267V176.123H146.906ZM146.906 200.612C148.133 200.776 149.607 200.776 151.738 200.776C157.389 200.776 162.385 198.644 162.385 192.83C162.385 187.261 157.389 185.048 151.165 185.048H146.906V200.612Z" fill="#6B5A84"/>
<path d="M140.812 145.932H146.634V159.655H140.812V145.932ZM153.289 145.932H159.111V159.655H153.289V145.932Z" fill="#6B5A84"/>
<path d="M140.812 203.317H146.634V217.04H140.812V203.317Z" fill="#80D2D6"/>
<path d="M153.289 203.317H159.111V217.04H153.289V203.317ZM1.01494 121.826C3.65986 121.294 9.01294 120.9 14.0349 120.9C20.1804 120.9 23.9487 121.495 27.1851 123.411C30.2913 125.063 32.5419 128.106 32.5419 132.138C32.5419 136.104 30.2244 139.805 25.2024 141.654V141.788C30.2914 143.179 34.0597 147.011 34.0597 152.762C34.0597 156.794 32.2109 159.967 29.432 162.214C26.1956 164.792 20.7719 166.247 11.9146 166.247C6.95579 166.247 3.25811 165.912 1.00751 165.585V121.826H1.01494ZM10.9957 138.879H14.2991C19.5889 138.879 22.4273 136.699 22.4273 133.392C22.4273 130.021 19.8493 128.236 15.2886 128.236C13.1087 128.236 11.855 128.37 10.992 128.5V138.879H10.9957ZM10.9957 158.639C11.9889 158.773 13.1756 158.773 14.898 158.773C19.4587 158.773 23.4912 157.055 23.4912 152.36C23.4912 147.866 19.4587 146.081 14.4367 146.081H10.9994V158.639H10.9957Z" fill="#6B5A84"/>
<path d="M6.07782 114.513H10.7762V125.587H6.07782V114.513ZM16.1441 114.513H20.8425V125.587H16.1441V114.513ZM6.07782 160.823H10.7762V171.897H6.07782V160.823ZM16.1441 160.823H20.8425V171.897H16.1441V160.823Z" fill="#6B5A84"/>
<path opacity="0.75" d="M138.212 294.948C138.212 298.72 112.976 301.778 81.8394 301.778C50.7067 301.778 25.4665 298.72 25.4665 294.948C25.4665 291.176 50.703 288.118 81.8394 288.118C112.976 288.118 138.212 291.176 138.212 294.948Z" fill="#D0CFD9"/>
<path d="M154.413 225.157C154.413 264.831 122.253 296.99 82.5797 296.99C42.9059 296.99 10.7427 264.831 10.7427 225.157C10.7427 185.483 42.9059 153.32 82.5797 153.32C122.253 153.32 154.413 185.483 154.413 225.157Z" fill="#F3A43D"/>
<path d="M150.763 225.153C150.763 262.811 120.237 293.337 82.5834 293.337C44.9258 293.337 14.3958 262.811 14.3958 225.153C14.3958 187.495 44.9221 156.969 82.5834 156.969C120.237 156.969 150.763 187.495 150.763 225.153Z" fill="#FED150"/>
<path d="M136.308 225.157C136.308 254.831 112.254 278.885 82.5796 278.885C52.9052 278.885 28.848 254.831 28.848 225.157C28.848 195.482 52.9052 171.425 82.5796 171.425C112.25 171.421 136.308 195.482 136.308 225.157Z" fill="#F3A43D"/>
<path d="M134.046 227.418C134.046 255.843 111.004 278.885 82.5833 278.885C54.1551 278.885 31.1134 255.839 31.1134 227.418C31.1134 198.994 54.1551 175.952 82.5833 175.952C111 175.949 134.046 198.994 134.046 227.418Z" fill="#FFE984"/>
<path d="M63.124 197.759C66.5725 197.067 73.5623 196.55 80.117 196.55C88.1373 196.55 93.0589 197.324 97.2848 199.827C101.34 201.985 104.271 205.954 104.271 211.214C104.271 216.392 101.25 221.221 94.6957 223.639V223.814C101.34 225.625 106.254 230.629 106.254 238.136C106.254 243.396 103.839 247.536 100.216 250.471C95.9902 253.834 88.9148 255.735 77.353 255.735C70.8839 255.735 66.0554 255.3 63.1203 254.872V197.759H63.124ZM76.1477 220.016H80.4592C87.3598 220.016 91.0724 217.166 91.0724 212.855C91.0724 208.454 87.7058 206.125 81.7538 206.125C78.908 206.125 77.2675 206.296 76.1477 206.471V220.016V220.016ZM76.1477 245.81C77.4423 245.981 78.9935 245.981 81.2367 245.981C87.1887 245.981 92.4525 243.738 92.4525 237.611C92.4525 231.745 87.1887 229.412 80.6341 229.412H76.1477V245.81V245.81Z" fill="#F3A43D"/>
<path d="M69.7344 188.213H75.865V202.669H69.7344V188.213ZM82.8698 188.213H89.004V202.669H82.8698V188.213ZM69.7344 248.663H75.865V263.116H69.7344V248.663ZM82.8698 248.663H89.004V263.116H82.8698V248.663Z" fill="#F3A43D"/>
<path d="M28.6433 173.612C29.5063 172.705 30.9311 169.156 30.9311 169.156C30.9311 169.156 32.5381 172.623 33.4495 173.486C34.3572 174.349 37.9098 175.774 37.9098 175.774C37.9098 175.774 34.4428 177.384 33.576 178.292C32.7167 179.2 31.2882 182.749 31.2882 182.749C31.2882 182.749 29.6775 179.282 28.7698 178.419C27.8621 177.556 24.3132 176.131 24.3132 176.131C24.3132 176.131 27.784 174.52 28.6433 173.612ZM47.8757 150.98C48.7387 150.072 50.1598 146.523 50.1598 146.523C50.1598 146.523 51.7705 149.99 52.6819 150.853C53.5933 151.716 57.1385 153.138 57.1385 153.138C57.1385 153.138 53.6752 154.748 52.8121 155.656C51.9491 156.567 50.5243 160.113 50.5243 160.113C50.5243 160.113 48.9136 156.645 48.0059 155.782C47.0945 154.919 43.5493 153.498 43.5493 153.498C43.5493 153.498 47.0127 151.891 47.8757 150.98ZM1.47985 190.665C2.34289 189.757 3.76766 186.208 3.76766 186.208C3.76766 186.208 5.3747 189.675 6.2861 190.538C7.1975 191.401 10.7427 192.823 10.7427 192.823C10.7427 192.823 7.27562 194.433 6.41258 195.341C5.55326 196.249 4.12478 199.798 4.12478 199.798C4.12478 199.798 2.51402 196.33 1.60634 195.467C0.698664 194.608 -2.85022 193.183 -2.85022 193.183C-2.85022 193.183 0.620534 191.576 1.47985 190.665ZM8.2763 218.282C9.13934 217.375 10.5641 213.826 10.5641 213.826C10.5641 213.826 12.1749 217.293 13.0825 218.156C13.9902 219.019 17.5391 220.444 17.5391 220.444C17.5391 220.444 14.0683 222.054 13.209 222.962C12.346 223.87 10.9212 227.419 10.9212 227.419C10.9212 227.419 9.31418 223.951 8.40278 223.088C7.49138 222.229 3.94622 220.801 3.94622 220.801C3.94622 220.801 7.41326 219.194 8.2763 218.282Z" fill="#F2F7B6"/>
<path d="M-4.58741 261.628C-4.58741 265.891 -7.2844 268.115 -10.2306 268.115C-13.3331 268.115 -15.7772 265.798 -15.7772 261.97C-15.7772 258.332 -13.5526 255.575 -10.0707 255.575C-6.56272 255.575 -4.58741 258.146 -4.58741 261.628ZM-12.2394 261.847C-12.2394 263.979 -11.5178 265.515 -10.1376 265.515C-8.791 265.515 -8.13628 264.135 -8.13628 261.847C-8.13628 259.779 -8.698 258.179 -10.1711 258.179C-11.5773 258.179 -12.2394 259.809 -12.2394 261.847ZM-9.9814 276.642L1.71428 255.575H4.2848L-7.44064 276.642H-9.9814V276.642ZM10.0843 270.091C10.0843 274.354 7.38728 276.578 4.44104 276.578C1.37204 276.578 -1.07572 274.257 -1.10548 270.437C-1.10548 266.798 1.11908 264.042 4.601 264.042C8.10896 264.042 10.0843 266.612 10.0843 270.091V270.091ZM2.46572 270.31C2.43596 272.442 3.15392 273.978 4.53404 273.978C5.88068 273.978 6.54284 272.598 6.54284 270.31C6.54284 268.242 6.00716 266.642 4.53404 266.642C3.0944 266.642 2.46572 268.275 2.46572 270.31ZM173.753 227.389C173.753 231.652 171.056 233.876 168.11 233.876C165.007 233.876 162.563 231.555 162.563 227.731C162.563 224.093 164.788 221.336 168.27 221.336C171.774 221.336 173.753 223.907 173.753 227.389V227.389ZM166.101 227.608C166.101 229.74 166.826 231.276 168.203 231.276C169.553 231.276 170.208 229.896 170.208 227.608C170.208 225.54 169.646 223.94 168.173 223.94C166.76 223.94 166.101 225.57 166.101 227.608V227.608ZM168.359 242.403L180.051 221.336H182.622L170.896 242.403H168.359V242.403ZM188.421 235.852C188.421 240.115 185.728 242.339 182.778 242.339C179.705 242.339 177.261 240.018 177.228 236.194C177.228 232.556 179.452 229.799 182.934 229.799C186.446 229.803 188.421 232.374 188.421 235.852V235.852ZM180.806 236.071C180.773 238.203 181.494 239.739 182.875 239.739C184.225 239.739 184.883 238.363 184.883 236.071C184.883 234.003 184.351 232.403 182.875 232.403C181.431 232.403 180.806 234.036 180.806 236.071Z" fill="#6B5A84"/>
<path d="M95.9642 200.631L98.0548 204.741L94.0447 206.047L91.6044 200.631H95.9642ZM50.8406 201.974L48.6942 206.047L45.5322 203.093L48.5342 198.008L50.8406 201.974Z" fill="#FFD9A7"/>
<path d="M112.321 139.835C112.321 139.835 109.04 150.154 94.1898 152.535L69.4071 166.909C69.4071 166.909 60.7544 192.328 52.5778 201.289C49.4456 204.723 45.893 200.471 46.2687 198.67C48.9174 185.993 54.568 160.782 65.2556 150.894C74.3808 142.454 84.7707 139.839 84.7707 139.839H112.321V139.835Z" fill="#AFAE35"/>
<path d="M112.321 139.835C112.321 139.835 117.551 157.39 101.514 161.124L82.3751 163.364C82.3751 163.364 95.0007 188.262 97.229 200.162C97.5527 201.892 92.7724 204.369 90.7785 202.353C81.8356 193.317 62.7669 171.049 68.0345 157.014C70.9286 149.302 95.9345 142.446 95.9345 142.446L112.321 139.835Z" fill="#D8D844"/>
<path d="M93.2263 204.224C93.2263 204.224 95.7076 205.727 97.0579 202.781C97.0579 202.781 102.11 207.684 98.2297 210.812C94.3498 213.941 86.3295 216.973 84.5848 215.481C82.0775 213.338 88.4313 207.68 93.2263 204.224V204.224ZM46.1349 201.62C46.1349 201.62 46.6296 204.604 49.747 204.213C49.747 204.213 48.7909 212.003 44.0628 210.128C39.3384 208.253 32.289 202.446 32.4564 199.976C32.7019 196.42 40.6181 199.076 46.1349 201.62Z" fill="#6B5A84"/>
<path d="M87.6164 99.4691C88.7994 98.6061 91.2621 97.3264 92.166 100.477C93.0663 103.632 83.5803 119.873 80.6563 122.332C77.7361 124.791 58.4442 130.025 58.4442 130.025C58.4442 130.025 56.3536 129.798 57.8751 127.269L76.2072 118.995C76.2035 118.992 83.5244 102.445 87.6164 99.4691V99.4691Z" fill="#9991E2"/>
<path d="M103.546 99.1454C108.106 102.951 111.756 111.857 112.515 140.601C112.682 146.925 83.7515 145.597 83.8705 139.273C84.1904 122.448 77.8888 111.027 86.441 100.105C86.4448 100.105 94.5023 91.605 103.546 99.1454Z" fill="#B1A6F2"/>
<path d="M96.3474 88.3574C96.3474 88.3574 94.5878 93.0558 96.3474 96.0615C97.4708 97.9736 89.0227 104.402 89.2013 101.828C89.4356 98.5056 91.0167 96.467 89.2162 92.7321L96.3474 88.3574V88.3574Z" fill="#EFC18F"/>
<path d="M88.9594 80.3855C86.2773 83.1718 83.8295 94.9939 86.9134 97.4156C88.2563 98.4684 93.4978 96.9432 96.5928 91.6534C97.8688 89.4809 99.3754 85.4559 97.043 81.5871C95.9902 79.8312 92.0805 77.1379 88.9594 80.3855Z" fill="#FFD9A8"/>
<path d="M84.3764 81.747C84.3764 81.747 85.8123 83.7558 90.2466 84.2096C94.6771 84.6634 95.4211 84.3324 95.023 85.4074C93.8624 88.5546 97.1583 88.5397 95.7336 92.3006C94.3088 96.0615 97.1434 92.6875 97.5378 92.1146C97.9284 91.5417 101.574 86.8731 98.7951 81.6651C96.0237 76.4497 88.1224 78.5998 84.3764 81.747V81.747Z" fill="#9B4D34"/>
<path d="M60.8177 143.283H102.56V146.442H60.8177V143.283Z" fill="#FFE9BA"/>
<path d="M86.3034 146.445H56.5769L52.2059 126.904H80.4407L86.3034 146.445Z" fill="#725559"/>
<path d="M87.8211 142.428C87.8211 142.428 79.5925 145.121 82.2002 145.831C84.8079 146.542 87.0436 147.033 89.9415 143.875L87.8211 142.428V142.428Z" fill="#EFC18F"/>
<path d="M98.9736 103.267C99.4758 101.891 101.113 99.1343 103.307 101.571C106.789 105.443 106.968 122.462 105.911 126.134C104.855 129.806 89.6997 144.388 89.6997 144.388C89.6997 144.388 87.4788 144.299 87.4788 142.111L100.536 124.296C100.54 124.296 97.229 108.021 98.9736 103.267V103.267Z" fill="#9991E2"/>
<path d="M89.4318 102.363L86.519 107.794L89.4318 112.113L92.8356 107.24L89.4318 102.363Z" fill="#F7F7FC"/>
<path d="M89.4431 111.808L85.0311 130.583L87.1329 139.258L91.8722 131.565L89.4431 111.808Z" fill="#F7F7FC"/>
</g>
<defs>
<linearGradient id="paint0_linear_3_83" x1="81.6902" y1="78.2949" x2="81.6902" y2="274.629" gradientUnits="userSpaceOnUse">
<stop stop-color="#00A1E1"/>
<stop offset="0.129" stop-color="#04A3E3"/>
<stop offset="0.243" stop-color="#0EAAE7"/>
<stop offset="0.352" stop-color="#21B5EF"/>
<stop offset="0.457" stop-color="#3AC4FA"/>
<stop offset="0.495" stop-color="#45CBFF"/>
<stop offset="0.511" stop-color="#41C8FD"/>
<stop offset="0.634" stop-color="#24B7F1"/>
<stop offset="0.757" stop-color="#10ABE8"/>
<stop offset="0.879" stop-color="#04A3E3"/>
<stop offset="1" stop-color="#00A1E1"/>
</linearGradient>
<linearGradient id="paint1_linear_3_83" x1="50.7454" y1="43.3499" x2="66.1384" y2="43.3499" gradientUnits="userSpaceOnUse">
<stop stop-color="#00A1E1"/>
<stop offset="0.495" stop-color="#00A1E1"/>
<stop offset="1" stop-color="#00A1E1"/>
</linearGradient>
<linearGradient id="paint2_linear_3_83" x1="97.2435" y1="43.3499" x2="112.637" y2="43.3499" gradientUnits="userSpaceOnUse">
<stop stop-color="#00A1E1"/>
<stop offset="0.495" stop-color="#00A1E1"/>
<stop offset="1" stop-color="#00A1E1"/>
</linearGradient>
<linearGradient id="paint3_linear_3_83" x1="50.7454" y1="319.634" x2="66.1384" y2="319.634" gradientUnits="userSpaceOnUse">
<stop stop-color="#00A1E1"/>
<stop offset="0.495" stop-color="#00A1E1"/>
<stop offset="1" stop-color="#00A1E1"/>
</linearGradient>
<linearGradient id="paint4_linear_3_83" x1="97.2435" y1="319.634" x2="112.637" y2="319.634" gradientUnits="userSpaceOnUse">
<stop stop-color="#00A1E1"/>
<stop offset="0.495" stop-color="#00A1E1"/>
<stop offset="1" stop-color="#00A1E1"/>
</linearGradient>
</defs>
</svg>
