<svg width="239" height="239" viewBox="0 0 239 239" fill="none" xmlns="http://www.w3.org/2000/svg">
<path d="M120.384 214.168C178.637 214.168 225.86 188.344 225.86 156.488C225.86 124.632 178.637 98.8074 120.384 98.8074C62.1318 98.8074 14.9088 124.632 14.9088 156.488C14.9088 188.344 62.1318 214.168 120.384 214.168Z" fill="#F5F5F5"/>
<path d="M50.4242 184.924C62.7711 184.924 72.7802 179.146 72.7802 172.018C72.7802 164.89 62.7711 159.112 50.4242 159.112C38.0773 159.112 28.0681 164.89 28.0681 172.018C28.0681 179.146 38.0773 184.924 50.4242 184.924Z" fill="#E0E0E0"/>
<path d="M23.0061 60.9928C24.9181 59.9842 27.5136 60.1802 30.3721 61.8341C31.74 62.6421 32.9938 63.6291 34.1005 64.769C38.1396 68.8415 41.0076 74.9934 41.0076 80.261C41.0076 87.0533 45.7876 95.3036 51.6526 98.7022L62.2977 104.844L107.665 78.6597L97.034 72.5126C91.1593 69.1236 86.3889 60.8637 86.3889 54.0761C86.3889 47.2885 81.6089 39.0382 75.7438 35.6444C72.8758 33.9762 70.2277 33.7994 68.3109 34.851L68.0528 34.9944L53.0866 43.6414L50.6966 45.0037L23.0061 60.9928Z" fill="#E6E6E6"/>
<path d="M157.487 97.512C157.434 97.4772 157.373 97.4587 157.31 97.4587C157.247 97.4587 157.185 97.4772 157.133 97.512L155.828 98.272C155.688 98.3664 155.572 98.492 155.489 98.6388C155.407 98.7856 155.359 98.9497 155.35 99.1181V114.448L210.32 145.637L212.485 129.246L157.487 97.512Z" fill="#263238"/>
<path d="M212.461 129.227C212.407 129.208 212.348 129.202 212.291 129.211C212.233 129.219 212.178 129.241 212.131 129.275L210.798 130.016C210.653 130.102 210.533 130.226 210.454 130.374L155.469 98.6305C155.553 98.4848 155.671 98.3617 155.814 98.272L157.128 97.5168C157.18 97.482 157.242 97.4635 157.305 97.4635C157.368 97.4635 157.429 97.482 157.482 97.5168L212.461 129.227Z" fill="#455A64"/>
<path d="M212.132 129.27L210.798 130.016C210.658 130.11 210.541 130.235 210.458 130.382C210.375 130.529 210.328 130.693 210.32 130.862V145.623L212.614 146.932V129.538C212.619 129.242 212.399 129.117 212.132 129.27Z" fill="#37474F"/>
<path d="M210.325 145.637V146.646L206.888 148.175L151.889 116.417L155.326 114.448L210.325 145.637Z" fill="black"/>
<path d="M208.035 150.164L212.132 147.774C212.272 147.68 212.389 147.555 212.472 147.408C212.555 147.261 212.602 147.096 212.61 146.928L210.315 145.618C210.308 145.787 210.261 145.951 210.178 146.098C210.095 146.245 209.978 146.371 209.837 146.464L208.523 147.224C208.255 147.377 208.045 147.253 208.045 146.942L208.035 150.164Z" fill="#37474F"/>
<path d="M220.688 148.567C220.943 148.393 221.153 148.161 221.303 147.89C221.452 147.62 221.536 147.318 221.548 147.009V97.4071C221.531 97.0882 221.439 96.7779 221.28 96.5012C221.121 96.2246 220.898 95.9896 220.63 95.8153L156.999 59.0763C156.733 58.9091 156.427 58.8176 156.113 58.8115C155.799 58.8055 155.49 58.8852 155.218 59.0421C154.946 59.1989 154.722 59.427 154.57 59.7017C154.418 59.9764 154.344 60.2874 154.356 60.6011V110.203C154.373 110.522 154.466 110.833 154.626 111.109C154.787 111.386 155.01 111.621 155.278 111.795L218.924 148.534C219.195 148.676 219.496 148.752 219.802 148.758C220.108 148.764 220.411 148.699 220.688 148.567Z" fill="#FF3F20"/>
<path d="M219.827 98.4011V148.003C219.827 148.586 219.416 148.825 218.91 148.534L155.278 111.795C155.01 111.621 154.787 111.386 154.626 111.109C154.466 110.833 154.373 110.522 154.356 110.203V60.6008C154.356 60.0177 154.772 59.7787 155.278 60.0702L218.924 96.8093C219.189 96.9852 219.409 97.2209 219.566 97.4974C219.723 97.7739 219.812 98.0835 219.827 98.4011Z" fill="#FF3F20"/>
<path opacity="0.2" d="M221.548 97.4068V147.009C221.536 147.318 221.452 147.619 221.303 147.89C221.153 148.16 220.943 148.392 220.688 148.567C220.442 148.686 220.175 148.752 219.902 148.761C219.63 148.77 219.358 148.722 219.106 148.62C219.517 148.754 219.827 148.515 219.827 148.003V98.3963C219.815 98.0775 219.723 97.767 219.56 97.4929L221.276 96.4986C221.443 96.7729 221.537 97.0857 221.548 97.4068Z" fill="black"/>
<path d="M214.655 111.331V119.156C214.655 119.744 214.244 119.978 213.738 119.686L203.513 113.764C203.246 113.59 203.024 113.356 202.865 113.08C202.705 112.804 202.613 112.495 202.595 112.177V104.367C202.595 103.783 203.007 103.544 203.513 103.836L213.738 109.739C214.005 109.914 214.228 110.149 214.387 110.425C214.547 110.702 214.639 111.012 214.655 111.331Z" fill="#455A64"/>
<path d="M200.976 105.108L200.768 105.469L216.272 114.427L216.48 114.067L200.976 105.108Z" fill="white"/>
<path d="M211.419 111.264H211.003V115.251H211.419V111.264Z" fill="white"/>
<path d="M206.252 108.296H205.836V112.277H206.252V108.296Z" fill="white"/>
<path d="M200.975 109.106L200.767 109.466L216.271 118.424L216.479 118.064L200.975 109.106Z" fill="white"/>
<path d="M214.655 126.254V128.104C214.655 128.692 214.244 128.926 213.738 128.635L203.513 122.731C203.246 122.557 203.024 122.323 202.865 122.047C202.705 121.772 202.613 121.462 202.595 121.144V119.285C202.595 118.697 203.007 118.463 203.513 118.754L213.738 124.658C214.006 124.832 214.229 125.068 214.388 125.346C214.548 125.623 214.639 125.934 214.655 126.254Z" fill="#FAFAFA"/>
<path d="M200.282 117.961V119.82C200.282 120.403 199.871 120.642 199.364 120.351L189.14 114.448C188.872 114.273 188.65 114.038 188.49 113.762C188.331 113.485 188.239 113.175 188.222 112.856V111.001C188.222 110.413 188.633 110.174 189.14 110.471L199.364 116.374C199.631 116.548 199.853 116.782 200.013 117.058C200.172 117.333 200.264 117.643 200.282 117.961Z" fill="#FAFAFA"/>
<path d="M185.942 109.672V111.532C185.942 112.115 185.531 112.354 185.024 112.062L174.8 106.159C174.532 105.985 174.31 105.75 174.15 105.473C173.991 105.197 173.899 104.886 173.882 104.567V102.708C173.882 102.125 174.293 101.886 174.8 102.177L185.024 108.081C185.291 108.255 185.513 108.491 185.673 108.767C185.832 109.044 185.924 109.354 185.942 109.672Z" fill="#FAFAFA"/>
<path d="M171.602 101.384V103.248C171.602 103.836 171.191 104.075 170.684 103.779L160.46 97.8801C160.193 97.7049 159.971 97.4697 159.812 97.1933C159.652 96.9169 159.56 96.6069 159.542 96.2883V94.4289C159.542 93.8457 159.953 93.6067 160.46 93.8983L170.684 99.8016C170.95 99.9749 171.172 100.208 171.332 100.483C171.491 100.758 171.584 101.067 171.602 101.384Z" fill="#FAFAFA"/>
<path opacity="0.15" d="M165.245 103.626L167.592 104.978C167.751 105.084 167.884 105.225 167.98 105.391C168.075 105.557 168.13 105.743 168.141 105.934V106.651C168.141 107 167.893 107.129 167.592 106.967L165.245 105.638C165.084 105.533 164.951 105.391 164.856 105.225C164.76 105.059 164.705 104.873 164.695 104.682V103.965C164.695 103.592 164.943 103.449 165.245 103.626Z" fill="black"/>
<path opacity="0.15" d="M160.077 100.643L162.419 101.996C162.581 102.1 162.715 102.241 162.811 102.407C162.908 102.573 162.963 102.76 162.974 102.952V103.669C162.974 104.022 162.725 104.147 162.419 103.989L160.077 102.636C159.917 102.531 159.783 102.39 159.688 102.224C159.592 102.058 159.537 101.872 159.528 101.68V100.963C159.528 100.609 159.771 100.466 160.077 100.643Z" fill="black"/>
<path opacity="0.15" d="M189.666 122.698L160.508 105.853C160.001 105.562 159.59 105.796 159.59 106.384V107.244C159.607 107.563 159.699 107.873 159.858 108.15C160.017 108.427 160.24 108.662 160.508 108.836L189.666 125.681C190.172 125.972 190.583 125.738 190.583 125.15V124.28C190.565 123.963 190.473 123.654 190.313 123.379C190.154 123.105 189.932 122.871 189.666 122.698Z" fill="black"/>
<path d="M160.326 74.1139C159.913 73.3207 159.706 72.4364 159.724 71.5422C159.724 70.5862 159.92 69.9457 160.312 69.6589C160.704 69.3721 161.268 69.4486 162.004 69.8692C162.303 70.0417 162.583 70.2452 162.84 70.4763C163.081 70.6877 163.295 70.9286 163.476 71.1933C163.514 71.243 163.535 71.303 163.538 71.3654C163.54 71.4085 163.526 71.4509 163.5 71.4849L163.28 71.8721C163.251 71.9151 163.223 71.9294 163.194 71.9103C163.15 71.8816 163.113 71.8442 163.084 71.8004C162.827 71.4529 162.502 71.1617 162.128 70.9447C161.693 70.6962 161.354 70.6675 161.115 70.8635C160.876 71.0595 160.756 71.4849 160.756 72.1445C160.741 72.7351 160.868 73.3207 161.129 73.851C161.359 74.3059 161.716 74.6845 162.157 74.9408C162.448 75.1439 162.801 75.2402 163.156 75.2133C163.192 75.2025 163.23 75.2025 163.266 75.2133C163.294 75.2133 163.323 75.2611 163.352 75.3567L163.6 76.0641C163.613 76.1011 163.621 76.1397 163.624 76.1788C163.624 76.2123 163.6 76.241 163.548 76.2601C163.218 76.3844 162.711 76.2601 162.023 75.8538C161.306 75.4439 160.718 74.8411 160.326 74.1139Z" fill="white"/>
<path d="M164.203 76.9054C164.154 76.8094 164.131 76.7023 164.136 76.5947V71.5948C164.136 71.4753 164.136 71.3941 164.203 71.3558C164.27 71.3176 164.317 71.3319 164.418 71.3893L166.019 72.3118C166.522 72.5814 166.939 72.987 167.222 73.4824C167.505 73.9777 167.643 74.5428 167.62 75.1129C167.639 75.4252 167.575 75.737 167.434 76.0163C167.377 76.1143 167.294 76.195 167.195 76.2497C167.096 76.3044 166.983 76.3312 166.87 76.327L167.534 78.6501C167.541 78.6929 167.541 78.7364 167.534 78.7792C167.534 78.8795 167.491 78.9034 167.4 78.8509L166.698 78.4493C166.649 78.4216 166.606 78.3861 166.569 78.3442C166.529 78.2922 166.503 78.2315 166.492 78.1673L165.928 76.002L165.178 75.567V77.2209C165.188 77.3041 165.166 77.3882 165.116 77.4551C165.073 77.4933 164.996 77.4551 164.891 77.4169L164.413 77.1444C164.319 77.0889 164.246 77.0052 164.203 76.9054ZM165.866 74.9408C166.105 75.0794 166.287 75.1129 166.406 75.0508C166.526 74.9886 166.588 74.8022 166.588 74.5106C166.596 74.2565 166.538 74.0046 166.421 73.7793C166.309 73.5787 166.143 73.4132 165.943 73.3013L165.192 72.8663V74.5489L165.866 74.9408Z" fill="white"/>
<path d="M168.208 79.2189C168.159 79.1229 168.136 79.0159 168.141 78.9082V73.9084C168.141 73.7841 168.141 73.7076 168.208 73.6694C168.275 73.6311 168.323 73.6455 168.423 73.7028L171.047 75.2181C171.136 75.2628 171.209 75.3326 171.258 75.4188C171.3 75.515 171.32 75.6197 171.315 75.7248V76.0355C171.326 76.1225 171.306 76.2106 171.258 76.284C171.219 76.3175 171.148 76.284 171.047 76.2458L169.183 75.1703V76.48L170.483 77.2352C170.572 77.2774 170.645 77.3459 170.694 77.4312C170.736 77.5291 170.756 77.6353 170.751 77.7419V78.0335C170.762 78.1205 170.742 78.2087 170.694 78.2821C170.655 78.3155 170.589 78.2821 170.483 78.2438L169.183 77.4934V78.87L171.043 79.9455C171.13 79.9898 171.202 80.0598 171.248 80.1463C171.29 80.2443 171.31 80.3504 171.306 80.457V80.7629C171.306 80.8919 171.306 80.9732 171.248 81.0019C171.191 81.0306 171.143 81.0019 171.043 80.9636L168.423 79.4532C168.329 79.3997 168.253 79.3177 168.208 79.2189Z" fill="white"/>
<path d="M171.836 81.3126C171.787 81.2165 171.764 81.1095 171.769 81.0019V76.002C171.769 75.8825 171.769 75.8012 171.836 75.763C171.903 75.7247 171.951 75.7391 172.051 75.7964L173.38 76.566C174.069 76.9501 174.638 77.5176 175.024 78.2056C175.419 78.9764 175.612 79.835 175.584 80.7007C175.584 81.6567 175.397 82.2925 175.015 82.541C174.632 82.7896 174.092 82.7035 173.38 82.2925L172.051 81.5277C171.96 81.4792 171.885 81.4042 171.836 81.3126ZM173.428 81.3126C173.806 81.5277 174.083 81.5516 174.269 81.3795C174.456 81.2074 174.546 80.7868 174.546 80.1128C174.572 79.5714 174.477 79.0311 174.269 78.5306C174.088 78.1514 173.794 77.8375 173.428 77.632L172.811 77.2735V80.9541L173.428 81.3126Z" fill="white"/>
<path d="M176.172 83.8173C176.123 83.7196 176.1 83.611 176.105 83.5018V78.5067C176.105 78.3825 176.105 78.306 176.172 78.2677C176.238 78.2295 176.286 78.2438 176.387 78.3012L176.865 78.5737C176.958 78.6233 177.036 78.6977 177.089 78.7888C177.132 78.8899 177.154 78.9991 177.151 79.109V84.128C177.162 84.2127 177.14 84.2982 177.089 84.367C177.046 84.4005 176.97 84.3909 176.865 84.3288L176.387 84.0563C176.293 84.0001 176.218 83.9168 176.172 83.8173Z" fill="white"/>
<path d="M178.906 85.3947C178.859 85.2981 178.836 85.1915 178.839 85.084V80.7438L177.816 80.1463C177.728 80.102 177.657 80.0319 177.61 79.9455C177.568 79.8493 177.548 79.7446 177.553 79.6396V79.348C177.542 79.261 177.562 79.1728 177.61 79.0994C177.649 79.066 177.716 79.0994 177.816 79.1377L180.937 80.9397C181.026 80.9876 181.101 81.0586 181.152 81.1453C181.194 81.245 181.214 81.3527 181.21 81.4608V81.738C181.21 81.8623 181.21 81.9388 181.152 81.9722C181.095 82.0057 181.038 81.9722 180.937 81.934L179.9 81.3365V85.6767C179.9 85.801 179.9 85.8775 179.838 85.9109C179.776 85.9444 179.718 85.9109 179.613 85.8679L179.135 85.6002C179.041 85.5548 178.961 85.4835 178.906 85.3947Z" fill="white"/>
<path d="M184.341 87.9759C183.928 87.1842 183.721 86.3016 183.738 85.409C183.738 84.453 183.934 83.8077 184.326 83.5257C184.718 83.2437 185.282 83.3106 186.018 83.736C186.318 83.9069 186.598 84.1087 186.855 84.3383C187.094 84.5521 187.307 84.7927 187.491 85.0553C187.528 85.1053 187.55 85.1651 187.553 85.2274C187.556 85.2706 187.542 85.3133 187.515 85.3469L187.295 85.7341C187.266 85.7819 187.237 85.7962 187.204 85.7771C187.163 85.7443 187.128 85.7057 187.099 85.6624C186.841 85.3168 186.516 85.0273 186.143 84.8115C185.713 84.5582 185.373 84.5343 185.134 84.7303C184.895 84.9262 184.771 85.3517 184.771 86.0065C184.756 86.5991 184.886 87.1863 185.149 87.7178C185.381 88.1708 185.738 88.5487 186.176 88.8076C186.47 89.0069 186.821 89.1028 187.175 89.0801C187.209 89.0667 187.247 89.0667 187.28 89.0801C187.324 89.1183 187.355 89.1681 187.371 89.2235L187.615 89.9309C187.631 89.9671 187.641 90.006 187.644 90.0456C187.644 90.0791 187.615 90.1078 187.567 90.1317C187.237 90.2559 186.731 90.1317 186.042 89.7206C185.322 89.3114 184.732 88.7065 184.341 87.9759Z" fill="white"/>
<path d="M187.854 90.5141C187.85 90.4744 187.85 90.4343 187.854 90.3946L189.493 86.1404C189.522 86.0591 189.556 86.0113 189.589 85.997C189.616 85.991 189.644 85.991 189.671 85.9967C189.699 86.0025 189.724 86.014 189.747 86.0304L190.225 86.2981C190.287 86.3317 190.34 86.3812 190.378 86.4415C190.42 86.5217 190.452 86.6068 190.473 86.6949L192.108 92.8372C192.114 92.8864 192.114 92.9361 192.108 92.9853C192.108 93.0809 192.07 93.1048 191.993 93.0618L191.229 92.6173C191.179 92.5895 191.135 92.5522 191.1 92.5073C191.065 92.4515 191.041 92.39 191.028 92.3257L190.736 91.1642L189.202 90.2751L188.915 91.1068C188.915 91.1642 188.872 91.1928 188.843 91.2024C188.821 91.2057 188.798 91.2044 188.775 91.1987C188.753 91.1929 188.732 91.1828 188.714 91.1689L187.949 90.7244C187.916 90.7017 187.889 90.6699 187.872 90.6328C187.855 90.5957 187.849 90.5545 187.854 90.5141ZM190.516 90.0361L190.005 87.952L189.474 89.4673L190.516 90.0361Z" fill="white"/>
<path d="M192.734 93.3773C192.685 93.2814 192.662 93.1742 192.667 93.0666V88.0715C192.667 87.9472 192.667 87.866 192.734 87.8325C192.801 87.799 192.849 87.8038 192.949 87.866L194.551 88.7885C195.055 89.0553 195.474 89.4595 195.758 89.9544C196.042 90.4493 196.181 91.0146 196.157 91.5848C196.174 91.8976 196.108 92.2094 195.966 92.4882C195.909 92.5862 195.826 92.6669 195.727 92.7216C195.627 92.7763 195.515 92.8031 195.402 92.7989L196.066 95.122C196.072 95.1648 196.072 95.2083 196.066 95.2511C196.066 95.3514 196.023 95.3753 195.932 95.3275L195.229 94.9212C195.18 94.895 195.136 94.8593 195.1 94.8161C195.064 94.7644 195.038 94.7059 195.024 94.644L194.441 92.4548L193.69 92.0198V93.688C193.7 93.7726 193.678 93.858 193.628 93.927C193.585 93.9605 193.509 93.927 193.404 93.884L192.926 93.6115C192.84 93.5543 192.773 93.4727 192.734 93.3773ZM194.398 91.4127C194.637 91.5513 194.818 91.5896 194.938 91.5227C195.057 91.4557 195.12 91.2789 195.12 90.9873C195.128 90.7316 195.071 90.478 194.952 90.2512C194.84 90.0506 194.675 89.8851 194.474 89.7732L193.724 89.3382V91.0255L194.398 91.4127Z" fill="white"/>
<path d="M196.74 95.6908C196.693 95.5942 196.67 95.4876 196.673 95.3801V90.385C196.668 90.342 196.671 90.2983 196.682 90.2565C196.694 90.2146 196.713 90.1755 196.74 90.1412C196.783 90.1078 196.855 90.1173 196.955 90.1747L198.284 90.9443C198.973 91.3283 199.542 91.8958 199.928 92.5838C200.323 93.3547 200.516 94.2133 200.488 95.079C200.488 96.0589 200.301 96.6707 199.919 96.9193C199.536 97.1678 198.996 97.0818 198.284 96.6707L196.955 95.9059C196.863 95.8574 196.789 95.7825 196.74 95.6908ZM198.337 95.6908C198.709 95.9059 198.991 95.9298 199.173 95.7577C199.355 95.5856 199.455 95.165 199.455 94.491C199.479 93.9493 199.383 93.4088 199.173 92.9088C198.994 92.53 198.702 92.2161 198.337 92.0102L197.715 91.6517V95.3323L198.337 95.6908Z" fill="white"/>
<path opacity="0.5" d="M221.276 96.4986L219.56 97.512C219.403 97.2334 219.18 96.9985 218.91 96.8285L155.273 60.0703C154.795 59.8074 154.432 59.9794 154.365 60.4527C154.378 60.1518 154.47 59.8595 154.631 59.6053C154.792 59.351 155.018 59.1437 155.285 59.0042C155.552 58.8647 155.851 58.7979 156.152 58.8105C156.452 58.8231 156.745 58.9147 156.999 59.076L220.63 95.8151C220.902 95.9826 221.124 96.2183 221.276 96.4986Z" fill="#FAFAFA"/>
<path d="M207.892 131.895L202.452 134.853C202.361 135.06 202.312 135.283 202.309 135.508V152.903C202.305 152.955 202.313 153.007 202.33 153.056C202.347 153.105 202.374 153.151 202.409 153.189L147.439 121.465C147.389 121.43 147.35 121.384 147.325 121.329C147.299 121.274 147.289 121.214 147.296 121.154V103.755C147.304 103.586 147.352 103.422 147.435 103.275C147.518 103.129 147.634 103.003 147.774 102.909L152.53 100.155C152.58 100.116 152.64 100.093 152.703 100.089C152.766 100.085 152.829 100.1 152.883 100.131L207.892 131.895Z" fill="#263238"/>
<path opacity="0.5" d="M207.897 131.89L157.625 102.856L155.331 101.532L152.907 100.131C152.853 100.1 152.79 100.085 152.727 100.089C152.664 100.093 152.604 100.116 152.554 100.155L147.798 102.909C147.654 102.998 147.537 103.123 147.458 103.272L202.457 134.849L207.897 131.89Z" fill="#37474F"/>
<path d="M202.452 134.853C202.36 135.063 202.31 135.289 202.304 135.518V152.912C202.304 153.223 202.524 153.347 202.782 153.194L208.04 150.164V132.21C208.047 132.149 208.038 132.088 208.012 132.032C207.987 131.977 207.947 131.929 207.897 131.895L202.452 134.853Z" fill="#37474F"/>
<path d="M202.844 153.146L203.031 153.056L203.838 152.578C204.62 151.606 205.047 150.397 205.048 149.15V134.452C205.044 134.13 205.004 133.809 204.928 133.496L204.493 133.735C204.541 133.968 204.567 134.205 204.57 134.442V149.15C204.482 150.644 203.871 152.058 202.844 153.146Z" fill="#263238"/>
<path d="M141.173 83.4014C139.318 81.9005 135.943 79.955 133.869 78.76C130.379 76.7381 117.335 69.2 111.881 66.05C111.124 65.6658 110.287 65.4656 109.438 65.4656C108.589 65.4656 107.752 65.6658 106.996 66.05L62.5416 91.7282C61.8315 92.1927 61.2405 92.8175 60.8163 93.5523C60.392 94.2871 60.1463 95.1113 60.099 95.9585V122.846C60.1467 123.694 60.3925 124.518 60.8167 125.254C61.2409 125.989 61.8317 126.615 62.5416 127.081L152.812 179.25C153.569 179.632 154.406 179.831 155.254 179.831C156.103 179.831 156.939 179.632 157.697 179.25L202.151 153.581C202.862 153.113 203.452 152.483 203.875 151.744C204.297 151.005 204.54 150.177 204.584 149.327V134.175C204.587 133.435 204.419 132.705 204.092 132.041C203.765 131.377 203.289 130.799 202.701 130.351C192.5 122.602 144.136 85.7962 141.173 83.4014Z" fill="#455A64"/>
<path d="M204.584 149.327V134.619C204.584 134.323 204.548 134.028 204.479 133.74L155.13 162.185C155.204 162.491 155.244 162.803 155.25 163.117V177.816C155.25 179.25 154.341 179.876 153.166 179.398H153.199C153.309 179.446 153.419 179.489 153.534 179.527L153.753 179.594C153.873 179.628 153.992 179.656 154.117 179.68C154.241 179.704 154.279 179.709 154.361 179.723L154.729 179.771H155.006H155.355H155.665L155.981 179.747C156.096 179.747 156.21 179.709 156.325 179.685L156.593 179.637C156.717 179.604 156.841 179.561 156.961 179.522C157.08 179.484 157.104 179.484 157.171 179.456C157.327 179.394 157.479 179.323 157.625 179.24C157.649 179.232 157.671 179.221 157.692 179.207L202.146 153.538L202.787 153.175C203.842 152.159 204.482 150.788 204.584 149.327Z" fill="#37474F"/>
<path d="M91.8333 111.895C100.17 118.625 143.706 151.569 153.352 158.863C153.946 159.309 154.427 159.886 154.759 160.55C155.091 161.213 155.264 161.945 155.264 162.687V177.816C155.264 179.369 154.164 180.005 152.821 179.25L62.5175 127.1C61.8076 126.634 61.2169 126.009 60.7927 125.273C60.3684 124.538 60.1226 123.713 60.075 122.865V95.9585C60.075 94.405 61.1743 93.7693 62.5175 94.5484L84.5055 107.244C86.5944 108.444 89.9691 110.389 91.8333 111.895Z" fill="#263238"/>
<path d="M91.5656 103.181C93.6402 104.376 97.0148 106.322 98.8838 107.832C100.688 109.319 102.399 110.915 104.008 112.612C104.359 112.954 104.81 113.176 105.295 113.246C105.78 113.317 106.275 113.232 106.709 113.004L138.964 94.362C139.154 94.2688 139.319 94.1306 139.444 93.9593C139.568 93.7881 139.649 93.589 139.679 93.3793C139.71 93.1696 139.688 92.9557 139.617 92.7563C139.545 92.5568 139.426 92.3778 139.27 92.2349C137.656 90.5384 135.94 88.9421 134.132 87.4549C132.272 85.9539 128.897 84.0133 126.823 82.8135C122.875 80.5286 118.444 77.9713 114.452 75.6722C113.986 75.4376 113.471 75.3154 112.949 75.3154C112.427 75.3154 111.912 75.4376 111.446 75.6722L79.2046 94.3046C78.3776 94.7826 78.3776 95.5617 79.2046 96.0397L91.5656 103.181Z" fill="#E0E0E0"/>
<path d="M111.446 77.2113C111.912 76.9768 112.427 76.8546 112.949 76.8546C113.471 76.8546 113.986 76.9768 114.452 77.2113C118.444 79.5105 122.875 82.0678 126.823 84.3527C128.897 85.5524 132.272 87.4979 134.132 88.9988C135.94 90.4859 137.656 92.0823 139.27 93.7788C139.328 93.8396 139.381 93.9051 139.428 93.9748C139.298 94.1416 139.135 94.2799 138.95 94.3811L106.694 113.023C106.26 113.251 105.765 113.336 105.28 113.265C104.795 113.195 104.345 112.973 103.994 112.631C102.385 110.934 100.674 109.338 98.8695 107.851C97.0005 106.341 93.6115 104.395 91.5513 103.2L79.2046 96.0398C79.1472 96.0063 79.1042 95.9681 79.0564 95.9346C79.103 95.8957 79.1525 95.8606 79.2046 95.8294L111.446 77.2113Z" fill="white"/>
<path d="M111.976 101.79L102.325 101.642V97.7892L109.237 99.0416L109.146 83.7312L115.155 83.6357L111.976 101.79Z" fill="#FF3F20"/>
<path d="M139.925 102.206L140.245 100.877L141.584 100.767L145.957 98.2433C148.032 97.0483 150.78 97.2873 152.119 98.7739C152.402 99.0837 152.61 99.4551 152.726 99.859L153.103 99.8255L152.764 101.236C152.614 101.735 152.365 102.2 152.033 102.602C151.7 103.005 151.291 103.336 150.828 103.578L145.503 106.647C145.07 106.878 144.575 106.965 144.089 106.896C143.604 106.826 143.153 106.603 142.802 106.259C141.961 105.361 141.12 104.429 140.279 103.482C140.119 103.315 140.002 103.111 139.941 102.889C139.879 102.666 139.874 102.431 139.925 102.206Z" fill="#FF3F20"/>
<path opacity="0.1" d="M139.925 102.206L140.245 100.877L141.584 100.767L145.957 98.2433C148.032 97.0483 150.78 97.2873 152.119 98.7739C152.402 99.0837 152.61 99.4551 152.726 99.859L153.103 99.8255L152.764 101.236C152.614 101.735 152.365 102.2 152.033 102.602C151.7 103.005 151.291 103.336 150.828 103.578L145.503 106.647C145.07 106.878 144.575 106.965 144.089 106.896C143.604 106.826 143.153 106.603 142.802 106.259C141.961 105.361 141.12 104.429 140.279 103.482C140.119 103.315 140.002 103.111 139.941 102.889C139.879 102.666 139.874 102.431 139.925 102.206Z" fill="black"/>
<path d="M145.79 105.322L151.115 102.249C153.194 101.049 153.749 98.903 152.41 97.4403C151.072 95.9776 148.323 95.7147 146.249 96.9097L140.924 99.9832C140.733 100.08 140.567 100.22 140.44 100.393C140.313 100.566 140.229 100.766 140.194 100.977C140.159 101.189 140.174 101.405 140.239 101.61C140.303 101.814 140.415 102 140.565 102.153C141.407 103.109 142.25 104.035 143.094 104.931C143.443 105.275 143.893 105.498 144.378 105.569C144.863 105.639 145.357 105.553 145.79 105.322Z" fill="#FF3F20"/>
<path d="M112.693 118.773L113.018 117.425L113.396 117.392C113.758 116.958 114.195 116.594 114.687 116.317L120.012 113.243C120.441 113.014 120.933 112.932 121.413 113.01C121.893 113.088 122.334 113.321 122.669 113.673C123.496 114.605 124.323 115.523 125.15 116.412L125.9 116.35L125.561 117.751C125.454 118.101 125.214 118.396 124.892 118.573L119.567 121.646C117.488 122.846 114.682 122.655 113.353 121.168C113.053 120.855 112.836 120.472 112.721 120.054C112.606 119.636 112.597 119.196 112.693 118.773Z" fill="#FF3F20"/>
<path opacity="0.1" d="M112.693 118.773L113.018 117.425L113.396 117.392C113.758 116.958 114.195 116.594 114.687 116.317L120.012 113.243C120.441 113.014 120.933 112.932 121.413 113.01C121.893 113.088 122.334 113.321 122.669 113.673C123.496 114.605 124.323 115.523 125.15 116.412L125.9 116.35L125.561 117.751C125.454 118.101 125.214 118.396 124.892 118.573L119.567 121.646C117.488 122.846 114.682 122.655 113.353 121.168C113.053 120.855 112.836 120.472 112.721 120.054C112.606 119.636 112.597 119.196 112.693 118.773Z" fill="black"/>
<path d="M119.868 120.308L125.193 117.234C125.382 117.14 125.546 117.002 125.67 116.83C125.794 116.659 125.875 116.46 125.905 116.251C125.935 116.042 125.914 115.828 125.843 115.629C125.772 115.43 125.654 115.251 125.499 115.107C124.658 114.204 123.821 113.276 122.98 112.33C122.645 111.977 122.204 111.743 121.724 111.664C121.244 111.586 120.752 111.667 120.322 111.895L114.997 114.969C112.923 116.168 112.297 118.358 113.64 119.835C114.983 121.312 117.794 121.503 119.868 120.308Z" fill="#FF3F20"/>
<path d="M126.02 110.361L126.335 109.046L127.358 108.979L133.73 105.299C134.267 105.013 134.882 104.912 135.482 105.009C136.082 105.107 136.633 105.398 137.052 105.839C137.689 106.565 138.335 107.278 138.988 107.975C139.051 108.046 139.108 108.121 139.16 108.2L139.796 108.162L139.466 109.534C139.408 109.765 139.302 109.982 139.156 110.17C139.009 110.359 138.825 110.515 138.615 110.628L131.785 114.567C131.245 114.858 130.627 114.968 130.021 114.882C129.415 114.796 128.852 114.518 128.415 114.089C127.769 113.391 127.119 112.679 126.474 111.952C126.273 111.745 126.126 111.491 126.047 111.214C125.967 110.936 125.958 110.643 126.02 110.361Z" fill="#FF3F20"/>
<path opacity="0.1" d="M126.02 110.361L126.335 109.046L127.358 108.979L133.73 105.299C134.267 105.013 134.882 104.912 135.482 105.009C136.082 105.107 136.633 105.398 137.052 105.839C137.689 106.565 138.335 107.278 138.988 107.975C139.051 108.046 139.108 108.121 139.16 108.2L139.796 108.162L139.466 109.534C139.408 109.765 139.302 109.982 139.156 110.17C139.009 110.359 138.825 110.515 138.615 110.628L131.785 114.567C131.245 114.858 130.627 114.968 130.021 114.882C129.415 114.796 128.852 114.518 128.415 114.089C127.769 113.391 127.119 112.679 126.474 111.952C126.273 111.745 126.126 111.491 126.047 111.214C125.967 110.936 125.958 110.643 126.02 110.361Z" fill="black"/>
<path d="M126.775 110.619C127.42 111.345 128.07 112.053 128.716 112.755C129.153 113.184 129.716 113.462 130.322 113.548C130.928 113.634 131.546 113.524 132.086 113.233L138.916 109.295C139.152 109.177 139.357 109.004 139.511 108.79C139.666 108.576 139.767 108.328 139.805 108.067C139.843 107.806 139.817 107.539 139.73 107.29C139.643 107.041 139.496 106.817 139.303 106.637C138.658 105.939 138.013 105.203 137.367 104.496C136.949 104.055 136.397 103.764 135.797 103.667C135.197 103.571 134.581 103.674 134.045 103.96L127.22 107.899C126.979 108.02 126.771 108.195 126.612 108.412C126.452 108.629 126.347 108.88 126.303 109.145C126.26 109.411 126.28 109.683 126.362 109.939C126.444 110.195 126.586 110.428 126.775 110.619Z" fill="#FF3F20"/>
<g opacity="0.75">
<path d="M145.79 105.322L151.115 102.249C153.194 101.049 153.749 98.903 152.41 97.4403C151.072 95.9776 148.323 95.7147 146.249 96.9097L140.924 99.9832C140.733 100.08 140.567 100.22 140.44 100.393C140.313 100.566 140.229 100.766 140.194 100.977C140.159 101.189 140.174 101.405 140.239 101.61C140.304 101.814 140.415 102 140.565 102.153C141.407 103.109 142.25 104.035 143.094 104.931C143.443 105.275 143.893 105.498 144.378 105.569C144.863 105.639 145.358 105.553 145.79 105.322Z" fill="white"/>
<path d="M119.868 120.308L125.193 117.234C125.382 117.14 125.546 117.002 125.67 116.83C125.794 116.659 125.875 116.46 125.905 116.251C125.935 116.042 125.914 115.828 125.843 115.629C125.772 115.43 125.654 115.251 125.499 115.107C124.658 114.204 123.821 113.276 122.98 112.33C122.645 111.977 122.204 111.743 121.724 111.664C121.244 111.586 120.752 111.667 120.322 111.895L114.997 114.969C112.923 116.168 112.297 118.358 113.64 119.835C114.983 121.312 117.794 121.503 119.868 120.308Z" fill="white"/>
<path d="M126.775 110.619C127.42 111.345 128.071 112.053 128.716 112.755C129.153 113.184 129.716 113.462 130.322 113.548C130.929 113.634 131.547 113.524 132.086 113.233L138.916 109.295C139.153 109.177 139.357 109.004 139.512 108.79C139.666 108.576 139.767 108.328 139.805 108.067C139.843 107.806 139.817 107.539 139.73 107.29C139.643 107.041 139.496 106.817 139.304 106.637C138.658 105.939 138.013 105.203 137.368 104.496C136.949 104.055 136.397 103.764 135.797 103.667C135.197 103.571 134.582 103.674 134.046 103.96L127.22 107.899C126.979 108.02 126.771 108.195 126.612 108.412C126.452 108.629 126.347 108.88 126.303 109.145C126.26 109.411 126.28 109.683 126.362 109.939C126.444 110.195 126.586 110.428 126.775 110.619Z" fill="white"/>
</g>
<path d="M137.133 125.37L135.728 125.403L131.794 122.401C131.447 122.162 131.041 122.021 130.62 121.994C130.199 121.967 129.779 122.055 129.404 122.248L123.391 125.714L121.503 125.762V127.301C121.511 127.455 121.555 127.605 121.632 127.74C121.708 127.874 121.814 127.989 121.942 128.075L126.837 131.813C127.185 132.052 127.59 132.192 128.011 132.219C128.432 132.246 128.852 132.159 129.227 131.966L136.584 127.722C136.739 127.648 136.872 127.533 136.968 127.39C137.064 127.247 137.119 127.081 137.129 126.909L137.133 125.37Z" fill="#FF3F20"/>
<path opacity="0.1" d="M137.133 125.37L135.728 125.403L131.794 122.401C131.447 122.162 131.041 122.021 130.62 121.994C130.199 121.967 129.779 122.055 129.404 122.248L123.391 125.714L121.503 125.762V127.301C121.511 127.455 121.555 127.605 121.632 127.74C121.708 127.874 121.814 127.989 121.942 128.075L126.837 131.813C127.185 132.052 127.59 132.192 128.011 132.219C128.432 132.246 128.852 132.159 129.227 131.966L136.584 127.722C136.739 127.648 136.872 127.533 136.968 127.39C137.064 127.247 137.119 127.081 137.129 126.909L137.133 125.37Z" fill="black"/>
<path d="M122.048 124.949L129.409 120.709C129.784 120.516 130.204 120.428 130.625 120.455C131.046 120.482 131.452 120.623 131.799 120.862L136.708 124.6C136.852 124.682 136.971 124.802 137.049 124.948C137.128 125.094 137.164 125.259 137.153 125.424C137.142 125.59 137.085 125.749 136.987 125.883C136.89 126.017 136.757 126.121 136.603 126.182L129.246 130.427C128.871 130.619 128.451 130.707 128.03 130.68C127.61 130.653 127.204 130.513 126.856 130.274L121.962 126.536C121.819 126.454 121.701 126.334 121.622 126.189C121.543 126.045 121.506 125.881 121.515 125.716C121.524 125.551 121.579 125.393 121.673 125.257C121.767 125.122 121.897 125.015 122.048 124.949Z" fill="#FF3F20"/>
<path opacity="0.75" d="M122.048 124.949L129.409 120.709C129.784 120.516 130.204 120.428 130.625 120.455C131.046 120.482 131.452 120.623 131.799 120.862L136.708 124.6C136.852 124.682 136.971 124.802 137.049 124.948C137.128 125.094 137.164 125.259 137.153 125.424C137.142 125.59 137.085 125.749 136.987 125.883C136.89 126.017 136.757 126.121 136.603 126.182L129.246 130.427C128.871 130.619 128.451 130.707 128.03 130.68C127.61 130.653 127.204 130.513 126.856 130.274L121.962 126.536C121.819 126.454 121.701 126.334 121.622 126.189C121.543 126.045 121.506 125.881 121.515 125.716C121.524 125.551 121.579 125.393 121.673 125.257C121.767 125.122 121.897 125.015 122.048 124.949Z" fill="white"/>
<path d="M165.866 147.277L164.461 147.315L160.527 144.308C160.179 144.07 159.774 143.929 159.353 143.902C158.932 143.875 158.512 143.963 158.137 144.155L152.119 147.625L150.231 147.669V149.208C150.238 149.362 150.282 149.513 150.358 149.647C150.434 149.782 150.541 149.897 150.67 149.982L155.565 153.72C155.912 153.96 156.318 154.1 156.739 154.127C157.16 154.154 157.58 154.066 157.955 153.873L165.292 149.614C165.448 149.539 165.58 149.424 165.675 149.28C165.77 149.136 165.825 148.969 165.833 148.797L165.866 147.277Z" fill="#FF3F20"/>
<path opacity="0.1" d="M165.866 147.277L164.461 147.315L160.527 144.308C160.179 144.07 159.774 143.929 159.353 143.902C158.932 143.875 158.512 143.963 158.137 144.155L152.119 147.625L150.231 147.669V149.208C150.238 149.362 150.282 149.513 150.358 149.647C150.434 149.782 150.541 149.897 150.67 149.982L155.565 153.72C155.912 153.96 156.318 154.1 156.739 154.127C157.16 154.154 157.58 154.066 157.955 153.873L165.292 149.614C165.448 149.539 165.58 149.424 165.675 149.28C165.77 149.136 165.825 148.969 165.833 148.797L165.866 147.277Z" fill="black"/>
<path d="M150.756 146.856L158.118 142.616C158.493 142.424 158.913 142.336 159.334 142.363C159.754 142.39 160.16 142.53 160.508 142.769L165.388 146.507C165.532 146.589 165.65 146.71 165.728 146.856C165.807 147.003 165.843 147.168 165.832 147.333C165.821 147.499 165.764 147.658 165.666 147.792C165.569 147.927 165.436 148.031 165.283 148.094L157.922 152.334C157.547 152.527 157.126 152.615 156.705 152.588C156.284 152.561 155.879 152.42 155.532 152.181L150.637 148.443C150.495 148.358 150.379 148.236 150.303 148.089C150.227 147.942 150.193 147.777 150.206 147.612C150.218 147.448 150.276 147.289 150.373 147.156C150.471 147.022 150.603 146.918 150.756 146.856Z" fill="#FF3F20"/>
<path opacity="0.75" d="M150.756 146.856L158.118 142.616C158.493 142.424 158.913 142.336 159.334 142.363C159.754 142.39 160.16 142.53 160.508 142.769L165.388 146.507C165.532 146.589 165.65 146.71 165.728 146.856C165.807 147.003 165.843 147.168 165.832 147.333C165.821 147.499 165.764 147.658 165.666 147.792C165.569 147.927 165.436 148.031 165.283 148.094L157.922 152.334C157.547 152.527 157.126 152.615 156.705 152.588C156.284 152.561 155.879 152.42 155.532 152.181L150.637 148.443C150.495 148.358 150.379 148.236 150.303 148.089C150.227 147.942 150.193 147.777 150.206 147.612C150.218 147.448 150.276 147.289 150.373 147.156C150.471 147.022 150.603 146.918 150.756 146.856Z" fill="white"/>
<path d="M146.703 132.674L145.298 132.707L141.364 129.705C141.017 129.466 140.611 129.325 140.19 129.297C139.77 129.269 139.349 129.356 138.974 129.548L132.956 133.018L131.044 133.066V134.605C131.053 134.759 131.097 134.909 131.173 135.043C131.25 135.177 131.356 135.292 131.483 135.379L136.412 139.098C136.759 139.337 137.164 139.478 137.585 139.506C138.006 139.534 138.426 139.447 138.802 139.256L146.158 135.011C146.314 134.937 146.446 134.823 146.542 134.68C146.638 134.537 146.694 134.37 146.703 134.198V132.674Z" fill="#FF3F20"/>
<path opacity="0.1" d="M146.703 132.674L145.298 132.707L141.364 129.705C141.017 129.466 140.611 129.325 140.19 129.297C139.77 129.269 139.349 129.356 138.974 129.548L132.956 133.018L131.044 133.066V134.605C131.053 134.759 131.097 134.909 131.173 135.043C131.25 135.177 131.356 135.292 131.483 135.379L136.412 139.098C136.759 139.337 137.164 139.478 137.585 139.506C138.006 139.534 138.426 139.447 138.802 139.256L146.158 135.011C146.314 134.937 146.446 134.823 146.542 134.68C146.638 134.537 146.694 134.37 146.703 134.198V132.674Z" fill="black"/>
<path d="M131.617 132.253L138.978 128.008C139.354 127.817 139.774 127.73 140.195 127.758C140.616 127.786 141.021 127.927 141.368 128.166L146.268 131.899C146.412 131.982 146.53 132.103 146.608 132.249C146.687 132.395 146.723 132.56 146.712 132.726C146.701 132.891 146.643 133.05 146.546 133.185C146.449 133.319 146.316 133.424 146.163 133.486L138.806 137.731C138.431 137.923 138.01 138.009 137.59 137.981C137.169 137.954 136.763 137.813 136.416 137.573L131.517 133.84C131.374 133.757 131.257 133.636 131.18 133.49C131.102 133.345 131.066 133.18 131.077 133.016C131.087 132.851 131.143 132.692 131.239 132.558C131.334 132.423 131.465 132.317 131.617 132.253Z" fill="#FF3F20"/>
<path opacity="0.75" d="M131.617 132.253L138.978 128.008C139.354 127.817 139.774 127.73 140.195 127.758C140.616 127.786 141.021 127.927 141.368 128.166L146.268 131.899C146.412 131.982 146.53 132.103 146.608 132.249C146.687 132.395 146.723 132.56 146.712 132.726C146.701 132.891 146.643 133.05 146.546 133.185C146.449 133.319 146.316 133.424 146.163 133.486L138.806 137.731C138.431 137.923 138.01 138.009 137.59 137.981C137.169 137.954 136.763 137.813 136.416 137.573L131.517 133.84C131.374 133.757 131.257 133.636 131.18 133.49C131.102 133.345 131.066 133.18 131.077 133.016C131.087 132.851 131.143 132.692 131.239 132.558C131.334 132.423 131.465 132.317 131.617 132.253Z" fill="white"/>
<path d="M156.273 139.973L154.867 140.011L150.933 137.004C150.586 136.766 150.18 136.625 149.759 136.599C149.339 136.572 148.918 136.659 148.543 136.851L142.525 140.322L140.637 140.369V141.909C140.645 142.062 140.689 142.212 140.766 142.346C140.842 142.479 140.949 142.593 141.077 142.678L145.972 146.416C146.319 146.656 146.725 146.797 147.146 146.824C147.566 146.851 147.987 146.763 148.362 146.569L155.718 142.329C155.873 142.254 156.006 142.139 156.101 141.995C156.196 141.851 156.25 141.684 156.258 141.512L156.273 139.973Z" fill="#FF3F20"/>
<path opacity="0.1" d="M156.273 139.973L154.867 140.011L150.933 137.004C150.586 136.766 150.18 136.625 149.759 136.599C149.339 136.572 148.918 136.659 148.543 136.851L142.525 140.322L140.637 140.369V141.909C140.645 142.062 140.689 142.212 140.766 142.346C140.842 142.479 140.949 142.593 141.077 142.678L145.972 146.416C146.319 146.656 146.725 146.797 147.146 146.824C147.566 146.851 147.987 146.763 148.362 146.569L155.718 142.329C155.873 142.254 156.006 142.139 156.101 141.995C156.196 141.851 156.25 141.684 156.258 141.512L156.273 139.973Z" fill="black"/>
<path d="M141.187 139.576L148.548 135.331C148.923 135.139 149.343 135.052 149.764 135.079C150.185 135.105 150.59 135.246 150.938 135.484L155.828 139.203C155.972 139.285 156.09 139.407 156.168 139.553C156.247 139.699 156.283 139.864 156.272 140.03C156.261 140.195 156.204 140.354 156.106 140.489C156.009 140.623 155.876 140.728 155.723 140.79L148.366 145.03C147.992 145.223 147.571 145.311 147.15 145.284C146.729 145.257 146.324 145.117 145.976 144.877L141.082 141.139C140.944 141.055 140.832 140.934 140.758 140.791C140.684 140.648 140.651 140.487 140.661 140.326C140.672 140.165 140.727 140.01 140.82 139.878C140.912 139.745 141.039 139.641 141.187 139.576Z" fill="#FF3F20"/>
<path opacity="0.75" d="M141.187 139.576L148.548 135.331C148.923 135.139 149.343 135.052 149.764 135.079C150.185 135.105 150.59 135.246 150.938 135.484L155.828 139.203C155.972 139.285 156.09 139.407 156.168 139.553C156.247 139.699 156.283 139.864 156.272 140.03C156.261 140.195 156.204 140.354 156.106 140.489C156.009 140.623 155.876 140.728 155.723 140.79L148.366 145.03C147.992 145.223 147.571 145.311 147.15 145.284C146.729 145.257 146.324 145.117 145.976 144.877L141.082 141.139C140.944 141.055 140.832 140.934 140.758 140.791C140.684 140.648 140.651 140.487 140.661 140.326C140.672 140.165 140.727 140.01 140.82 139.878C140.912 139.745 141.039 139.641 141.187 139.576Z" fill="white"/>
<path d="M151.904 116.857L150.498 116.895L146.564 113.888C146.217 113.65 145.811 113.509 145.39 113.482C144.97 113.456 144.549 113.543 144.174 113.735L138.142 117.206L136.23 117.253V118.793C136.239 118.946 136.284 119.095 136.36 119.229C136.436 119.362 136.542 119.476 136.67 119.562L141.612 123.324C141.959 123.564 142.365 123.704 142.786 123.731C143.207 123.758 143.627 123.67 144.002 123.477L151.363 119.237C151.519 119.162 151.651 119.047 151.746 118.903C151.841 118.759 151.896 118.592 151.904 118.42V116.857Z" fill="#FF3F20"/>
<path opacity="0.1" d="M151.904 116.857L150.498 116.895L146.564 113.888C146.217 113.65 145.811 113.509 145.39 113.482C144.97 113.456 144.549 113.543 144.174 113.735L138.142 117.206L136.23 117.253V118.793C136.239 118.946 136.284 119.095 136.36 119.229C136.436 119.362 136.542 119.476 136.67 119.562L141.612 123.324C141.959 123.564 142.365 123.704 142.786 123.731C143.207 123.758 143.627 123.67 144.002 123.477L151.363 119.237C151.519 119.162 151.651 119.047 151.746 118.903C151.841 118.759 151.896 118.592 151.904 118.42V116.857Z" fill="black"/>
<path d="M136.818 116.441L144.179 112.196C144.554 112.004 144.974 111.916 145.395 111.943C145.816 111.97 146.222 112.11 146.569 112.349L151.464 116.087C151.606 116.17 151.723 116.291 151.801 116.437C151.879 116.582 151.914 116.747 151.904 116.912C151.893 117.076 151.837 117.235 151.742 117.37C151.646 117.504 151.515 117.61 151.363 117.674L144.002 121.914C143.627 122.107 143.207 122.195 142.786 122.168C142.365 122.141 141.959 122.001 141.612 121.761L136.708 118.023C136.565 117.94 136.449 117.819 136.372 117.673C136.295 117.527 136.26 117.362 136.271 117.198C136.283 117.033 136.34 116.875 136.436 116.741C136.533 116.607 136.665 116.503 136.818 116.441Z" fill="#FF3F20"/>
<path opacity="0.75" d="M136.818 116.441L144.179 112.196C144.554 112.004 144.974 111.916 145.395 111.943C145.816 111.97 146.222 112.11 146.569 112.349L151.464 116.087C151.606 116.17 151.723 116.291 151.801 116.437C151.879 116.582 151.914 116.747 151.904 116.912C151.893 117.076 151.837 117.235 151.742 117.37C151.646 117.504 151.515 117.61 151.363 117.674L144.002 121.914C143.627 122.107 143.207 122.195 142.786 122.168C142.365 122.141 141.959 122.001 141.612 121.761L136.708 118.023C136.565 117.94 136.449 117.819 136.372 117.673C136.295 117.527 136.26 117.362 136.271 117.198C136.283 117.033 136.34 116.875 136.436 116.741C136.533 116.607 136.665 116.503 136.818 116.441Z" fill="white"/>
<path d="M180.612 138.768L179.207 138.802L175.273 135.795C174.925 135.557 174.52 135.418 174.099 135.391C173.678 135.364 173.258 135.451 172.883 135.642L166.87 139.098L164.958 139.146V140.685C164.966 140.839 165.01 140.989 165.087 141.124C165.163 141.258 165.269 141.373 165.398 141.459L170.292 145.192C170.639 145.432 171.045 145.573 171.465 145.601C171.886 145.629 172.307 145.542 172.682 145.35L180.039 141.106C180.194 141.031 180.326 140.915 180.421 140.771C180.516 140.627 180.571 140.46 180.579 140.288L180.612 138.768Z" fill="#FF3F20"/>
<path opacity="0.1" d="M180.612 138.768L179.207 138.802L175.273 135.795C174.925 135.557 174.52 135.418 174.099 135.391C173.678 135.364 173.258 135.451 172.883 135.642L166.87 139.098L164.958 139.146V140.685C164.966 140.839 165.01 140.989 165.087 141.124C165.163 141.258 165.269 141.373 165.398 141.459L170.292 145.192C170.639 145.432 171.045 145.573 171.465 145.601C171.886 145.629 172.307 145.542 172.682 145.35L180.039 141.106C180.194 141.031 180.326 140.915 180.421 140.771C180.516 140.627 180.571 140.46 180.579 140.288L180.612 138.768Z" fill="black"/>
<path d="M165.527 138.348L172.888 134.103C173.263 133.911 173.684 133.825 174.105 133.852C174.525 133.88 174.931 134.021 175.278 134.261L180.173 137.994C180.317 138.076 180.435 138.197 180.513 138.343C180.592 138.489 180.627 138.655 180.616 138.82C180.605 138.986 180.548 139.145 180.451 139.279C180.354 139.414 180.221 139.518 180.067 139.581L172.711 143.825C172.335 144.017 171.915 144.104 171.494 144.076C171.073 144.048 170.668 143.907 170.321 143.668L165.426 139.934C165.284 139.851 165.167 139.73 165.089 139.585C165.011 139.439 164.976 139.275 164.986 139.11C164.997 138.945 165.053 138.787 165.148 138.652C165.244 138.517 165.375 138.412 165.527 138.348Z" fill="#FF3F20"/>
<path opacity="0.75" d="M165.527 138.348L172.888 134.103C173.263 133.911 173.684 133.825 174.105 133.852C174.525 133.88 174.931 134.021 175.278 134.261L180.173 137.994C180.317 138.076 180.435 138.197 180.513 138.343C180.592 138.489 180.627 138.655 180.616 138.82C180.605 138.986 180.548 139.145 180.451 139.279C180.354 139.414 180.221 139.518 180.067 139.581L172.711 143.825C172.335 144.017 171.915 144.104 171.494 144.076C171.073 144.048 170.668 143.907 170.321 143.668L165.426 139.934C165.284 139.851 165.167 139.73 165.089 139.585C165.011 139.439 164.976 139.275 164.986 139.11C164.997 138.945 165.053 138.787 165.148 138.652C165.244 138.517 165.375 138.412 165.527 138.348Z" fill="white"/>
<path d="M161.473 124.161L160.068 124.199L156.134 121.192C155.787 120.952 155.381 120.812 154.96 120.785C154.539 120.758 154.119 120.846 153.744 121.039L147.726 124.505L145.838 124.552V126.092C145.846 126.246 145.89 126.396 145.967 126.531C146.043 126.665 146.149 126.78 146.278 126.866L151.172 130.604C151.52 130.843 151.925 130.983 152.346 131.01C152.767 131.037 153.187 130.949 153.562 130.757L160.923 126.517C161.078 126.444 161.21 126.331 161.305 126.19C161.401 126.049 161.457 125.884 161.468 125.714L161.473 124.161Z" fill="#FF3F20"/>
<path opacity="0.1" d="M161.473 124.161L160.068 124.199L156.134 121.192C155.787 120.952 155.381 120.812 154.96 120.785C154.539 120.758 154.119 120.846 153.744 121.039L147.726 124.505L145.838 124.552V126.092C145.846 126.246 145.89 126.396 145.967 126.531C146.043 126.665 146.149 126.78 146.278 126.866L151.172 130.604C151.52 130.843 151.925 130.983 152.346 131.01C152.767 131.037 153.187 130.949 153.562 130.757L160.923 126.517C161.078 126.444 161.21 126.331 161.305 126.19C161.401 126.049 161.457 125.884 161.468 125.714L161.473 124.161Z" fill="black"/>
<path d="M146.387 123.74L153.749 119.5C154.124 119.308 154.544 119.22 154.965 119.247C155.385 119.274 155.791 119.414 156.139 119.653L161.033 123.391C161.176 123.474 161.293 123.595 161.37 123.741C161.448 123.886 161.484 124.051 161.473 124.215C161.463 124.38 161.407 124.539 161.311 124.673C161.216 124.808 161.085 124.913 160.933 124.978L153.572 129.218C153.197 129.41 152.776 129.498 152.356 129.471C151.935 129.444 151.529 129.303 151.182 129.065L146.268 125.327C146.126 125.242 146.01 125.12 145.934 124.973C145.858 124.826 145.824 124.661 145.837 124.496C145.849 124.331 145.907 124.173 146.004 124.04C146.102 123.906 146.234 123.802 146.387 123.74Z" fill="#FF3F20"/>
<path opacity="0.75" d="M146.387 123.74L153.749 119.5C154.124 119.308 154.544 119.22 154.965 119.247C155.385 119.274 155.791 119.414 156.139 119.653L161.033 123.391C161.176 123.474 161.293 123.595 161.37 123.741C161.448 123.886 161.484 124.051 161.473 124.215C161.463 124.38 161.407 124.539 161.311 124.673C161.216 124.808 161.085 124.913 160.933 124.978L153.572 129.218C153.197 129.41 152.776 129.498 152.356 129.471C151.935 129.444 151.529 129.303 151.182 129.065L146.268 125.327C146.126 125.242 146.01 125.12 145.934 124.973C145.858 124.826 145.824 124.661 145.837 124.496C145.849 124.331 145.907 124.173 146.004 124.04C146.102 123.906 146.234 123.802 146.387 123.74Z" fill="white"/>
<path d="M171.043 131.45L169.637 131.483L165.703 128.482C165.356 128.242 164.951 128.101 164.53 128.074C164.109 128.047 163.688 128.135 163.313 128.329L157.295 131.794L155.407 131.842V133.381C155.416 133.535 155.46 133.686 155.536 133.82C155.612 133.954 155.719 134.069 155.847 134.155L160.742 137.893C161.09 138.131 161.495 138.271 161.916 138.298C162.336 138.325 162.756 138.238 163.132 138.046L170.493 133.84C170.649 133.766 170.781 133.652 170.877 133.509C170.973 133.366 171.029 133.199 171.038 133.027L171.043 131.45Z" fill="#FF3F20"/>
<path opacity="0.1" d="M171.043 131.45L169.637 131.483L165.703 128.482C165.356 128.242 164.951 128.101 164.53 128.074C164.109 128.047 163.688 128.135 163.313 128.329L157.295 131.794L155.407 131.842V133.381C155.416 133.535 155.46 133.686 155.536 133.82C155.612 133.954 155.719 134.069 155.847 134.155L160.742 137.893C161.09 138.131 161.495 138.271 161.916 138.298C162.336 138.325 162.756 138.238 163.132 138.046L170.493 133.84C170.649 133.766 170.781 133.652 170.877 133.509C170.973 133.366 171.029 133.199 171.038 133.027L171.043 131.45Z" fill="black"/>
<path d="M155.957 131.044L163.318 126.804C163.693 126.61 164.113 126.522 164.534 126.549C164.955 126.576 165.361 126.717 165.708 126.957L170.603 130.695C170.747 130.776 170.866 130.897 170.944 131.043C171.023 131.188 171.059 131.354 171.048 131.519C171.037 131.684 170.979 131.843 170.882 131.977C170.785 132.111 170.652 132.215 170.498 132.277L163.141 136.522C162.766 136.714 162.346 136.801 161.925 136.774C161.504 136.747 161.099 136.607 160.751 136.369L155.857 132.631C155.714 132.548 155.597 132.426 155.519 132.281C155.442 132.135 155.406 131.971 155.417 131.806C155.427 131.641 155.483 131.483 155.579 131.348C155.674 131.214 155.805 131.108 155.957 131.044Z" fill="#FF3F20"/>
<path opacity="0.75" d="M155.957 131.044L163.318 126.804C163.693 126.61 164.113 126.522 164.534 126.549C164.955 126.576 165.361 126.717 165.708 126.957L170.603 130.695C170.747 130.776 170.866 130.897 170.944 131.043C171.023 131.188 171.059 131.354 171.048 131.519C171.037 131.684 170.979 131.843 170.882 131.977C170.785 132.111 170.652 132.215 170.498 132.277L163.141 136.522C162.766 136.714 162.346 136.801 161.925 136.774C161.504 136.747 161.099 136.607 160.751 136.369L155.857 132.631C155.714 132.548 155.597 132.426 155.519 132.281C155.442 132.135 155.406 131.971 155.417 131.806C155.427 131.641 155.483 131.483 155.579 131.348C155.674 131.214 155.805 131.108 155.957 131.044Z" fill="white"/>
<path d="M166.669 108.343L165.264 108.377L161.33 105.375C160.983 105.135 160.577 104.995 160.156 104.968C159.735 104.941 159.315 105.029 158.94 105.222L152.922 108.688L151.034 108.735V110.275C151.042 110.429 151.086 110.579 151.162 110.713C151.239 110.848 151.345 110.963 151.473 111.049L156.368 114.787C156.716 115.026 157.121 115.166 157.542 115.193C157.963 115.22 158.383 115.132 158.758 114.94L166.114 110.695C166.27 110.621 166.403 110.507 166.499 110.364C166.595 110.221 166.65 110.055 166.659 109.883L166.669 108.343Z" fill="#FF3F20"/>
<path opacity="0.1" d="M166.669 108.343L165.264 108.377L161.33 105.375C160.983 105.135 160.577 104.995 160.156 104.968C159.735 104.941 159.315 105.029 158.94 105.222L152.922 108.688L151.034 108.735V110.275C151.042 110.429 151.086 110.579 151.162 110.713C151.239 110.848 151.345 110.963 151.473 111.049L156.368 114.787C156.716 115.026 157.121 115.166 157.542 115.193C157.963 115.22 158.383 115.132 158.758 114.94L166.114 110.695C166.27 110.621 166.403 110.507 166.499 110.364C166.595 110.221 166.65 110.055 166.659 109.883L166.669 108.343Z" fill="black"/>
<path d="M151.583 107.923L158.945 103.683C159.319 103.49 159.74 103.402 160.161 103.429C160.582 103.455 160.987 103.596 161.335 103.836L166.229 107.574C166.374 107.655 166.492 107.776 166.571 107.922C166.649 108.068 166.685 108.233 166.674 108.398C166.663 108.563 166.606 108.722 166.509 108.856C166.411 108.991 166.278 109.094 166.124 109.156L158.768 113.401C158.393 113.593 157.972 113.68 157.552 113.654C157.131 113.627 156.725 113.486 156.378 113.248L151.483 109.51C151.34 109.427 151.224 109.306 151.146 109.16C151.068 109.014 151.033 108.85 151.043 108.685C151.053 108.521 151.11 108.362 151.205 108.227C151.3 108.093 151.431 107.987 151.583 107.923Z" fill="#FF3F20"/>
<path opacity="0.75" d="M151.583 107.923L158.945 103.683C159.319 103.49 159.74 103.402 160.161 103.429C160.582 103.455 160.987 103.596 161.335 103.836L166.229 107.574C166.374 107.655 166.492 107.776 166.571 107.922C166.649 108.068 166.685 108.233 166.674 108.398C166.663 108.563 166.606 108.722 166.509 108.856C166.411 108.991 166.278 109.094 166.124 109.156L158.768 113.401C158.393 113.593 157.972 113.68 157.552 113.654C157.131 113.627 156.725 113.486 156.378 113.248L151.483 109.51C151.34 109.427 151.224 109.306 151.146 109.16C151.068 109.014 151.033 108.85 151.043 108.685C151.053 108.521 151.11 108.362 151.205 108.227C151.3 108.093 151.431 107.987 151.583 107.923Z" fill="white"/>
<path d="M195.378 130.25L193.972 130.288L190.038 127.282C189.691 127.042 189.286 126.901 188.865 126.874C188.444 126.847 188.023 126.935 187.648 127.129L181.64 130.594L179.752 130.642V132.181C179.759 132.336 179.803 132.487 179.879 132.621C179.956 132.756 180.063 132.87 180.192 132.956L185.086 136.708C185.433 136.948 185.839 137.088 186.26 137.115C186.681 137.142 187.101 137.054 187.476 136.861L194.838 132.621C194.993 132.546 195.125 132.431 195.22 132.287C195.315 132.143 195.37 131.976 195.378 131.804V130.25Z" fill="#FF3F20"/>
<path opacity="0.1" d="M195.378 130.25L193.972 130.288L190.038 127.282C189.691 127.042 189.286 126.901 188.865 126.874C188.444 126.847 188.023 126.935 187.648 127.129L181.64 130.594L179.752 130.642V132.181C179.759 132.336 179.803 132.487 179.879 132.621C179.956 132.756 180.063 132.87 180.192 132.956L185.086 136.708C185.433 136.948 185.839 137.088 186.26 137.115C186.681 137.142 187.101 137.054 187.476 136.861L194.838 132.621C194.993 132.546 195.125 132.431 195.22 132.287C195.315 132.143 195.37 131.976 195.378 131.804V130.25Z" fill="black"/>
<path d="M180.292 129.83L187.653 125.59C188.028 125.397 188.449 125.31 188.869 125.337C189.29 125.364 189.696 125.504 190.043 125.743L194.938 129.481C195.082 129.563 195.2 129.684 195.278 129.83C195.357 129.976 195.393 130.141 195.382 130.307C195.371 130.473 195.313 130.632 195.216 130.766C195.119 130.901 194.986 131.005 194.833 131.068L187.472 135.307C187.097 135.501 186.676 135.589 186.255 135.562C185.834 135.535 185.429 135.394 185.082 135.154L180.206 131.417C180.063 131.335 179.945 131.215 179.866 131.07C179.787 130.925 179.75 130.761 179.759 130.596C179.768 130.432 179.823 130.273 179.917 130.137C180.011 130.002 180.141 129.895 180.292 129.83Z" fill="#FF3F20"/>
<path opacity="0.75" d="M180.292 129.83L187.653 125.59C188.028 125.397 188.449 125.31 188.869 125.337C189.29 125.364 189.696 125.504 190.043 125.743L194.938 129.481C195.082 129.563 195.2 129.684 195.278 129.83C195.357 129.976 195.393 130.141 195.382 130.307C195.371 130.473 195.313 130.632 195.216 130.766C195.119 130.901 194.986 131.005 194.833 131.068L187.472 135.307C187.097 135.501 186.676 135.589 186.255 135.562C185.834 135.535 185.429 135.394 185.082 135.154L180.206 131.417C180.063 131.335 179.945 131.215 179.866 131.07C179.787 130.925 179.75 130.761 179.759 130.596C179.768 130.432 179.823 130.273 179.917 130.137C180.011 130.002 180.141 129.895 180.292 129.83Z" fill="white"/>
<path d="M185.808 122.946L184.403 122.985L180.469 119.978C180.121 119.739 179.716 119.599 179.295 119.572C178.874 119.545 178.454 119.633 178.079 119.825L172.08 123.295L170.168 123.343V124.882C170.176 125.036 170.22 125.186 170.296 125.319C170.373 125.453 170.479 125.567 170.608 125.652L175.502 129.39C175.849 129.63 176.255 129.772 176.676 129.799C177.097 129.826 177.518 129.737 177.892 129.543L185.254 125.303C185.409 125.228 185.541 125.113 185.636 124.969C185.731 124.825 185.786 124.658 185.794 124.486L185.808 122.946Z" fill="#FF3F20"/>
<path opacity="0.1" d="M185.808 122.946L184.403 122.985L180.469 119.978C180.121 119.739 179.716 119.599 179.295 119.572C178.874 119.545 178.454 119.633 178.079 119.825L172.08 123.295L170.168 123.343V124.882C170.176 125.036 170.22 125.186 170.296 125.319C170.373 125.453 170.479 125.567 170.608 125.652L175.502 129.39C175.849 129.63 176.255 129.772 176.676 129.799C177.097 129.826 177.518 129.737 177.892 129.543L185.254 125.303C185.409 125.228 185.541 125.113 185.636 124.969C185.731 124.825 185.786 124.658 185.794 124.486L185.808 122.946Z" fill="black"/>
<path d="M170.722 122.531L178.084 118.286C178.459 118.093 178.879 118.006 179.3 118.033C179.72 118.06 180.126 118.2 180.474 118.439L185.368 122.177C185.512 122.259 185.63 122.38 185.709 122.526C185.787 122.672 185.823 122.838 185.812 123.003C185.801 123.169 185.744 123.328 185.647 123.462C185.55 123.597 185.417 123.701 185.263 123.764L177.902 128.004C177.527 128.198 177.107 128.287 176.686 128.26C176.265 128.233 175.859 128.091 175.512 127.851L170.646 124.113C170.502 124.032 170.384 123.914 170.304 123.77C170.224 123.626 170.186 123.462 170.194 123.298C170.202 123.133 170.255 122.974 170.349 122.839C170.442 122.703 170.572 122.597 170.722 122.531Z" fill="#FF3F20"/>
<path opacity="0.75" d="M170.722 122.531L178.084 118.286C178.459 118.093 178.879 118.006 179.3 118.033C179.72 118.06 180.126 118.2 180.474 118.439L185.368 122.177C185.512 122.259 185.63 122.38 185.709 122.526C185.787 122.672 185.823 122.838 185.812 123.003C185.801 123.169 185.744 123.328 185.647 123.462C185.55 123.597 185.417 123.701 185.263 123.764L177.902 128.004C177.527 128.198 177.107 128.287 176.686 128.26C176.265 128.233 175.859 128.091 175.512 127.851L170.646 124.113C170.502 124.032 170.384 123.914 170.304 123.77C170.224 123.626 170.186 123.462 170.194 123.298C170.202 123.133 170.255 122.974 170.349 122.839C170.442 122.703 170.572 122.597 170.722 122.531Z" fill="white"/>
<path d="M176.239 115.647L174.833 115.681L170.899 112.679C170.552 112.44 170.147 112.298 169.726 112.271C169.305 112.243 168.885 112.329 168.509 112.521L162.52 115.991L160.632 116.039V117.588C160.64 117.742 160.684 117.893 160.76 118.027C160.837 118.162 160.943 118.276 161.072 118.362L165.966 122.096C166.313 122.335 166.719 122.476 167.14 122.504C167.56 122.532 167.981 122.445 168.356 122.253L175.713 118.009C175.867 117.934 175.999 117.819 176.094 117.676C176.189 117.533 176.244 117.368 176.253 117.196L176.239 115.647Z" fill="#FF3F20"/>
<path opacity="0.1" d="M176.239 115.647L174.833 115.681L170.899 112.679C170.552 112.44 170.147 112.298 169.726 112.271C169.305 112.243 168.885 112.329 168.509 112.521L162.52 115.991L160.632 116.039V117.588C160.64 117.742 160.684 117.893 160.76 118.027C160.837 118.162 160.943 118.276 161.072 118.362L165.966 122.096C166.313 122.335 166.719 122.476 167.14 122.504C167.56 122.532 167.981 122.445 168.356 122.253L175.713 118.009C175.867 117.934 175.999 117.819 176.094 117.676C176.189 117.533 176.244 117.368 176.253 117.196L176.239 115.647Z" fill="black"/>
<path d="M161.153 115.227L168.514 110.982C168.89 110.79 169.31 110.704 169.731 110.731C170.152 110.759 170.557 110.9 170.904 111.14L175.799 114.873C175.943 114.955 176.061 115.076 176.139 115.222C176.218 115.369 176.254 115.534 176.243 115.699C176.232 115.865 176.174 116.024 176.077 116.158C175.98 116.293 175.847 116.397 175.694 116.46L168.337 120.705C167.962 120.896 167.541 120.983 167.12 120.955C166.7 120.927 166.294 120.786 165.947 120.547L161.052 116.814C160.91 116.731 160.793 116.609 160.715 116.464C160.638 116.318 160.602 116.154 160.612 115.989C160.623 115.824 160.679 115.666 160.774 115.531C160.87 115.396 161.001 115.291 161.153 115.227Z" fill="#FF3F20"/>
<path opacity="0.75" d="M161.153 115.227L168.514 110.982C168.89 110.79 169.31 110.704 169.731 110.731C170.152 110.759 170.557 110.9 170.904 111.14L175.799 114.873C175.943 114.955 176.061 115.076 176.139 115.222C176.218 115.369 176.254 115.534 176.243 115.699C176.232 115.865 176.174 116.024 176.077 116.158C175.98 116.293 175.847 116.397 175.694 116.46L168.337 120.705C167.962 120.896 167.541 120.983 167.12 120.955C166.7 120.927 166.294 120.786 165.947 120.547L161.052 116.814C160.91 116.731 160.793 116.609 160.715 116.464C160.638 116.318 160.602 116.154 160.612 115.989C160.623 115.824 160.679 115.666 160.774 115.531C160.87 115.396 161.001 115.291 161.153 115.227Z" fill="white"/>
<path d="M57.6755 70.4763V65.1753C57.6705 63.8614 57.145 62.6031 56.2142 61.6759C55.2833 60.7486 54.023 60.228 52.7091 60.228V65.529C52.7142 66.8429 53.2396 68.1012 54.1705 69.0285C55.1013 69.9557 56.3617 70.4763 57.6755 70.4763Z" fill="#263238"/>
<path d="M73.8319 113.993L57.9575 105.93L59.3915 132.602L75.2659 140.666L73.8319 113.993Z" fill="#FF3F20"/>
<path opacity="0.5" d="M73.8319 113.993L57.9575 105.93L59.3915 132.602L75.2659 140.666L73.8319 113.993Z" fill="white"/>
<path d="M75.2658 140.666L82.7274 135.809L76.8193 112.053L73.8318 113.993L75.2658 140.666Z" fill="#FF3F20"/>
<path d="M82.7274 135.809L77.6606 135.427L75.2659 140.666L82.7274 135.809Z" fill="#FF3F20"/>
<path opacity="0.3" d="M82.7274 135.809L77.6606 135.427L75.2659 140.666L82.7274 135.809Z" fill="black"/>
<path d="M77.6607 135.427L73.7363 112.215L73.8319 113.993L75.2659 140.666L77.6607 135.427Z" fill="#FF3F20"/>
<path opacity="0.1" d="M77.6607 135.427L73.7363 112.215L73.8319 113.993L75.2659 140.666L77.6607 135.427Z" fill="black"/>
<path d="M57.9575 105.93L61.0358 105.767L60.9402 103.989L76.8194 112.053L73.7363 112.215L73.8319 113.993L57.9575 105.93Z" fill="#FF3F20"/>
<path d="M68.7985 113.066C68.7985 113.291 68.6551 113.396 68.4496 113.291C68.3417 113.228 68.2501 113.141 68.182 113.036C68.1139 112.932 68.0713 112.813 68.0576 112.689C68.0576 112.459 68.201 112.359 68.4066 112.459C68.5145 112.523 68.6062 112.611 68.6742 112.716C68.7422 112.822 68.7848 112.941 68.7985 113.066Z" fill="#455A64"/>
<path d="M64.0519 110.695C64.0519 110.925 63.9085 111.03 63.703 110.925C63.5959 110.861 63.5048 110.774 63.4368 110.669C63.3689 110.565 63.3258 110.446 63.311 110.322C63.311 110.093 63.4544 109.993 63.66 110.093C63.7681 110.155 63.8599 110.243 63.928 110.347C63.9962 110.452 64.0386 110.571 64.0519 110.695Z" fill="#455A64"/>
<path d="M71.7 111.178C71.7 111.407 71.5566 111.508 71.3511 111.403C71.2427 111.34 71.1507 111.253 71.0825 111.149C71.0144 111.044 70.9721 110.925 70.9591 110.8C70.9591 110.571 71.1025 110.471 71.308 110.576C71.4164 110.638 71.5085 110.725 71.5766 110.83C71.6448 110.934 71.687 111.054 71.7 111.178Z" fill="#455A64"/>
<path d="M66.9822 108.783C66.9822 109.013 66.8388 109.113 66.6333 109.013C66.5246 108.95 66.4323 108.862 66.3642 108.756C66.2961 108.651 66.2539 108.531 66.2413 108.406C66.2413 108.176 66.3847 108.076 66.5903 108.181C66.6981 108.244 66.7898 108.331 66.8579 108.435C66.9259 108.54 66.9685 108.659 66.9822 108.783Z" fill="#455A64"/>
<path d="M76.8194 112.053L73.7363 112.215L77.6607 135.427L82.7275 135.809L76.8194 112.053Z" fill="#FF3F20"/>
<path opacity="0.2" d="M76.8194 112.053L73.7363 112.215L77.6607 135.427L82.7275 135.809L76.8194 112.053Z" fill="black"/>
<path d="M60.9402 103.989L61.0358 105.767L61.1314 107.545L61.9392 107.952L60.9402 103.989Z" fill="#FF3F20"/>
<path opacity="0.2" d="M60.9402 103.989L61.0358 105.767L61.1314 107.545L61.9392 107.952L60.9402 103.989Z" fill="black"/>
<path d="M53.8037 64.5778C55.9452 64.4631 60.2806 64.6447 61.8676 70.7918C63.206 75.9542 66.8244 87.2541 67.7661 92.2731C68.4831 96.0971 69.4678 98.7739 69.6112 101.441C69.3435 102.813 68.2489 104.309 65.2375 104.787C62.3695 104.027 62.8714 103.554 62.6706 101.011C62.4699 98.468 63.7796 97.7414 63.3637 94.7252C62.4938 88.3917 56.8247 75.1942 56.8247 75.1942L53.8037 64.5778Z" fill="#B16668"/>
<path d="M71.3271 111.216C71.276 111.215 71.2266 111.198 71.1868 111.166C71.1469 111.134 71.1189 111.089 71.1072 111.039C71.1072 111.006 70.3998 107.904 69.6111 105.552C68.9897 103.702 67.6226 103.286 66.4228 102.918C66.1552 102.837 65.9018 102.76 65.6724 102.674C65.6169 102.651 65.5726 102.607 65.5485 102.552C65.5245 102.497 65.5226 102.435 65.5433 102.378C65.5539 102.35 65.57 102.324 65.5907 102.302C65.6113 102.28 65.6362 102.262 65.6637 102.25C65.6912 102.237 65.721 102.23 65.7512 102.229C65.7814 102.228 65.8114 102.233 65.8397 102.244C66.0596 102.33 66.3177 102.402 66.5567 102.483C67.7995 102.861 69.3482 103.334 70.0461 105.409C70.8396 107.799 71.547 110.906 71.5518 110.939C71.5588 110.968 71.5599 110.999 71.555 111.028C71.5501 111.058 71.5394 111.086 71.5233 111.112C71.5073 111.137 71.4863 111.159 71.4616 111.176C71.437 111.193 71.4091 111.205 71.3797 111.211L71.3271 111.216Z" fill="#263238"/>
<path d="M67.6083 98.7739C67.137 99.6622 66.785 100.609 66.5615 101.589C66.485 102.12 65.6055 101.704 65.4286 101.016C65.2874 99.9175 65.2266 98.8103 65.247 97.7032C65.247 97.7032 64.8359 99.8207 65.0606 100.829C65.2852 101.838 65.5386 102.039 66.2747 102.263C67.0108 102.488 66.8961 101.838 67.0682 100.997C67.2402 100.155 67.6083 98.7739 67.6083 98.7739Z" fill="#9A4A4D"/>
<path d="M68.158 112.755L67.8282 106.594C67.7613 105.236 67.68 103.693 65.3904 102.517C64.5874 102.106 63.9946 101.986 63.7126 102.187C63.4306 102.388 63.5023 102.885 63.5023 102.889L63.9086 110.451C63.9007 110.506 63.8733 110.556 63.8316 110.592C63.79 110.628 63.7367 110.648 63.6815 110.648C63.6264 110.648 63.5731 110.628 63.5314 110.592C63.4897 110.556 63.4624 110.506 63.4545 110.451L63.0482 102.913C63.0171 102.709 63.037 102.499 63.1063 102.304C63.1755 102.109 63.2918 101.934 63.4449 101.795C63.8895 101.475 64.5969 101.57 65.6007 102.086C68.1246 103.387 68.2154 105.136 68.2823 106.546L68.6169 112.698C68.6195 112.759 68.5979 112.819 68.5568 112.865C68.5157 112.911 68.4583 112.938 68.397 112.942C68.3413 112.945 68.2863 112.928 68.2423 112.894C68.1984 112.859 68.1684 112.81 68.158 112.755Z" fill="#263238"/>
<path d="M66.6093 108.755C66.5582 108.754 66.5088 108.736 66.469 108.704C66.4291 108.672 66.4011 108.627 66.3894 108.578L65.3713 103.97C65.365 103.94 65.3645 103.91 65.37 103.88C65.3755 103.85 65.3868 103.822 65.4032 103.797C65.4196 103.772 65.4409 103.75 65.4658 103.733C65.4906 103.716 65.5186 103.704 65.5481 103.697C65.6076 103.686 65.6692 103.698 65.72 103.731C65.7708 103.764 65.8069 103.815 65.8206 103.874L66.834 108.477C66.841 108.507 66.8421 108.537 66.8372 108.566C66.8323 108.596 66.8215 108.624 66.8055 108.65C66.7895 108.675 66.7685 108.697 66.7438 108.714C66.7191 108.732 66.6913 108.744 66.6619 108.75L66.6093 108.755Z" fill="#263238"/>
<path d="M65.0654 102.364C64.2002 101.838 62.5177 101.068 62.1257 101.537C61.7338 102.005 61.2319 103.927 63.1821 104.606C64.4817 104.967 65.8683 104.849 67.0874 104.271L65.0654 102.364Z" fill="#9A4A4D"/>
<path d="M50.668 61.423H48.799C46.2635 61.423 43.8319 60.4158 42.0391 58.6229C40.2462 56.8301 39.239 54.3985 39.239 51.863C39.239 49.1564 40.3142 46.5606 42.2281 44.6467C44.1419 42.7329 46.7377 41.6577 49.4443 41.6577H50.0418C52.7435 41.6627 55.3329 42.7389 57.2423 44.6501C59.1518 46.5614 60.2255 49.1518 60.228 51.8534C60.2293 53.1097 59.9829 54.3538 59.503 55.5148C59.0232 56.6758 58.3192 57.7308 57.4313 58.6195C56.5435 59.5083 55.4892 60.2133 54.3287 60.6944C53.1682 61.1754 51.9242 61.423 50.668 61.423Z" fill="#263238"/>
<path d="M40.563 44.344C40.9202 44.4156 41.2345 44.6258 41.437 44.9287C41.6395 45.2315 41.7137 45.6022 41.6433 45.9597L38.9474 45.41C39.0222 45.0554 39.2338 44.7447 39.5362 44.5451C39.8387 44.3456 40.2076 44.2733 40.563 44.344Z" fill="#263238"/>
<path d="M42.3222 43.7609C42.3781 43.9323 42.3998 44.113 42.3858 44.2927C42.3719 44.4724 42.3227 44.6477 42.241 44.8084C42.1593 44.9691 42.0468 45.1121 41.9098 45.2293C41.7728 45.3465 41.6141 45.4355 41.4426 45.4913L40.5918 42.8766C40.7635 42.8208 40.9445 42.7993 41.1244 42.8136C41.3044 42.8278 41.4798 42.8774 41.6405 42.9596C41.8013 43.0417 41.9442 43.1548 42.0612 43.2923C42.1782 43.4298 42.2669 43.5891 42.3222 43.7609Z" fill="#263238"/>
<path d="M55.8065 169.69C55.1803 169.212 54.4729 168.763 53.9232 168.256C52.7043 167.142 52.3315 164.322 52.2406 163.371C52.1474 162.561 52.1394 161.744 52.2167 160.933C52.4605 159.021 53.8658 154.819 53.8658 154.819C53.8658 154.819 49.3392 151.841 49.2723 151.88C49.2053 151.918 48.4549 157.353 47.714 158.242C46.8153 159.031 46.0458 159.25 45.5391 160.293C45.0945 161.578 45.2762 162.271 45.9597 163.61C46.465 164.769 46.8401 165.981 47.0782 167.224C47.4654 168.791 47.3029 171.358 51.1986 172.142C53.2636 172.558 54.6928 172.281 55.6775 171.841C56.7864 171.349 56.7769 170.421 55.8065 169.69Z" fill="#B16668"/>
<path d="M45.5391 160.297C45.0945 161.583 45.2762 162.276 45.9597 163.615C46.465 164.774 46.8401 165.986 47.0782 167.228C47.4654 168.796 47.3029 171.363 51.1986 172.147C53.2636 172.563 54.6928 172.286 55.6775 171.846C56.7864 171.368 56.7769 170.412 55.8065 169.69C55.3285 169.317 54.774 168.959 54.3008 168.576C54.8171 169.504 52.3362 169.723 50.907 168.868C49.4778 168.012 47.6949 161.985 47.518 160.637C47.4108 159.835 47.4777 159.02 47.714 158.247C47.7666 158.175 47.8335 158.07 47.8335 158.07C47.8335 158.07 47.6805 158.008 47.518 158.132C46.6924 158.682 46.0132 159.426 45.5391 160.297Z" fill="#263238"/>
<path d="M60.5817 91.384C61.2795 99.032 63.3923 125.265 62.8235 130.207C62.5701 132.449 53.0675 157.401 53.0675 157.401C53.0675 157.401 50.7492 158.113 48.5647 155.637C49.6928 144.91 50.7731 133.419 53.1153 129.858C52.6708 126.168 48.0676 107.784 48.0676 107.784L60.5817 91.384Z" fill="#37474F"/>
<path d="M43.4359 165.942V165.268C43.7035 166.057 44.9416 169.47 46.8153 171.177C48.3019 172.539 50.3334 174.107 50.8496 175.622C51.3659 177.137 48.0247 177.725 46.6337 177.477C45.0133 177.195 42.9244 176.277 41.7868 174.876C40.9837 173.892 40.4723 172.725 39.9034 171.951C39.3346 171.177 37.9914 170.316 37.7046 169.422C37.5326 168.944 37.7381 167.85 37.9723 166.941C38.2065 166.033 38.4503 165.187 38.718 165.268V165.78C39.0574 166.162 40.0086 166.54 41.0745 166.578C41.7676 166.607 43.4454 166.468 43.4359 165.942Z" fill="#263238"/>
<path d="M48.1633 172.372C47.6853 171.96 47.236 171.559 46.8153 171.172C45.5056 169.982 44.5066 167.955 43.9473 166.573C43.627 165.784 43.4646 164.94 43.4693 164.088V161.397H38.718V165.775V165.89C38.9427 166.87 41.108 169.48 42.3413 171.181C43.1682 172.324 44.7313 173.772 46.6098 174.025C48.4071 174.279 49.3153 173.72 48.1633 172.372Z" fill="#B16668"/>
<path d="M39.6739 92.5551C36.0125 100.552 39.8078 128.716 39.8078 128.716C39.6978 130.016 38.2113 132.569 37.6616 138.276C37.0067 145.02 38.6845 161.965 38.6845 161.965C39.4053 162.385 40.2179 162.621 41.0513 162.654C41.8846 162.686 42.7132 162.514 43.4645 162.152C43.4645 162.152 47.9672 136.636 48.8133 129.93C49.5494 124.074 51.5761 106.063 51.5761 106.063L60.6103 91.3792L39.6739 92.5551Z" fill="#37474F"/>
<path d="M47.4606 64.6734L42.5419 64.9076C41.868 65.1179 40.0563 66.8196 39.3441 69.4247C38.8341 71.5693 38.9485 73.8151 39.6739 75.8968L42.9434 85.3564C42.9434 85.3564 41.4138 89.0609 39.6357 92.5551C47.8429 97.1391 58.0913 94.73 60.5625 91.384C60.6629 90.6766 60.5243 87.4788 60.7203 83.846C60.9354 79.9646 61.466 75.5861 60.8589 73.1913C59.726 68.7412 57.6037 64.5634 53.383 64.5634L47.4606 64.6734Z" fill="#FF3F20"/>
<path d="M56.7673 45.888C57.8763 46.5428 59.2481 49.3343 59.1143 55.1851C58.9996 60.1419 57.3887 61.3656 56.5857 61.7193C55.7826 62.073 54.2196 61.858 52.7091 61.6046V64.5826C52.7091 64.5826 54.798 67.0108 54.6689 68.3731C54.5398 69.7354 51.6479 70.0604 49.6929 68.7268C48.4237 67.8206 47.3344 66.6859 46.4808 65.3808V58.794C46.0367 58.9523 45.5616 59.0036 45.094 58.9438C44.6264 58.884 44.1795 58.7148 43.7896 58.4498C42.1071 57.36 42.064 54.5828 43.02 53.5981C43.976 52.6134 46.084 52.9241 46.476 54.2864C46.476 54.2864 48.8899 54.3725 52.102 52.6086C53.3536 51.9345 54.4284 50.9745 55.239 49.8067C56.0497 48.6389 56.5733 47.2963 56.7673 45.888Z" fill="#B16668"/>
<path d="M53.7894 54.014C53.7912 54.137 53.7566 54.2578 53.6902 54.3613C53.6237 54.4648 53.5282 54.5464 53.4157 54.596C53.3031 54.6456 53.1784 54.6609 53.0572 54.64C52.936 54.6192 52.8236 54.5631 52.734 54.4788C52.6445 54.3945 52.5817 54.2857 52.5537 54.1659C52.5256 54.0461 52.5334 53.9208 52.5761 53.8054C52.6188 53.6901 52.6946 53.5899 52.7939 53.5173C52.8932 53.4447 53.0117 53.403 53.1345 53.3974C53.218 53.3948 53.3012 53.4088 53.3793 53.4384C53.4574 53.468 53.5289 53.5127 53.5898 53.57C53.6506 53.6273 53.6995 53.6959 53.7338 53.7721C53.768 53.8483 53.7869 53.9305 53.7894 54.014Z" fill="#263238"/>
<path d="M53.7415 58.1535L55.1755 58.6315C55.1499 58.7303 55.1043 58.8228 55.0416 58.9032C54.9788 58.9837 54.9001 59.0504 54.8105 59.0993C54.7209 59.1481 54.6222 59.178 54.5205 59.1872C54.4189 59.1964 54.3164 59.1845 54.2195 59.1525C54.0261 59.0801 53.8682 58.9356 53.7791 58.7494C53.69 58.5631 53.6765 58.3495 53.7415 58.1535Z" fill="#9A4A4D"/>
<path d="M58.6889 52.0351L57.427 51.146C57.4798 51.061 57.5493 50.9877 57.6313 50.9305C57.7134 50.8733 57.8062 50.8334 57.9042 50.8133C58.0021 50.7932 58.1032 50.7932 58.2011 50.8134C58.299 50.8337 58.3918 50.8736 58.4738 50.9309C58.6462 51.0509 58.765 51.2332 58.8052 51.4394C58.8453 51.6455 58.8036 51.8591 58.6889 52.0351Z" fill="#263238"/>
<path d="M58.5072 53.9088C58.5089 54.0318 58.4744 54.1526 58.4079 54.2561C58.3415 54.3596 58.246 54.4412 58.1334 54.4908C58.0209 54.5404 57.8962 54.5557 57.775 54.5348C57.6538 54.514 57.5413 54.4579 57.4518 54.3736C57.3622 54.2893 57.2995 54.1805 57.2714 54.0607C57.2433 53.9409 57.2511 53.8156 57.2939 53.7002C57.3366 53.5849 57.4123 53.4847 57.5116 53.4121C57.611 53.3395 57.7294 53.2978 57.8523 53.2922C58.0206 53.2883 58.1836 53.3508 58.3062 53.4662C58.4287 53.5816 58.5009 53.7406 58.5072 53.9088Z" fill="#263238"/>
<path d="M55.4575 53.1393L55.5579 56.8963L57.532 56.2845L55.4575 53.1393Z" fill="#9A4A4D"/>
<path d="M52.709 61.6142C51.1124 61.4086 47.8334 60.4622 47.3219 59.1668C47.5268 59.8234 47.929 60.4009 48.4739 60.8207C49.4299 61.662 52.709 62.6084 52.709 62.6084V61.6142Z" fill="#9A4A4D"/>
<path d="M51.7148 122.97L50.3094 116.957L51.5475 106.068C51.5475 106.068 55.4432 104.601 57.5081 101.585C56.5883 103.783 55.0529 105.668 53.0866 107.015L50.9643 116.928L51.7148 122.97Z" fill="#263238"/>
<path d="M47.9673 111.264L30.8788 101.398L27.4611 130.174L44.5496 140.04L47.9673 111.264Z" fill="#FF3F20"/>
<path opacity="0.5" d="M47.9673 111.264L30.8788 101.398L27.4611 130.174L44.5496 140.04L47.9673 111.264Z" fill="white"/>
<path d="M53.0914 135.107L47.9673 134.117L44.5496 140.04L53.0914 135.107Z" fill="#FF3F20"/>
<path opacity="0.3" d="M53.0914 135.107L47.9673 134.117L44.5496 140.04L53.0914 135.107Z" fill="black"/>
<path d="M47.9673 134.117L49.6737 108.305L47.9673 111.264L44.5496 140.04L47.9673 134.117Z" fill="#FF3F20"/>
<path opacity="0.1" d="M47.9673 134.117L49.6737 108.305L47.9673 111.264L44.5496 140.04L47.9673 134.117Z" fill="black"/>
<path d="M30.8788 101.398L36.0029 100.413V98.4393L53.0914 108.305H49.6737L47.9673 111.264L30.8788 101.398Z" fill="#FF3F20"/>
<path d="M41.6911 110.982C41.6911 111.235 41.5094 111.336 41.2896 111.211C41.174 111.135 41.0779 111.032 41.009 110.912C40.9401 110.792 40.9003 110.657 40.8928 110.518C40.8928 110.265 41.0697 110.16 41.2896 110.289C41.4063 110.365 41.5035 110.467 41.5733 110.587C41.6431 110.708 41.6834 110.843 41.6911 110.982Z" fill="#455A64"/>
<path d="M36.6817 107.799C36.6817 108.057 36.5048 108.157 36.2802 108.033C36.1646 107.956 36.0685 107.854 35.9996 107.733C35.9307 107.613 35.8909 107.478 35.8834 107.34C35.8834 107.086 36.0603 106.981 36.2802 107.11C36.3974 107.184 36.495 107.286 36.5649 107.405C36.6348 107.525 36.6748 107.66 36.6817 107.799Z" fill="#455A64"/>
<path d="M46.997 107.55C46.997 107.803 46.8201 107.908 46.6002 107.779C46.4839 107.704 46.3868 107.603 46.3171 107.483C46.2473 107.364 46.2067 107.229 46.1987 107.091C46.1987 106.833 46.3804 106.733 46.6002 106.857C46.7158 106.933 46.8119 107.036 46.8808 107.156C46.9497 107.277 46.9895 107.412 46.997 107.55Z" fill="#455A64"/>
<path d="M41.9301 104.72C41.9301 104.974 41.7485 105.079 41.5286 104.95C41.4128 104.874 41.3165 104.773 41.2476 104.653C41.1786 104.534 41.1389 104.399 41.1318 104.261C41.1318 104.008 41.3087 103.903 41.5286 104.032C41.645 104.107 41.742 104.208 41.8118 104.328C41.8815 104.448 41.9221 104.582 41.9301 104.72Z" fill="#455A64"/>
<path d="M53.0914 108.305H49.6737L47.9673 134.117L53.0914 135.107V108.305Z" fill="#FF3F20"/>
<path d="M36.0029 100.413V104.357L30.8788 101.398L36.0029 100.413Z" fill="#FF3F20"/>
<path opacity="0.2" d="M53.0914 108.305H49.6737L47.9673 134.117L53.0914 135.107V108.305Z" fill="black"/>
<path opacity="0.2" d="M36.0029 100.413V104.357L30.8788 101.398L36.0029 100.413Z" fill="black"/>
<path d="M36.2802 107.722C36.2503 107.729 36.2192 107.729 36.1893 107.722C36.1317 107.696 36.0862 107.649 36.0622 107.59C36.0382 107.531 36.0375 107.466 36.0603 107.407L40.4101 97.1152C40.4354 97.0568 40.4825 97.0105 40.5415 96.9864C40.6005 96.9623 40.6665 96.9622 40.7255 96.9862C40.7832 97.0124 40.8287 97.0597 40.8527 97.1183C40.8767 97.177 40.8774 97.2425 40.8546 97.3017L36.5048 107.593C36.4829 107.633 36.4503 107.666 36.4106 107.689C36.371 107.712 36.3258 107.723 36.2802 107.722Z" fill="#263238"/>
<path d="M41.5287 104.682C41.4653 104.682 41.4045 104.657 41.3597 104.612C41.3149 104.567 41.2897 104.506 41.2897 104.443V97.3208C41.2897 97.2574 41.3149 97.1966 41.3597 97.1518C41.4045 97.107 41.4653 97.0818 41.5287 97.0818C41.5921 97.0818 41.6529 97.107 41.6977 97.1518C41.7425 97.1966 41.7677 97.2574 41.7677 97.3208V104.448C41.7664 104.51 41.7407 104.57 41.696 104.614C41.6513 104.657 41.5912 104.682 41.5287 104.682Z" fill="#263238"/>
<path d="M33.4601 86.2694L40.0899 76.9915C41.1458 75.9237 41.9408 74.6265 42.413 73.2009C43.5698 69.5347 43.7514 67.3837 42.5373 64.9076C39.8414 64.9076 38.264 65.1801 35.2 70.3664C32.7 74.5967 28.986 81.8097 28.0778 83.368C26.9449 85.28 26.6151 85.8106 27.5998 87.7034C28.5845 89.5963 32.2937 94.4576 35.4151 98.1143C38.5364 101.771 40.3624 103.004 42.695 103.544C45.0277 104.085 46.0697 103.63 47.3842 102.421C48.6987 101.212 47.7714 100.136 46.5477 99.8542C45.387 99.6034 44.28 99.1486 43.2782 98.511C42.5373 97.9757 42.3222 97.555 42.9962 97.5263C43.8852 97.4881 44.717 97.3112 44.9464 96.6898C45.2332 95.9107 44.4971 96.121 43.4789 95.8055C42.1636 95.406 40.8097 95.1464 39.4398 95.0312C37.7621 95.122 33.4601 86.2694 33.4601 86.2694Z" fill="#B16668"/>
<path d="M45.8259 60.1563H46.4808V66.3703C46.4808 67.5734 46.0028 68.7272 45.1521 69.5779C44.3014 70.4286 43.1476 70.9065 41.9445 70.9065H41.2897V64.6925C41.2897 63.4894 41.7676 62.3356 42.6183 61.4849C43.469 60.6342 44.6228 60.1563 45.8259 60.1563Z" fill="#263238"/>
<path d="M46.366 107.254V101.857C46.366 101.068 46.1318 99.8112 45.4865 99.577C45.4561 99.5669 45.4281 99.5509 45.4041 99.5299C45.38 99.5089 45.3604 99.4832 45.3464 99.4545C45.3325 99.4257 45.3244 99.3945 45.3227 99.3626C45.321 99.3307 45.3258 99.2988 45.3366 99.2687C45.3475 99.2387 45.3643 99.2111 45.386 99.1876C45.4077 99.1642 45.4339 99.1453 45.463 99.1322C45.4921 99.119 45.5236 99.1118 45.5555 99.1111C45.5875 99.1103 45.6193 99.1159 45.649 99.1276C46.8105 99.5531 46.844 101.623 46.844 101.857V107.254C46.844 107.317 46.8188 107.378 46.774 107.423C46.7292 107.467 46.6684 107.493 46.605 107.493C46.5416 107.493 46.4808 107.467 46.436 107.423C46.3912 107.378 46.366 107.317 46.366 107.254Z" fill="#263238"/>
<path d="M41.3518 110.958C41.3217 110.963 41.2911 110.963 41.261 110.958C41.2316 110.946 41.205 110.928 41.1825 110.906C41.1601 110.883 41.1424 110.857 41.1303 110.827C41.1183 110.798 41.1123 110.767 41.1126 110.735C41.1128 110.703 41.1194 110.672 41.1319 110.643C41.1319 110.614 42.303 107.861 43.6845 103.912C45.0276 100.088 44.5544 99.3236 44.2867 99.1802C44.2591 99.1652 44.2346 99.1448 44.2148 99.1204C44.195 99.0959 44.1803 99.0677 44.1714 99.0375C44.1625 99.0073 44.1597 98.9757 44.1631 98.9444C44.1665 98.9131 44.176 98.8827 44.1911 98.8551C44.2224 98.8002 44.2737 98.7595 44.3343 98.7417C44.395 98.7238 44.4602 98.7302 44.5162 98.7595C45.3622 99.2375 45.2427 100.906 44.1386 104.07C42.7524 108.028 41.586 110.786 41.586 110.815C41.5671 110.86 41.5342 110.899 41.4922 110.924C41.4501 110.95 41.401 110.962 41.3518 110.958Z" fill="#263238"/>
</svg>
