<svg width="245" height="245" viewBox="0 0 245 245" fill="none" xmlns="http://www.w3.org/2000/svg">
<path d="M245 187.376H0V187.499H245V187.376Z" fill="#EBEBEB"/>
<path d="M220.451 192.041H175.91V192.163H220.451V192.041Z" fill="#EBEBEB"/>
<path d="M162.298 190.713H150.102V190.835H162.298V190.713Z" fill="#EBEBEB"/>
<path d="M190.174 196.593H171.265V196.715H190.174V196.593Z" fill="#EBEBEB"/>
<path d="M36.799 195.77H25.7054V195.892H36.799V195.77Z" fill="#EBEBEB"/>
<path d="M54.3361 195.77H41.16V195.892H54.3361V195.77Z" fill="#EBEBEB"/>
<path d="M110.323 193.702H87.3719V193.824H110.323V193.702Z" fill="#EBEBEB"/>
<path d="M116.13 165.522H21.5159C20.7747 165.521 20.0643 165.225 19.5407 164.701C19.017 164.176 18.7229 163.465 18.7229 162.724V29.7234C18.7294 28.9865 19.0263 28.2818 19.5493 27.7625C20.0722 27.2433 20.7789 26.9513 21.5159 26.95H116.13C116.872 26.95 117.584 27.2448 118.108 27.7695C118.633 28.2942 118.928 29.0059 118.928 29.7479V162.724C118.928 163.466 118.633 164.178 118.108 164.703C117.584 165.227 116.872 165.522 116.13 165.522ZM21.5159 27.048C20.8072 27.0493 20.1279 27.3318 19.6273 27.8333C19.1266 28.3349 18.8454 29.0147 18.8454 29.7234V162.724C18.8454 163.433 19.1266 164.113 19.6273 164.614C20.1279 165.116 20.8072 165.398 21.5159 165.4H116.13C116.839 165.398 117.519 165.116 118.02 164.614C118.522 164.113 118.804 163.433 118.805 162.724V29.7234C118.804 29.0142 118.522 28.3345 118.02 27.833C117.519 27.3316 116.839 27.0493 116.13 27.048H21.5159Z" fill="#EBEBEB"/>
<path d="M222.122 165.522H127.503C126.761 165.521 126.05 165.226 125.526 164.701C125.002 164.177 124.706 163.466 124.705 162.724V29.7234C124.713 28.986 125.011 28.2814 125.535 27.7622C126.058 27.2431 126.765 26.9513 127.503 26.95H222.122C222.858 26.9526 223.564 27.2451 224.085 27.7643C224.607 28.2834 224.904 28.9873 224.91 29.7234V162.724C224.91 163.464 224.617 164.175 224.094 164.699C223.571 165.223 222.862 165.519 222.122 165.522ZM127.503 27.048C126.794 27.0493 126.114 27.3316 125.613 27.833C125.111 28.3345 124.829 29.0142 124.828 29.7234V162.724C124.829 163.433 125.111 164.113 125.613 164.614C126.114 165.116 126.794 165.398 127.503 165.4H222.122C222.831 165.398 223.511 165.116 224.012 164.614C224.514 164.113 224.796 163.433 224.797 162.724V29.7234C224.796 29.0142 224.514 28.3345 224.012 27.833C223.511 27.3316 222.831 27.0493 222.122 27.048H127.503Z" fill="#EBEBEB"/>
<path d="M155.08 96.2213H206.496V39.0971L155.08 39.0971V96.2213Z" fill="#E6E6E6"/>
<path d="M144.08 96.2213L204.124 96.2213V39.0971L144.08 39.0971V96.2213Z" fill="#F5F5F5"/>
<path d="M198.225 92.5561V42.7721H149.979V92.5561H198.225Z" fill="white"/>
<path d="M174.415 93.1931V42.1351H173.788V93.1931H174.415Z" fill="#F5F5F5"/>
<path d="M39.7488 174.827H105.428L105.428 42.3311H39.7488L39.7488 174.827Z" fill="#E6E6E6"/>
<path d="M35.182 174.827H104.213L104.213 42.3311H35.182L35.182 174.827Z" fill="#F0F0F0"/>
<path d="M98.4263 169.04L98.4263 48.1082H40.964L40.964 169.04H98.4263Z" fill="white"/>
<path d="M62.6416 169.04L73.9753 48.1131H60.8923L49.5537 169.04H62.6416Z" fill="#FAFAFA"/>
<path d="M72.7797 169.04L84.1183 48.1131H77.5719L66.2382 169.04H72.7797Z" fill="#FAFAFA"/>
<path d="M130.267 187.376H142.541V135.49H130.267V187.376Z" fill="#E6E6E6"/>
<path d="M137.411 187.376H130.271V180.212H144.898L137.411 187.376Z" fill="#FAFAFA"/>
<path d="M203.183 187.376H215.458V135.49H203.183V187.376Z" fill="#E6E6E6"/>
<path d="M130.267 184.906H209.416V135.485H130.267V184.906Z" fill="#FAFAFA"/>
<path d="M202.277 187.376H209.421V180.212H194.79L202.277 187.376Z" fill="#FAFAFA"/>
<path d="M135.808 166.272H203.879V153.904H135.808V166.272Z" fill="#F0F0F0"/>
<path d="M135.808 181.28H203.879V168.913H135.808V181.28Z" fill="#F0F0F0"/>
<path d="M190.938 155.227H148.744C148.149 155.227 147.578 154.991 147.158 154.57C146.737 154.149 146.5 153.578 146.5 152.983V152.831H193.178V152.983C193.178 153.578 192.941 154.149 192.52 154.57C192.099 154.991 191.529 155.227 190.933 155.227H190.938Z" fill="#FAFAFA"/>
<path d="M135.808 151.258H203.879V138.891H135.808V151.258Z" fill="#F0F0F0"/>
<path d="M190.938 140.214H148.744C148.149 140.214 147.578 139.977 147.158 139.556C146.737 139.135 146.5 138.565 146.5 137.969V137.817H193.178V137.969C193.178 138.564 192.942 139.134 192.522 139.554C192.102 139.975 191.533 140.212 190.938 140.214Z" fill="#FAFAFA"/>
<path d="M190.938 170.241H148.744C148.149 170.241 147.578 170.004 147.158 169.583C146.737 169.163 146.5 168.592 146.5 167.997V167.845H193.178V167.997C193.178 168.591 192.942 169.161 192.522 169.582C192.102 170.002 191.533 170.239 190.938 170.241Z" fill="#FAFAFA"/>
<path d="M143.242 134.623H145.662V112.171H143.242V134.623Z" fill="#F5F5F5"/>
<path d="M143.555 134.608H144.236V112.156H143.555V134.608Z" fill="#FAFAFA"/>
<path d="M139.116 135.49H149.783C149.784 135.313 149.75 135.138 149.682 134.975C149.615 134.811 149.516 134.663 149.392 134.537C149.267 134.412 149.119 134.313 148.956 134.245C148.792 134.177 148.617 134.142 148.441 134.142H140.463C140.106 134.142 139.763 134.284 139.511 134.537C139.258 134.79 139.116 135.133 139.116 135.49Z" fill="#F0F0F0"/>
<path d="M139.817 128.106C140.001 128.104 140.177 128.031 140.307 127.9C140.437 127.77 140.511 127.594 140.512 127.41V115.023C140.511 114.838 140.437 114.662 140.307 114.532C140.177 114.402 140.001 114.328 139.817 114.327C139.632 114.327 139.454 114.4 139.323 114.53C139.192 114.661 139.117 114.838 139.116 115.023V127.4C139.115 127.492 139.133 127.584 139.168 127.67C139.203 127.755 139.254 127.833 139.319 127.899C139.384 127.964 139.462 128.016 139.547 128.052C139.633 128.087 139.724 128.106 139.817 128.106Z" fill="#F0F0F0"/>
<path d="M133.623 118.115H155.281L154.512 115.978C154.007 114.587 153.086 113.386 151.875 112.536C150.663 111.687 149.219 111.231 147.74 111.23H141.164C139.684 111.231 138.241 111.687 137.029 112.536C135.818 113.386 134.897 114.587 134.392 115.978L133.623 118.115Z" fill="#E0E0E0"/>
<path d="M198.641 134.623H201.062V112.171H198.641V134.623Z" fill="#F5F5F5"/>
<path d="M198.96 134.608H199.641V112.156H198.96V134.608Z" fill="#FAFAFA"/>
<path d="M194.53 135.49H205.197C205.197 135.133 205.056 134.791 204.804 134.539C204.553 134.286 204.211 134.144 203.855 134.142H195.863C195.506 134.144 195.165 134.286 194.913 134.539C194.661 134.791 194.52 135.133 194.52 135.49H194.53Z" fill="#F0F0F0"/>
<path d="M195.216 128.106C195.4 128.104 195.576 128.031 195.707 127.9C195.837 127.77 195.911 127.594 195.912 127.41V115.023C195.911 114.838 195.837 114.662 195.707 114.532C195.576 114.402 195.4 114.328 195.216 114.327C195.032 114.328 194.856 114.402 194.725 114.532C194.595 114.662 194.522 114.838 194.52 115.023V127.4C194.52 127.492 194.537 127.583 194.572 127.669C194.606 127.754 194.657 127.831 194.722 127.897C194.787 127.962 194.863 128.015 194.948 128.05C195.033 128.086 195.124 128.105 195.216 128.106Z" fill="#F0F0F0"/>
<path d="M189.022 118.115H210.7L209.926 115.978C209.421 114.585 208.498 113.381 207.283 112.531C206.069 111.681 204.622 111.227 203.139 111.23H196.568C195.089 111.231 193.645 111.687 192.434 112.536C191.222 113.386 190.302 114.587 189.797 115.978L189.022 118.115Z" fill="#E0E0E0"/>
<path d="M122.5 209.504C174.97 209.504 217.506 207.021 217.506 203.958C217.506 200.894 174.97 198.411 122.5 198.411C70.0296 198.411 27.4939 200.894 27.4939 203.958C27.4939 207.021 70.0296 209.504 122.5 209.504Z" fill="#F5F5F5"/>
<path d="M81.5997 55.8306L81.291 55.4484C83.4438 53.702 85.6844 52.0665 88.004 50.5484L88.2735 50.96C85.967 52.4683 83.7395 54.0939 81.5997 55.8306Z" fill="#263238"/>
<path d="M77.9835 58.9225L77.6503 58.5599C78.3069 57.967 78.9831 57.3741 79.6544 56.8008L79.9729 57.1781C79.3016 57.7465 78.6352 58.3345 77.9835 58.9225Z" fill="#263238"/>
<path d="M132.252 118.723C155.71 98.1729 162.989 68.1161 148.511 51.5894C134.033 35.0627 103.28 38.3244 79.822 58.8746C56.3643 79.4248 49.0849 109.482 63.5631 126.008C78.0413 142.535 108.795 139.273 132.252 118.723Z" fill="#263238"/>
<path d="M128.778 114.757C149.128 96.9301 155.443 70.8563 142.883 56.5199C130.324 42.1834 103.646 45.0132 83.2963 62.8404C62.9468 80.6676 56.6318 106.741 69.1912 121.078C81.7507 135.414 108.429 132.584 128.778 114.757Z" fill="white"/>
<path d="M116.204 50.9061C94.9914 52.626 73.2452 70.9961 67.6298 91.8995L144.447 85.6814C150.063 64.7584 137.416 49.1911 116.204 50.9061Z" fill="#FF2A07"/>
<path opacity="0.7" d="M67.62 91.8995L106.031 88.788L86.0685 64.19C77.2779 71.6184 70.4375 81.438 67.62 91.8995Z" fill="white"/>
<path opacity="0.4" d="M116.203 50.9061C105.6 51.7685 94.8591 56.7861 86.0685 64.1998L106.041 88.788L116.203 50.9061Z" fill="white"/>
<path opacity="0.1" d="M116.203 50.9061L106.041 88.788L140.385 59.8045C135.274 53.5129 126.812 50.0486 116.203 50.9061Z" fill="white"/>
<path d="M115.314 99.3879C123.617 92.114 126.194 81.4764 121.071 75.6283C115.948 69.7801 105.064 70.9359 96.7607 78.2098C88.4576 85.4837 85.8799 96.1212 91.0032 101.969C96.1265 107.818 107.011 106.662 115.314 99.3879Z" fill="white"/>
<path d="M111.452 94.9798C116.297 90.7356 117.8 84.5278 114.809 81.1141C111.819 77.7005 105.467 78.3738 100.622 82.6179C95.7778 86.8621 94.2747 93.0699 97.2652 96.4835C100.256 99.8972 106.607 99.2239 111.452 94.9798Z" fill="#263238"/>
<path d="M134.789 68.5265C125.651 71.9774 116.986 76.5709 109 82.1975L112.612 88.6655C120.777 82.8564 128.222 76.0958 134.789 68.5265Z" fill="#263238"/>
<path d="M72.03 106.359C71.916 106.365 71.8021 106.345 71.6974 106.299C71.5927 106.254 71.5 106.184 71.4264 106.097C71.3528 106.01 71.3005 105.907 71.2734 105.796C71.2464 105.685 71.2454 105.569 71.2705 105.458C71.3274 105.182 71.4698 104.931 71.6774 104.741C71.885 104.551 72.1473 104.432 72.4269 104.399L114.66 101.053C114.779 101.034 114.901 101.046 115.015 101.085C115.129 101.125 115.232 101.192 115.314 101.281C115.396 101.369 115.455 101.476 115.486 101.593C115.518 101.709 115.52 101.832 115.493 101.949C115.438 102.224 115.296 102.475 115.089 102.664C114.882 102.853 114.62 102.972 114.341 103.003L72.1427 106.354L72.03 106.359Z" fill="#FF2A07"/>
<path d="M108.56 110.377C108.445 110.384 108.331 110.364 108.226 110.319C108.12 110.274 108.027 110.205 107.953 110.117C107.88 110.03 107.827 109.926 107.801 109.815C107.774 109.703 107.774 109.587 107.8 109.476C107.856 109.2 107.998 108.949 108.206 108.76C108.414 108.57 108.677 108.452 108.956 108.422L122.676 107.33C122.796 107.31 122.919 107.321 123.033 107.36C123.148 107.4 123.251 107.466 123.334 107.555C123.417 107.644 123.476 107.751 123.508 107.868C123.539 107.985 123.542 108.108 123.514 108.226C123.458 108.502 123.316 108.753 123.108 108.944C122.9 109.134 122.638 109.253 122.358 109.285L108.638 110.373L108.56 110.377Z" fill="#FF2A07"/>
<path d="M38.7835 127.929C38.6695 127.935 38.5557 127.914 38.451 127.869C38.3463 127.823 38.2535 127.754 38.1799 127.667C38.1064 127.58 38.054 127.476 38.027 127.366C37.9999 127.255 37.9989 127.139 38.024 127.028C38.0822 126.75 38.2277 126.497 38.4392 126.308C38.6508 126.118 38.9173 126.002 39.2 125.974L52.92 124.881C53.0395 124.863 53.1615 124.875 53.2755 124.915C53.3896 124.954 53.4923 125.021 53.5747 125.109C53.6572 125.198 53.717 125.305 53.7489 125.421C53.7808 125.538 53.7839 125.66 53.7579 125.778C53.702 126.053 53.5605 126.304 53.3537 126.494C53.147 126.684 52.8854 126.804 52.6064 126.837L38.8864 127.924L38.7835 127.929Z" fill="#FF2A07"/>
<path d="M51.0041 119.908C50.8902 119.914 50.7764 119.893 50.6718 119.848C50.5672 119.802 50.4747 119.733 50.4015 119.646C50.3283 119.558 50.2764 119.455 50.25 119.344C50.2236 119.233 50.2235 119.117 50.2495 119.006C50.3056 118.732 50.4473 118.482 50.6541 118.293C50.861 118.103 51.1224 117.984 51.401 117.953L92.561 114.685C92.6804 114.667 92.8024 114.678 92.9165 114.718C93.0305 114.757 93.1332 114.824 93.2157 114.913C93.2981 115.001 93.3579 115.108 93.3898 115.224C93.4217 115.341 93.4248 115.463 93.3989 115.581C93.342 115.857 93.1996 116.108 92.992 116.298C92.7843 116.488 92.5221 116.607 92.2425 116.64L51.0825 119.903L51.0041 119.908Z" fill="#FF2A07"/>
<path d="M139.351 163.91L141.096 167.433L149.724 164.331L147.98 160.808L139.351 163.91Z" fill="#FF8B7B"/>
<path d="M97.3973 192.884L100.019 195.819L106.683 188.248L103.454 186.004L97.3973 192.884Z" fill="#FF8B7B"/>
<path d="M100.617 195.51L98.833 191.056C98.8047 190.985 98.7525 190.926 98.6854 190.889C98.6183 190.853 98.5405 190.84 98.4655 190.855L94.9816 191.59C94.8957 191.609 94.8151 191.647 94.7455 191.7C94.6758 191.754 94.6188 191.822 94.5786 191.9C94.5384 191.978 94.5158 192.064 94.5127 192.152C94.5095 192.24 94.5257 192.327 94.5602 192.408C95.158 193.829 95.6578 194.858 96.3781 196.642C96.824 197.754 98.049 201.15 98.6664 202.684C99.2838 204.217 100.847 203.747 100.734 203.056C100.21 199.974 100.195 197.48 100.631 196.221C100.715 195.99 100.71 195.737 100.617 195.51Z" fill="#263238"/>
<path d="M141.492 167.208L139.586 163.356C139.551 163.287 139.494 163.232 139.424 163.199C139.354 163.166 139.275 163.158 139.199 163.175L135.72 164.032C135.635 164.052 135.556 164.09 135.488 164.145C135.421 164.2 135.367 164.27 135.33 164.349C135.294 164.428 135.276 164.514 135.278 164.601C135.28 164.688 135.302 164.774 135.343 164.851C136.053 166.228 137.126 168.193 137.994 169.937C139.003 171.98 139.14 172.044 140.326 174.435C141.042 175.881 142.703 175.562 142.536 174.891C141.772 171.833 141.345 171.304 141.639 168.193C141.682 167.857 141.632 167.516 141.492 167.208Z" fill="#263238"/>
<path d="M175.42 100.568C175.239 101.842 175.043 103.214 174.891 104.542C174.739 105.869 174.587 107.222 174.474 108.56C174.214 111.174 174.136 113.803 174.239 116.429C174.239 116.747 174.268 117.066 174.308 117.365L174.396 118.237C174.395 118.496 174.475 118.748 174.626 118.958C174.776 119.168 174.989 119.326 175.234 119.408C175.678 119.612 176.148 119.753 176.63 119.83C177.837 120.009 179.059 120.055 180.276 119.967C180.918 119.923 181.574 119.874 182.236 119.795C182.897 119.717 183.569 119.614 184.196 119.521L185.146 122.319C184.469 122.637 183.776 122.92 183.069 123.166C182.371 123.426 181.659 123.649 180.937 123.833C180.197 124.029 179.446 124.181 178.688 124.289C177.888 124.411 177.078 124.464 176.268 124.445C175.358 124.434 174.454 124.297 173.582 124.039C172.52 123.716 171.553 123.135 170.77 122.348C169.954 121.494 169.391 120.43 169.143 119.276C169.109 119.124 169.094 119.041 169.079 118.943L169.03 118.658L168.927 118.08C168.854 117.698 168.805 117.321 168.761 116.943C168.442 114.014 168.38 111.063 168.575 108.123C168.668 106.683 168.771 105.252 168.947 103.831C169.123 102.41 169.295 101.014 169.569 99.5386L175.42 100.568Z" fill="#FF8B7B"/>
<path d="M169.143 97.02C166.566 99.7591 167.605 106.673 167.605 106.673L174.847 107.8C174.847 107.8 176.527 103.88 175.895 99.8375C175.121 94.9277 171.961 94.0065 169.143 97.02Z" fill="#FF2A07"/>
<path opacity="0.2" d="M171.5 100.053C170.304 98.5145 169.05 97.9657 168.384 98.0931C166.781 101.234 167.595 106.653 167.595 106.653L172.725 107.486C173.313 105.894 173.386 102.459 171.5 100.053Z" fill="black"/>
<path d="M183.231 119.947L187.43 117.193L188.361 121.456C188.361 121.456 185.749 124.102 183.574 122.235L183.231 119.947Z" fill="#FF8B7B"/>
<path d="M190.012 116.272L190.497 119.957L188.361 121.456L187.425 117.193L190.012 116.272Z" fill="#FF8B7B"/>
<path opacity="0.2" d="M149.719 164.336L145.275 165.934L143.531 162.406L147.975 160.808L149.719 164.336Z" fill="black"/>
<path opacity="0.2" d="M103.454 186.004L106.683 188.248L103.557 191.796L100.328 189.547L103.454 186.004Z" fill="black"/>
<path d="M154.223 87.5679C151.243 102.812 143.31 116.566 142.203 119.604C145.045 120.795 155.771 125.264 161.617 127.699C172.519 111.475 174.19 99.7346 174.44 96.8926C174.458 96.6895 174.421 96.4853 174.336 96.3005C174.25 96.1156 174.117 95.9565 173.95 95.8391C173.484 95.501 172.74 94.9718 171.833 94.3691C171.343 94.0555 170.819 93.7272 170.255 93.3891C169.947 93.2078 169.628 93.0314 169.305 92.8599C166.621 91.5595 163.864 90.4142 161.048 89.4299C160.519 89.2388 159.975 89.0526 159.441 88.886C158.907 88.7194 158.461 88.5871 157.996 88.4597C155.908 87.9011 154.223 87.5679 154.223 87.5679Z" fill="#FF2A07"/>
<path d="M165.894 109.304L166.967 109.579C166.26 110.263 165.397 110.767 164.454 111.049C163.375 111.372 162.229 111.388 161.141 111.098C160.179 110.901 159.298 110.419 158.613 109.716C158.324 109.391 158.105 109.01 157.968 108.597C157.832 108.184 157.781 107.748 157.819 107.315C157.891 106.285 158.181 105.283 158.672 104.375C159.241 103.265 160.008 102.269 160.936 101.435C161.771 100.652 162.778 100.074 163.876 99.7493C164.863 99.4663 165.908 99.4494 166.904 99.7003C167.663 99.8638 168.349 100.266 168.864 100.847C169.339 101.422 169.58 102.155 169.54 102.9C169.503 103.758 169.27 104.596 168.859 105.35C168.341 106.356 167.59 107.223 166.669 107.878C165.478 108.736 164.366 109.03 163.337 108.77C163.228 108.755 163.125 108.718 163.031 108.661C162.938 108.605 162.857 108.53 162.793 108.442C162.717 108.258 162.717 108.052 162.793 107.869C162.284 108.195 161.67 108.312 161.078 108.197C160.823 108.146 160.589 108.021 160.404 107.838C160.219 107.655 160.092 107.422 160.039 107.168C159.924 106.498 160.058 105.81 160.416 105.232C160.887 104.309 161.557 103.501 162.376 102.866C163.389 102.072 164.315 101.78 165.154 101.989C165.42 102.033 165.659 102.173 165.827 102.383C165.995 102.593 166.08 102.857 166.066 103.125L166.526 102.503L167.854 102.841L164.914 106.884C164.792 107.04 164.679 107.204 164.576 107.374C164.534 107.446 164.513 107.53 164.517 107.614C164.522 107.64 164.535 107.664 164.553 107.683C164.571 107.702 164.595 107.715 164.62 107.722C164.899 107.739 165.177 107.675 165.419 107.535C165.965 107.302 166.463 106.97 166.889 106.555C167.344 106.132 167.725 105.635 168.016 105.085C168.252 104.689 168.405 104.249 168.466 103.792C168.527 103.334 168.496 102.869 168.374 102.425C168.109 101.621 167.443 101.085 166.375 100.818C165.504 100.587 164.586 100.611 163.729 100.886C162.833 101.184 162.019 101.688 161.352 102.356C160.644 103.039 160.052 103.831 159.598 104.703C159.195 105.442 158.978 106.268 158.966 107.109C158.955 107.455 159.015 107.799 159.141 108.12C159.268 108.442 159.458 108.735 159.701 108.981C160.251 109.491 160.928 109.847 161.661 110.01C162.402 110.208 163.176 110.252 163.934 110.137C164.642 110.009 165.311 109.725 165.894 109.304ZM161.7 105.507C161.481 105.855 161.373 106.262 161.391 106.673C161.404 106.797 161.455 106.914 161.538 107.007C161.62 107.1 161.73 107.165 161.852 107.192C162.058 107.241 162.273 107.231 162.474 107.163C162.676 107.097 162.867 107.003 163.043 106.884C163.42 106.621 163.758 106.306 164.047 105.948C164.379 105.569 164.667 105.153 164.905 104.708C165.105 104.383 165.196 104.001 165.164 103.62C165.149 103.492 165.093 103.371 165.005 103.276C164.917 103.181 164.801 103.116 164.674 103.091C164.327 103.027 163.969 103.096 163.67 103.282C163.234 103.533 162.852 103.866 162.543 104.262C162.219 104.646 161.937 105.064 161.7 105.507Z" fill="white"/>
<path d="M165.762 80.5805C165.179 83.4519 163.67 88.5381 161.073 89.5328C161.916 91.5712 163.111 94.0163 166.223 95.4422C169.334 96.8681 169.682 94.4622 169.324 92.9922C166.659 91.0322 167.653 88.886 169.025 87.0387L165.762 80.5805Z" fill="#FF8B7B"/>
<path opacity="0.2" d="M167.09 83.2069L169.021 87.0142C168.693 87.4414 168.404 87.8973 168.158 88.3764C167.095 87.7394 166.056 85.848 166.429 84.6132C166.562 84.1084 166.786 83.6319 167.09 83.2069Z" fill="black"/>
<path d="M173.597 80.6883C176.669 80.9137 179.389 73.2501 174.905 72.3583C171.882 71.7556 171.912 73.5637 171.593 75.5433C171.275 77.5229 171.652 80.5462 173.597 80.6883Z" fill="#263238"/>
<path d="M166.11 76.8075C165.321 80.6295 164.664 82.8247 166.036 85.2747C168.104 88.9546 173.21 88.494 175.131 84.9856C176.856 81.8251 177.86 76.1068 174.587 73.6078C173.868 73.054 173.019 72.6932 172.121 72.5597C171.223 72.4262 170.306 72.5244 169.457 72.845C168.607 73.1655 167.854 73.6978 167.268 74.3913C166.683 75.0849 166.284 75.9166 166.11 76.8075Z" fill="#FF8B7B"/>
<path d="M165.458 79.5417C168.531 79.7671 170.589 72.7601 166.105 71.8634C163.082 71.2607 162.827 73.0296 162.876 74.921C162.925 76.93 163.508 79.38 165.458 79.5417Z" fill="#263238"/>
<path d="M167.938 74.1811C170.01 75.1856 180.001 77.3367 179.428 73.0394C178.855 68.7421 173.519 66.7478 173.519 66.7478C173.519 66.7478 176.625 70.1533 174.063 69.335C171.5 68.5167 170.765 67.9189 167.693 67.375C167.693 67.375 170.711 69.8789 167.203 69.1733C165.168 68.7344 163.042 69.0736 161.244 70.1239C162.136 70.7233 162.847 71.5538 163.303 72.5266C163.759 73.4993 163.941 74.5777 163.831 75.6462C163.591 79.4241 167.938 74.1811 167.938 74.1811Z" fill="#263238"/>
<path d="M163.66 79.723C163.795 80.6121 164.273 81.4128 164.993 81.9525C165.934 82.6434 166.791 81.8496 166.855 80.703C166.909 79.6691 166.487 78.0619 165.385 77.8316C164.282 77.6013 163.513 78.6156 163.66 79.723Z" fill="#FF8B7B"/>
<path d="M148.921 122.407L144.834 135.568L165.87 148.798C162.239 154.855 143.79 160.882 143.79 160.882L146.73 166.85C146.73 166.85 172.421 164.89 177.63 153.532C182.643 142.624 161.607 127.699 161.607 127.699L148.921 122.407Z" fill="#263238"/>
<path opacity="0.2" d="M151.65 139.856L147.98 137.558L152.498 130.992C152.498 130.992 152.625 136.254 151.65 139.856Z" fill="black"/>
<path opacity="0.2" d="M151.65 139.856L147.98 137.558L152.498 130.992C152.498 130.992 152.625 136.254 151.65 139.856Z" fill="black"/>
<path d="M157.06 125.803C157.06 125.803 140.096 154.017 133.094 163.17C125.425 173.195 105.57 192.08 105.57 192.08L99.6562 187.964C99.6562 187.964 116.806 169.06 123.269 158.598C130.644 146.682 142.203 119.594 142.203 119.594L157.06 125.803Z" fill="#263238"/>
<path d="M106.188 192.707L99.225 187.866L100.67 185.784L108.55 191.061L106.188 192.707Z" fill="#FF2A07"/>
<path d="M146.975 167.668L143.452 160.558L145.75 159.422L149.808 167.311L146.975 167.668Z" fill="#FF2A07"/>
<path d="M171.534 79.4094C171.451 79.7132 171.534 80.0072 171.745 80.0611C171.956 80.115 172.176 79.9141 172.259 79.6054C172.343 79.2967 172.259 79.0076 172.044 78.9537C171.828 78.8998 171.618 79.1056 171.534 79.4094Z" fill="#263238"/>
<path d="M174.994 80.36C174.91 80.6687 174.994 80.9578 175.204 81.0117C175.415 81.0656 175.636 80.8647 175.719 80.556C175.802 80.2473 175.719 79.9582 175.508 79.9043C175.297 79.8504 175.077 80.0464 174.994 80.36Z" fill="#263238"/>
<path d="M173.852 80.2032C173.963 81.2388 174.215 82.2544 174.602 83.2216C174.351 83.3136 174.084 83.3498 173.818 83.3278C173.553 83.3058 173.295 83.2261 173.063 83.0942L173.852 80.2032Z" fill="#FF5652"/>
<path d="M171.554 83.5646C171.222 83.432 170.921 83.2333 170.668 82.9806C170.415 82.7279 170.216 82.4265 170.084 82.0946C170.078 82.0706 170.081 82.0451 170.093 82.0233C170.104 82.0014 170.124 81.9849 170.148 81.977C170.171 81.9705 170.196 81.9729 170.218 81.9838C170.239 81.9946 170.256 82.0132 170.265 82.0358C170.416 82.3983 170.649 82.7203 170.947 82.9756C171.245 83.231 171.599 83.4126 171.98 83.5058C171.992 83.508 172.004 83.5128 172.014 83.5199C172.025 83.5269 172.033 83.5361 172.04 83.5467C172.046 83.5574 172.05 83.5693 172.052 83.5817C172.054 83.594 172.052 83.6066 172.049 83.6185C172.045 83.6305 172.04 83.6417 172.032 83.6515C172.024 83.6612 172.014 83.6693 172.003 83.6753C171.992 83.6812 171.98 83.6849 171.968 83.6861C171.956 83.6873 171.943 83.686 171.931 83.6822C171.803 83.6521 171.677 83.6128 171.554 83.5646Z" fill="#263238"/>
<path d="M170.77 78.0031C170.741 77.9891 170.716 77.9691 170.696 77.9443C170.681 77.9252 170.67 77.9032 170.663 77.8796C170.657 77.856 170.655 77.8314 170.658 77.8071C170.661 77.7829 170.669 77.7595 170.682 77.7384C170.694 77.7174 170.711 77.6991 170.731 77.6846C170.961 77.498 171.232 77.3691 171.521 77.3086C171.811 77.248 172.111 77.2577 172.397 77.3367C172.443 77.3544 172.48 77.3892 172.501 77.434C172.522 77.4788 172.525 77.53 172.509 77.5768C172.493 77.6226 172.459 77.6601 172.415 77.6812C172.371 77.7023 172.32 77.7053 172.274 77.6895C172.047 77.6289 171.809 77.6236 171.58 77.6739C171.351 77.7242 171.137 77.8287 170.956 77.9786C170.93 77.9979 170.899 78.0103 170.866 78.0146C170.834 78.0189 170.8 78.0149 170.77 78.0031Z" fill="#263238"/>
<path d="M176.807 79.5662C176.779 79.5542 176.754 79.5354 176.735 79.5114C176.716 79.4874 176.704 79.4591 176.699 79.429C176.663 79.1975 176.572 78.9781 176.434 78.7888C176.296 78.5996 176.114 78.4461 175.905 78.3412C175.881 78.3332 175.858 78.3203 175.839 78.3033C175.82 78.2862 175.804 78.2653 175.794 78.242C175.783 78.2187 175.777 78.1934 175.777 78.1678C175.776 78.1421 175.781 78.1166 175.791 78.0929C175.801 78.0691 175.815 78.0477 175.834 78.0299C175.852 78.0121 175.874 77.9984 175.898 77.9895C175.922 77.9806 175.948 77.9768 175.974 77.9783C175.999 77.9798 176.024 77.9865 176.047 77.9982C176.313 78.1272 176.544 78.3184 176.721 78.5554C176.897 78.7925 177.014 79.0686 177.061 79.3604C177.066 79.3842 177.067 79.4088 177.062 79.4327C177.057 79.4566 177.048 79.4793 177.034 79.4994C177.02 79.5195 177.002 79.5367 176.982 79.5498C176.961 79.563 176.938 79.5719 176.914 79.576C176.878 79.5852 176.84 79.5817 176.807 79.5662Z" fill="#263238"/>
<path d="M100.474 197.014C100.351 196.687 100.265 196.347 100.22 196C100.217 195.981 100.219 195.962 100.227 195.944C100.235 195.927 100.248 195.912 100.264 195.902C100.278 195.892 100.295 195.886 100.313 195.886C100.33 195.886 100.348 195.892 100.362 195.902C100.499 195.995 101.68 196.853 101.641 197.347C101.635 197.403 101.616 197.456 101.584 197.501C101.552 197.547 101.509 197.583 101.459 197.607C101.379 197.651 101.289 197.675 101.197 197.675C101.106 197.675 101.015 197.651 100.935 197.607C100.719 197.467 100.557 197.258 100.474 197.014ZM100.45 196.196C100.572 196.872 100.788 197.338 101.033 197.465C101.089 197.492 101.151 197.505 101.213 197.5C101.275 197.496 101.334 197.475 101.386 197.441C101.454 197.411 101.464 197.372 101.464 197.343C101.479 197.088 100.901 196.554 100.45 196.196Z" fill="#FF2A07"/>
<path d="M100.225 196C100.22 195.988 100.218 195.975 100.218 195.962C100.219 195.949 100.222 195.936 100.227 195.924C100.233 195.912 100.24 195.901 100.25 195.893C100.26 195.884 100.271 195.877 100.283 195.873C100.327 195.873 101.396 195.481 101.91 195.75C101.973 195.782 102.028 195.827 102.072 195.882C102.116 195.937 102.148 196 102.165 196.069C102.191 196.135 102.194 196.208 102.174 196.277C102.153 196.345 102.111 196.405 102.052 196.446C101.685 196.701 100.582 196.323 100.249 196.039C100.238 196.028 100.23 196.015 100.225 196ZM101.974 196.083C101.944 196.013 101.89 195.956 101.822 195.922C101.392 195.811 100.938 195.837 100.523 195.995C100.955 196.245 101.734 196.441 101.954 196.289C101.954 196.289 102.018 196.245 101.989 196.127L101.974 196.083Z" fill="#FF2A07"/>
<path d="M141.179 167.796C141.176 167.779 141.178 167.761 141.185 167.746C141.192 167.73 141.204 167.717 141.218 167.707C141.234 167.697 141.253 167.691 141.272 167.691C141.291 167.691 141.31 167.697 141.326 167.707C141.488 167.83 142.904 168.888 142.879 169.437C142.877 169.488 142.862 169.537 142.835 169.579C142.809 169.622 142.771 169.658 142.727 169.682C142.657 169.732 142.574 169.762 142.488 169.77C142.402 169.778 142.316 169.763 142.237 169.726C141.703 169.511 141.34 168.433 141.174 167.81L141.179 167.796ZM142.693 169.388C142.654 169.079 141.978 168.457 141.434 168.026C141.693 168.869 142.012 169.432 142.311 169.555C142.362 169.576 142.418 169.585 142.474 169.58C142.529 169.575 142.583 169.556 142.629 169.525C142.648 169.517 142.665 169.504 142.676 169.486C142.688 169.469 142.693 169.448 142.693 169.427V169.388Z" fill="#FF2A07"/>
<path d="M154.374 94.2368L152.826 93.2029C152.292 92.855 151.748 92.5169 151.204 92.1788C150.111 91.5075 149.004 90.8705 147.887 90.258C146.77 89.6455 145.638 89.0869 144.496 88.5871C143.928 88.3274 143.354 88.0971 142.781 87.8766L141.924 87.5728L141.708 87.4993L141.6 87.4601C141.6 87.4601 141.566 87.4601 141.522 87.4258C141.11 87.3909 140.696 87.4156 140.292 87.4993C139.728 87.6028 139.172 87.7419 138.626 87.9158C137.423 88.2989 136.24 88.7438 135.083 89.2486C132.707 90.2727 130.286 91.4389 127.934 92.6296L126.273 90.1796C128.399 88.3697 130.665 86.7312 133.05 85.2796C134.285 84.5278 135.566 83.8551 136.886 83.2657C137.602 82.9553 138.337 82.6902 139.086 82.4719C139.988 82.1954 140.927 82.0648 141.87 82.0848C142.179 82.1008 142.487 82.1384 142.791 82.1975L143.021 82.2514L143.158 82.2857L143.428 82.3543L144.506 82.6336C145.211 82.8443 145.922 83.055 146.598 83.3147C147.957 83.8 149.287 84.3628 150.582 85.0003C151.871 85.6177 153.12 86.3037 154.34 87.0289C154.943 87.4013 155.546 87.7786 156.138 88.1706C156.731 88.5626 157.3 88.9546 157.937 89.4299L154.374 94.2368Z" fill="#FF8B7B"/>
<path d="M160.23 90.0767C159.363 87.9305 151.165 84.9954 151.165 84.9954L148.514 91.9142C148.514 91.9142 151.381 93.8105 153.757 95.2315C158.27 97.951 161.925 94.3005 160.23 90.0767Z" fill="#FF2A07"/>
<path d="M128.723 91.5957L127.062 95.1972L124.529 91.9142C124.529 91.9142 126.44 88.6998 127.802 89.9542L128.723 91.5957Z" fill="#FF8B7B"/>
<path d="M123.558 96.3291L122.275 93.4479L124.529 91.9142L127.062 95.1972L123.558 96.3291Z" fill="#FF8B7B"/>
</svg>
