<svg width="246" height="278" viewBox="0 0 246 278" fill="none" xmlns="http://www.w3.org/2000/svg">
<g opacity="0.5">
<path d="M227.742 19.782L239.971 62.8573C241.483 68.1835 245.482 72.4482 250.701 74.2979L277.058 83.6412C287.307 87.275 291.601 99.4305 285.909 108.696L266.008 141.09C262.456 146.872 262.66 154.207 266.53 159.782L274.886 171.821C283.114 183.675 273.857 199.761 259.473 198.602L171.724 191.532C166.84 191.138 162.022 192.86 158.493 196.259L123.159 230.304C113.062 240.032 96.1916 234.132 94.3569 220.231L90.6564 192.182C89.2212 181.302 78.0487 174.575 67.7611 178.396C54.5666 183.297 41.4355 171.041 45.4171 157.54L50.2911 141.015C52.2765 134.281 49.9434 127.019 44.4071 122.703L40.2921 119.494C28.1602 110.035 33.7245 90.6159 49.026 89.0181L78.0982 85.9819C86.044 85.1518 92.3543 78.9287 93.2943 70.9958L99.3484 19.9252C100.99 6.07494 117.636 -0.0825208 127.896 9.36415L157.078 36.2324C164.44 43.0111 176.025 42.041 182.158 34.1339L197.794 13.9755C206.384 2.90308 223.914 6.30319 227.742 19.782Z" fill="#AF1F1F"/>
<path d="M69.9962 113.545C69.2824 108.678 68.1626 104.143 66.6036 99.8375C64.053 92.7994 60.4903 88.5002 56.0081 87.051C55.9048 87.0177 55.8003 86.9854 55.6959 86.9552C54.2973 86.5472 53.1076 86.5407 52.1591 86.938C50.2135 87.7541 49.4599 90.2918 49.8539 92.275C50.3007 94.5188 51.8694 96.4589 53.3455 98.0589C55.1651 100.032 57.1796 101.9 59.124 103.707C61.623 106.027 64.208 108.425 66.4454 111.097C66.9858 111.743 67.4929 112.4 67.9699 113.063C71.6155 121.932 75.5561 134.351 75.0942 145.798C74.9952 148.242 74.7077 150.252 74.3696 151.845C73.6009 147.27 70.7746 140.106 61.6951 131.897C59.0713 128.031 56.2364 124.598 53.1324 121.519C47.8158 116.25 42.7555 113.888 38.0849 114.496C37.9772 114.51 37.8695 114.525 37.7619 114.544C36.3224 114.773 35.2446 115.277 34.5577 116.042C33.1494 117.612 33.5532 120.23 34.758 121.852C36.1221 123.69 38.3702 124.771 40.3889 125.586C42.8782 126.591 45.4977 127.417 48.029 128.218C51.2805 129.246 54.6429 130.307 57.8083 131.765C58.7935 132.218 59.7356 132.711 60.6357 133.235C60.6367 133.236 60.6367 133.236 60.6378 133.237C60.135 133.206 59.5482 133.195 58.8645 133.219C56.0469 132.64 53.3046 132.316 50.5904 132.247C45.4762 132.118 41.8532 133.315 39.8151 135.807C39.7677 135.865 39.7214 135.922 39.6762 135.981C39.0679 136.769 38.7686 137.525 38.7847 138.228C38.8202 139.669 40.2468 140.781 41.6077 141.023C43.1474 141.298 44.772 140.782 46.1577 140.241C47.8664 139.574 49.5568 138.757 51.1911 137.969C53.2896 136.956 55.459 135.908 57.7168 135.149C57.9332 135.077 58.1486 135.008 58.3639 134.942C61.258 134.771 62.354 135.236 62.4079 135.26C62.5467 135.331 62.6975 135.356 62.8428 135.347C68.1368 140.695 70.6217 145.378 71.7802 148.707C73.4738 153.577 72.7697 156.662 72.7611 156.702C72.7578 156.717 72.7578 156.732 72.7546 156.747C72.7492 156.777 72.7449 156.806 72.7417 156.835C72.7395 156.862 72.7385 156.889 72.7395 156.916C72.7395 156.944 72.7417 156.971 72.7449 156.998C72.7482 157.026 72.7525 157.053 72.7589 157.08C72.7643 157.105 72.7708 157.131 72.7794 157.157C72.788 157.183 72.7966 157.208 72.8074 157.234C72.8181 157.259 72.83 157.283 72.8429 157.308C72.8558 157.332 72.8687 157.353 72.8838 157.375C72.8989 157.397 72.9161 157.42 72.9333 157.441C72.9506 157.463 72.9699 157.482 72.9893 157.502C73.0076 157.52 73.027 157.538 73.0485 157.555C73.0722 157.575 73.097 157.592 73.1218 157.609C73.1347 157.618 73.1454 157.628 73.1584 157.636C73.1659 157.641 73.1745 157.642 73.1821 157.646C73.2316 157.673 73.2843 157.695 73.3414 157.713C73.3532 157.716 73.364 157.722 73.3748 157.725C73.3769 157.725 73.378 157.726 73.3802 157.727C73.4415 157.742 73.5018 157.747 73.5621 157.749C73.5697 157.749 73.5772 157.753 73.5847 157.753C73.5847 157.753 73.5847 157.753 73.5858 157.753C73.5869 157.753 73.5858 157.753 73.5869 157.753C73.6526 157.753 73.7161 157.742 73.7785 157.728C73.7925 157.725 73.8065 157.721 73.8194 157.717C73.8808 157.7 73.94 157.676 73.996 157.646C74.0036 157.642 74.01 157.636 74.0175 157.632C74.0681 157.602 74.1144 157.566 74.1575 157.526C74.1672 157.518 74.178 157.509 74.1866 157.499C74.2329 157.453 74.2738 157.4 74.3082 157.343C74.3115 157.339 74.3147 157.336 74.3179 157.332C74.4051 157.183 76.4476 153.601 76.7824 146.042C77.2831 134.73 73.5944 122.539 69.9962 113.545Z" fill="black"/>
<path d="M55.5496 94.0181C56.5408 94.0181 57.3444 93.2146 57.3444 92.2233C57.3444 91.2321 56.5408 90.4285 55.5496 90.4285C54.5583 90.4285 53.7548 91.2321 53.7548 92.2233C53.7548 93.2146 54.5583 94.0181 55.5496 94.0181Z" fill="white"/>
<path d="M40.7378 122.347C41.729 122.347 42.5326 121.544 42.5326 120.553C42.5326 119.561 41.729 118.758 40.7378 118.758C39.7466 118.758 38.943 119.561 38.943 120.553C38.943 121.544 39.7466 122.347 40.7378 122.347Z" fill="white"/>
<path d="M43.1959 138.726C44.0219 138.726 44.6914 138.056 44.6914 137.23C44.6914 136.404 44.0219 135.735 43.1959 135.735C42.37 135.735 41.7004 136.404 41.7004 137.23C41.7004 138.056 42.37 138.726 43.1959 138.726Z" fill="white"/>
<path d="M200.457 189.511C200.44 189.511 200.424 189.511 200.407 189.51C199.939 189.495 199.572 189.104 199.587 188.636C199.602 188.167 199.99 187.797 200.461 187.815C200.468 187.815 200.474 187.815 200.481 187.815C201.552 187.815 208.753 185.336 217.002 180.458C224.023 176.308 233.144 169.625 236.717 161.36C239.864 154.082 238.017 146.884 231.226 139.958C229.783 143.436 228.203 146.678 226.509 149.601C219.916 160.98 212.442 166.212 204.899 164.729C198.37 163.447 194.34 159.488 193.552 153.584C192.462 145.412 197.941 135.877 206.027 131.876C210.675 129.576 219.875 127.332 230.588 136.997C234.454 126.977 237.185 115.207 238.231 103.571C239.116 93.7242 238.68 84.9354 237.041 77.8348C236.301 78.6293 235.533 79.3496 234.734 79.9967C230.833 83.1546 226.438 84.354 221.672 83.5615C213.858 82.2631 208.676 77.4784 207.81 70.7643C207.025 64.6822 209.995 58.6819 214.872 56.4963C217.311 55.4035 220.078 55.3443 222.876 56.3283C225.992 57.4233 229.122 59.7661 232.18 63.2911C234.568 66.0453 236.461 69.7533 237.822 74.2355C239.219 72.2845 240.565 69.876 241.804 66.912C245.124 58.9737 246.719 48.7325 246.073 39.5183C245.398 29.9016 242.382 22.4801 237.798 19.1564C237.419 18.8819 237.335 18.3511 237.61 17.9721C237.884 17.5931 238.414 17.508 238.794 17.7837C243.859 21.4562 247.044 29.1328 247.765 39.3999C248.429 48.866 246.786 59.3947 243.369 67.5655C241.945 70.971 240.279 73.8791 238.388 76.2639C240.31 83.7683 240.866 93.1697 239.918 103.723C238.837 115.755 235.971 127.94 231.915 138.25C231.989 138.323 232.064 138.396 232.138 138.47C239.704 146.024 241.768 153.953 238.273 162.033C234.517 170.717 225.102 177.639 217.865 181.917C210.076 186.523 202.295 189.511 200.457 189.511ZM214.413 131.594C211.23 131.594 208.616 132.487 206.779 133.395C199.429 137.032 194.249 145.988 195.234 153.359C195.919 158.487 199.468 161.933 205.228 163.065C214.228 164.83 221.506 154.855 225.044 148.75C226.803 145.714 228.437 142.328 229.92 138.684C224.066 133.231 218.72 131.594 214.413 131.594ZM218.994 57.3103C217.81 57.3103 216.663 57.5525 215.567 58.0445C211.424 59.9018 208.812 65.2776 209.492 70.5489C210.596 79.0988 218.573 81.3285 221.95 81.8906C225.466 82.4752 231.255 82.135 236.547 75.8774C235.238 71.1174 233.342 67.2199 230.899 64.4033C226.853 59.736 222.738 57.3103 218.994 57.3103Z" fill="black"/>
<path d="M53.2358 164.236C53.2358 164.233 53.2358 164.229 53.2358 164.225V164.182H53.2369C53.2444 161.743 54.8207 159.306 57.9775 157.443L184.807 83.118C191.154 79.3722 201.49 79.3744 207.877 83.1212L262.976 115.455C266.191 117.341 267.794 119.818 267.786 122.291H267.787L267.763 128.143C267.755 130.585 266.176 133.023 263.023 134.884L136.194 209.21C129.837 212.96 119.511 212.953 113.123 209.205L58.0248 176.871C54.8099 174.985 53.2025 172.508 53.21 170.034L53.2358 164.236Z" fill="black"/>
<path d="M114.248 201.548L57.8385 168.445C54.3835 166.418 54.3846 161.351 57.8407 159.324L185.765 84.3142C192.182 80.5512 200.086 80.5523 206.501 84.3163L215.235 89.4402C215.41 89.5425 215.553 89.69 215.652 89.8676L219.766 97.2901C219.909 97.5485 220.118 97.7628 220.37 97.9103L237.544 107.991C237.725 108.098 237.925 108.164 238.133 108.189L249.052 109.487C249.331 109.52 249.6 109.61 249.844 109.753L264.051 118.089C267.063 119.856 267.062 124.272 264.05 126.038L135.269 201.551C128.765 205.366 120.751 205.364 114.248 201.548Z" fill="white"/>
<path d="M225.503 95.8474L236.984 102.583C237.616 102.954 237.685 103.515 237.137 103.836C236.589 104.157 235.633 104.117 235 103.746L223.519 97.0101C222.887 96.6387 222.818 96.0778 223.366 95.7569C223.915 95.4361 224.871 95.4759 225.503 95.8474ZM240.91 144.542C241.019 144.213 241.185 143.893 241.389 143.609C241.62 143.289 241.9 143.016 242.199 142.841L252.74 136.659C253.135 136.429 253.493 136.408 253.751 136.557L254.794 137.167C254.536 137.016 254.179 137.037 253.784 137.269L243.244 143.45C242.944 143.626 242.663 143.897 242.433 144.219C242.229 144.502 242.064 144.823 241.954 145.151C241.861 145.427 241.81 145.708 241.81 145.974V146.438C241.81 146.904 241.973 147.233 242.236 147.387L241.193 146.779C240.929 146.626 240.766 146.297 240.766 145.831V145.366C240.765 145.099 240.817 144.818 240.91 144.542Z" fill="white"/>
<path d="M243.243 143.449L253.783 137.268C254.58 136.804 255.217 137.183 255.216 138.121V138.585C255.216 139.513 254.579 140.644 253.782 141.108L243.242 147.289C242.454 147.748 241.809 147.365 241.809 146.437V145.973C241.809 145.035 242.456 143.909 243.243 143.449Z" fill="black"/>
<path d="M224.161 154.412C224.271 154.083 224.437 153.762 224.64 153.479C224.87 153.158 225.151 152.886 225.451 152.71L235.991 146.529C236.386 146.299 236.743 146.276 237.001 146.427L238.044 147.036C237.786 146.886 237.43 146.907 237.035 147.139L226.494 153.32C226.195 153.495 225.914 153.767 225.683 154.089C225.48 154.372 225.314 154.693 225.204 155.021C225.112 155.297 225.06 155.578 225.06 155.844V156.308C225.06 156.774 225.224 157.103 225.486 157.257L224.443 156.649C224.179 156.496 224.017 156.167 224.017 155.7V155.236C224.018 154.968 224.069 154.687 224.161 154.412Z" fill="white"/>
<path d="M226.495 153.319L237.036 147.138C237.832 146.674 238.47 147.053 238.469 147.99V148.454C238.469 149.383 237.831 150.514 237.035 150.978L226.494 157.159C225.706 157.618 225.061 157.235 225.061 156.307V155.843C225.061 154.905 225.707 153.779 226.495 153.319Z" fill="black"/>
<path d="M239.149 105.021C239.921 104.565 241.177 104.565 241.953 105.021C242.729 105.477 242.732 106.215 241.961 106.67C241.189 107.125 239.935 107.127 239.158 106.67C238.382 106.216 238.377 105.476 239.149 105.021ZM92.0883 178.279C92.1755 178.119 92.4652 178.01 92.8452 177.998C94.0339 177.96 95.5595 178.785 96.1851 179.798C96.3885 180.129 96.4607 180.437 96.3724 180.6C96.2852 180.762 95.9956 180.87 95.6166 180.881C94.4484 180.921 92.8915 180.077 92.2757 179.08C92.0722 178.751 92.0001 178.444 92.0883 178.279Z" fill="white"/>
<path d="M90.8329 179.971C91.747 181.453 93.7927 182.578 95.5412 182.578C95.5842 182.578 95.6284 182.577 95.6715 182.576C96.6824 182.544 97.4835 182.116 97.8668 181.404C98.2522 180.688 98.165 179.778 97.6288 178.908C97.0377 177.95 95.9675 177.141 94.8144 176.689C94.1415 176.425 93.4406 176.283 92.7914 176.303C91.7793 176.336 90.9783 176.763 90.595 177.477C90.2106 178.193 90.2967 179.102 90.8329 179.971ZM92.2756 179.081C92.0722 178.751 92 178.444 92.0883 178.28C92.1755 178.12 92.4651 178.011 92.8452 177.999C94.0338 177.962 95.5595 178.786 96.185 179.799C96.3885 180.13 96.4607 180.438 96.3724 180.602C96.2852 180.763 95.9955 180.871 95.6165 180.883C94.4484 180.922 92.8915 180.078 92.2756 179.081ZM84.7433 86.2812C84.7239 86.2812 84.7056 86.2812 84.6873 86.2801C83.251 86.236 81.8514 84.5284 80.2827 80.9054C77.5415 74.5714 76.6952 67.0466 77.9 59.7177C78.4373 56.4522 79.3643 53.346 80.6035 50.5703C77.9624 43.1306 73.8151 34.1382 67.4596 25.9879C62.7621 19.965 58.7299 17.451 55.473 18.5169C47.0438 21.2742 44.4307 47.3759 44.1357 57.2004C44.1217 57.6688 43.7223 58.0273 43.2626 58.0219C42.7942 58.0079 42.4271 57.6171 42.4411 57.1488C42.4432 57.0583 42.7307 48.0014 44.3468 38.629C46.5604 25.7908 50.1263 18.4813 54.9455 16.9051C58.9528 15.5937 63.6137 18.2983 68.7968 24.9446C74.8487 32.7052 78.9347 41.2022 81.6393 48.4601C82.7978 46.31 84.1565 44.4183 85.6692 42.884C89.7735 38.7205 94.6562 37.4673 99.4473 39.3396C100.427 34.0876 102.398 29.3169 105.613 26.902C105.987 26.621 106.519 26.6963 106.8 27.071C107.081 27.4457 107.006 27.9765 106.631 28.2575C104.045 30.1998 102.053 34.4763 101.061 40.0405C107.236 42.9185 110.814 46.914 111.185 51.3886C111.504 55.242 109.347 59.1104 105.555 61.4845C103.948 62.4912 102.344 62.0767 101.156 60.3475C98.9704 57.1649 98.0477 48.8132 99.1652 41.0558C99.134 41.0429 99.1028 41.03 99.0726 41.0171C96.1021 39.7821 91.5747 39.3105 86.8772 44.0759C85.1804 45.7964 83.6666 48.0477 82.4317 50.6618C83.8249 54.6713 84.7831 58.2028 85.4162 60.8859C87.8839 71.3382 88.4083 81.4201 86.6641 84.86C86.0708 86.026 85.3032 86.2812 84.7433 86.2812ZM81.4347 53.0101C78.4674 60.8417 77.8946 71.1207 81.8384 80.2336C83.6871 84.5058 84.7282 84.5865 84.7379 84.5865C84.8047 84.5844 84.9651 84.4563 85.1503 84.0913C86.4735 81.4814 86.438 72.5978 83.7646 61.2745C83.2381 59.0437 82.4834 56.2131 81.4347 53.0101ZM100.79 41.788C100.697 42.4759 100.62 43.1801 100.557 43.8982C99.9932 50.3679 100.833 56.8817 102.554 59.3871C103.387 60.6016 104.057 60.4229 104.656 60.0471C107.909 58.0112 109.763 54.7467 109.497 51.5286C109.186 47.7882 106.115 44.3709 100.79 41.788ZM128.001 162.735C127.442 161.884 126.204 160.635 124.838 159.683C120.8 156.869 116.073 156.85 112.339 159.451C108.191 162.342 108.963 165.694 112.556 168.198C114.159 169.316 115.767 169.975 117.048 170.366L114.622 173.339C113.52 173.071 111.53 172.25 109.379 170.83L106.786 172.635L104.149 170.797L106.887 168.89C106.393 168.425 105.949 167.949 105.563 167.462L102.462 169.622L99.8252 167.784L104.059 164.834C102.972 161.805 104.016 158.628 107.837 155.965C111.294 153.557 115.71 152.587 120.281 153.532L124.767 150.406L127.404 152.244L123.901 154.685C124.558 154.969 125.214 155.296 125.868 155.665L129.09 153.42L131.727 155.258L128.569 157.457C130.447 158.892 131.589 160.183 131.973 160.918L128.001 162.735Z" fill="black"/>
<path d="M245.607 123.5C244.024 130.443 243.196 137.555 243.295 144.766C243.345 148.422 243.706 152.322 245.958 155.203C248.418 158.349 252.698 159.598 256.688 159.436C266.437 159.043 274.681 151.326 278.604 142.392C282.526 133.457 282.958 123.437 283.24 113.683C283.462 106.005 283.632 98.2236 285.487 90.7278C286.282 87.514 292.141 74.5369 287.667 72.404C281.515 69.3344 267.118 77.0165 259.501 89.762C253.228 100.261 248.313 111.63 245.607 123.5Z" fill="black"/>
<path d="M155.956 181.093C148.133 180.989 140.587 182.776 134.705 186.123C128.875 189.44 125.336 193.919 124.688 198.772L124.687 198.775L124.157 205C124.094 205.351 124.045 205.703 124.01 206.058C123.489 211.427 127.163 216.433 132.725 220.156C138.018 223.699 145.284 225.513 153.187 225.513C161.88 225.513 168.129 223.206 174.095 219.812C180.364 216.244 183.206 212.22 183.727 206.853C183.761 206.499 183.78 206.145 183.786 205.793L183.875 200.137C183.861 200.083 183.845 200.03 183.829 199.977C184.121 196.483 182.875 193.072 180.216 190.102C175.285 184.596 166.216 181.228 155.956 181.093ZM129.627 192.415C129.73 192.296 129.832 192.179 129.939 192.062C129.832 192.178 129.73 192.296 129.627 192.415ZM130.215 191.767C130.324 191.652 130.434 191.538 130.548 191.425C130.434 191.538 130.324 191.652 130.215 191.767ZM128.11 194.491C128.198 194.347 128.284 194.203 128.376 194.061C128.284 194.203 128.198 194.346 128.11 194.491ZM128.578 193.768C128.667 193.638 128.756 193.508 128.851 193.379C128.756 193.509 128.668 193.639 128.578 193.768ZM129.082 193.081C129.177 192.958 129.272 192.835 129.372 192.713C129.272 192.835 129.177 192.957 129.082 193.081ZM130.845 191.137C130.961 191.026 131.079 190.916 131.198 190.807C131.078 190.916 130.96 191.026 130.845 191.137ZM131.515 190.525C131.638 190.418 131.763 190.311 131.889 190.205C131.763 190.311 131.639 190.418 131.515 190.525ZM180.335 193.223C180.347 193.243 180.36 193.261 180.372 193.28C180.361 193.262 180.348 193.243 180.335 193.223ZM180.756 193.943C180.762 193.952 180.766 193.962 180.771 193.972C180.766 193.962 180.762 193.952 180.756 193.943ZM149.712 183.225C149.938 183.197 150.165 183.173 150.393 183.149C150.165 183.174 149.938 183.198 149.712 183.225ZM146.159 183.81C146.37 183.766 146.582 183.724 146.796 183.683C146.582 183.724 146.37 183.766 146.159 183.81ZM147.325 183.585C147.541 183.546 147.757 183.51 147.975 183.474C147.757 183.511 147.54 183.546 147.325 183.585ZM148.509 183.39C148.73 183.357 148.951 183.327 149.173 183.296C148.951 183.327 148.73 183.357 148.509 183.39ZM155.933 182.887C155.508 182.882 155.085 182.883 154.664 182.888C155.085 182.882 155.508 182.882 155.933 182.887ZM154.241 182.899C153.962 182.906 153.683 182.912 153.407 182.923C153.683 182.912 153.962 182.906 154.241 182.899ZM152.908 182.95C152.658 182.963 152.409 182.976 152.161 182.992C152.409 182.975 152.658 182.963 152.908 182.95ZM151.636 183.033C151.4 183.051 151.163 183.07 150.928 183.093C151.163 183.07 151.4 183.052 151.636 183.033ZM145.636 183.921C145.426 183.967 145.219 184.015 145.012 184.064C145.219 184.016 145.427 183.967 145.636 183.921ZM144.499 184.188C144.293 184.24 144.088 184.293 143.885 184.347C144.088 184.293 144.293 184.24 144.499 184.188ZM143.386 184.482C143.182 184.539 142.979 184.599 142.777 184.66C142.978 184.599 143.18 184.539 143.386 184.482ZM142.295 184.804C142.091 184.867 141.89 184.934 141.687 185.001C141.89 184.934 142.091 184.867 142.295 184.804ZM141.231 185.152C141.023 185.223 140.819 185.298 140.615 185.372C140.818 185.297 141.023 185.223 141.231 185.152ZM140.192 185.525C139.971 185.608 139.755 185.695 139.537 185.782C139.753 185.695 139.97 185.608 140.192 185.525ZM139.18 185.924C138.881 186.046 138.586 186.173 138.296 186.304C138.586 186.174 138.88 186.047 139.18 185.924ZM138.196 186.347C137.874 186.491 137.558 186.64 137.247 186.792C137.558 186.641 137.875 186.491 138.196 186.347ZM132.224 189.932C132.355 189.828 132.488 189.724 132.623 189.621C132.489 189.724 132.356 189.828 132.224 189.932ZM132.974 189.357C133.113 189.255 133.254 189.155 133.396 189.054C133.254 189.156 133.111 189.256 132.974 189.357ZM133.759 188.803C133.906 188.702 134.057 188.604 134.208 188.508C134.057 188.605 133.906 188.703 133.759 188.803ZM134.579 188.269C134.736 188.171 134.898 188.074 135.059 187.978C134.899 188.074 134.737 188.169 134.579 188.269ZM135.436 187.755C135.607 187.656 135.783 187.56 135.958 187.464C135.783 187.56 135.607 187.656 135.436 187.755ZM136.325 187.262C136.522 187.157 136.724 187.056 136.924 186.956C136.723 187.057 136.521 187.158 136.325 187.262ZM127.949 194.755C127.839 194.946 127.738 195.139 127.639 195.332C127.738 195.14 127.839 194.946 127.949 194.755ZM181.122 194.684C181.109 194.656 181.097 194.629 181.085 194.601C181.097 194.628 181.109 194.656 181.122 194.684ZM181.397 195.342C181.396 195.339 181.395 195.337 181.394 195.334C181.395 195.336 181.396 195.339 181.397 195.342ZM179.97 192.674C179.93 192.617 179.889 192.56 179.847 192.503C179.889 192.56 179.93 192.617 179.97 192.674ZM179.512 192.056C179.466 191.999 179.423 191.942 179.377 191.885C179.422 191.942 179.466 191.999 179.512 192.056Z" fill="black"/>
<path d="M178.881 191.299C174.278 186.16 165.699 183.015 155.933 182.887C141.927 182.703 129.692 188.833 126.948 196.958C126.681 197.75 126.503 198.559 126.423 199.385C126.128 202.423 127.219 205.42 129.577 208.052C134.18 213.191 142.758 216.336 152.525 216.464C167.893 216.667 181.131 209.27 182.034 199.966C182.328 196.929 181.237 193.932 178.881 191.299Z" fill="white"/>
<path d="M171.735 193.547C168.532 189.971 162.301 187.694 155.475 187.603C145.548 187.473 136.88 191.786 134.948 197.503C134.762 198.055 134.638 198.621 134.582 199.196C134.378 201.3 135.138 203.381 136.779 205.213C139.982 208.79 146.212 211.067 153.038 211.157C163.925 211.301 173.297 206.102 173.93 199.564C174.135 197.461 173.376 195.38 171.735 193.547Z" fill="white"/>
<path d="M155.499 185.809C149.848 185.735 144.393 187.027 140.14 189.447C135.762 191.939 133.154 195.339 132.797 199.023C132.543 201.641 133.458 204.196 135.442 206.411C139.023 210.409 145.593 212.855 153.016 212.952C158.666 213.026 164.122 211.734 168.374 209.314C171.916 207.299 174.299 204.689 175.269 201.814C175.499 201.136 175.649 200.442 175.717 199.738C175.971 197.121 175.056 194.566 173.072 192.35C169.49 188.352 162.92 185.907 155.499 185.809ZM153.038 211.158C146.212 211.068 139.982 208.791 136.779 205.214C135.138 203.382 134.379 201.302 134.582 199.197C134.638 198.621 134.762 198.056 134.948 197.504C136.879 191.787 145.547 187.473 155.475 187.604C162.301 187.694 168.532 189.972 171.735 193.548C173.376 195.38 174.135 197.461 173.931 199.566C173.297 206.103 163.925 211.302 153.038 211.158Z" fill="black"/>
<path d="M154.37 194.421L154.314 194.418C153.974 192.042 152.619 190.892 150.95 190.817C149.254 190.739 147.778 191.729 146.811 193.145C146.194 193.978 145.741 194.9 145.367 196.062L142.514 195.932L142.104 198.123L144.803 198.246C144.736 198.558 144.672 198.885 144.607 199.228C144.512 199.732 144.425 200.243 144.345 200.749L141.635 200.626L141.225 202.815L144.042 202.943C143.93 203.908 143.864 204.746 143.86 205.316L162.272 206.154C162.458 205.575 162.684 204.786 162.922 203.803L165.373 203.915L165.783 201.726L163.4 201.617C163.435 201.443 163.469 201.266 163.503 201.084C163.634 200.381 163.737 199.726 163.817 199.112L166.251 199.222L166.661 197.031L164.004 196.911C164.061 195.102 163.821 193.786 163.335 192.841C162.63 191.504 161.457 190.581 159.761 190.504C157.341 190.392 155.4 192.074 154.37 194.421ZM147.54 200.791C147.558 200.388 147.613 199.801 147.804 198.784C148.202 196.658 149.177 195.49 150.597 195.554C151.987 195.618 152.657 196.984 152.195 199.45L151.907 200.99L147.54 200.791ZM160.618 199.553C160.468 200.354 160.364 200.909 160.222 201.368L154.937 201.128L155.237 199.526C155.675 197.185 156.779 195.339 158.67 195.425C160.646 195.514 161.017 197.427 160.618 199.553Z" fill="black"/>
<path d="M150.57 171.366C142.747 171.262 135.2 173.05 129.318 176.396C123.488 179.713 119.949 184.192 119.301 189.046L119.3 189.048L118.77 195.273C118.708 195.624 118.658 195.976 118.624 196.332C118.103 201.7 121.776 206.706 127.338 210.429C132.631 213.973 139.898 215.786 147.801 215.786C156.494 215.786 162.743 213.48 168.708 210.085C174.978 206.517 177.819 202.493 178.34 197.126C178.375 196.771 178.394 196.419 178.399 196.067L178.489 190.41C178.475 190.356 178.459 190.303 178.442 190.251C178.734 186.757 177.489 183.345 174.829 180.375C169.898 174.869 160.829 171.501 150.57 171.366ZM124.241 182.688C124.343 182.57 124.445 182.452 124.552 182.335C124.445 182.451 124.343 182.57 124.241 182.688ZM124.829 182.041C124.938 181.927 125.047 181.813 125.161 181.7C125.047 181.812 124.938 181.926 124.829 182.041ZM122.724 184.764C122.811 184.621 122.897 184.476 122.99 184.334C122.897 184.476 122.811 184.62 122.724 184.764ZM123.191 184.041C123.281 183.911 123.37 183.781 123.465 183.653C123.37 183.782 123.282 183.912 123.191 184.041ZM123.695 183.354C123.791 183.232 123.886 183.108 123.986 182.986C123.886 183.108 123.791 183.231 123.695 183.354ZM125.459 181.41C125.575 181.299 125.692 181.189 125.812 181.081C125.691 181.189 125.574 181.299 125.459 181.41ZM126.128 180.798C126.251 180.691 126.377 180.584 126.503 180.479C126.377 180.584 126.252 180.691 126.128 180.798ZM174.949 183.497C174.961 183.516 174.973 183.534 174.985 183.554C174.975 183.535 174.962 183.516 174.949 183.497ZM175.37 184.216C175.375 184.226 175.379 184.235 175.385 184.245C175.379 184.235 175.375 184.226 175.37 184.216ZM144.325 173.5C144.551 173.472 144.778 173.447 145.007 173.423C144.778 173.447 144.551 173.472 144.325 173.5ZM140.772 174.083C140.983 174.039 141.195 173.997 141.409 173.956C141.195 173.997 140.983 174.039 140.772 174.083ZM141.938 173.858C142.155 173.82 142.371 173.783 142.588 173.747C142.371 173.784 142.153 173.821 141.938 173.858ZM143.122 173.663C143.343 173.63 143.565 173.6 143.787 173.57C143.565 173.6 143.343 173.63 143.122 173.663ZM150.546 173.161C150.122 173.155 149.699 173.156 149.278 173.162C149.699 173.155 150.122 173.155 150.546 173.161ZM148.855 173.172C148.576 173.179 148.297 173.185 148.02 173.196C148.297 173.185 148.576 173.179 148.855 173.172ZM147.522 173.223C147.272 173.236 147.022 173.249 146.774 173.265C147.022 173.248 147.272 173.236 147.522 173.223ZM146.249 173.306C146.013 173.324 145.776 173.344 145.542 173.366C145.776 173.344 146.013 173.325 146.249 173.306ZM140.25 174.194C140.04 174.241 139.832 174.288 139.625 174.337C139.832 174.289 140.041 174.241 140.25 174.194ZM139.113 174.461C138.906 174.513 138.702 174.567 138.498 174.621C138.702 174.567 138.906 174.513 139.113 174.461ZM138 174.755C137.795 174.812 137.593 174.873 137.39 174.933C137.592 174.873 137.794 174.812 138 174.755ZM136.909 175.077C136.704 175.141 136.503 175.207 136.301 175.274C136.503 175.207 136.704 175.141 136.909 175.077ZM135.844 175.425C135.636 175.496 135.433 175.571 135.228 175.646C135.432 175.57 135.636 175.496 135.844 175.425ZM134.805 175.798C134.584 175.881 134.368 175.969 134.151 176.056C134.367 175.969 134.583 175.881 134.805 175.798ZM133.793 176.197C133.495 176.32 133.2 176.447 132.909 176.577C133.2 176.448 133.494 176.321 133.793 176.197ZM132.809 176.62C132.487 176.764 132.172 176.913 131.86 177.066C132.172 176.914 132.488 176.764 132.809 176.62ZM126.838 180.205C126.968 180.101 127.102 179.997 127.236 179.894C127.103 179.997 126.969 180.101 126.838 180.205ZM127.587 179.63C127.726 179.528 127.867 179.428 128.009 179.328C127.867 179.429 127.725 179.529 127.587 179.63ZM128.372 179.076C128.52 178.976 128.67 178.878 128.821 178.781C128.67 178.879 128.52 178.977 128.372 179.076ZM129.193 178.542C129.35 178.444 129.511 178.347 129.673 178.251C129.512 178.347 129.351 178.443 129.193 178.542ZM130.05 178.028C130.221 177.929 130.396 177.833 130.572 177.738C130.396 177.833 130.221 177.929 130.05 178.028ZM130.939 177.535C131.136 177.431 131.337 177.329 131.537 177.229C131.336 177.331 131.135 177.432 130.939 177.535ZM122.562 185.029C122.453 185.219 122.351 185.412 122.252 185.606C122.351 185.413 122.453 185.219 122.562 185.029ZM175.736 184.958C175.723 184.93 175.711 184.903 175.698 184.875C175.711 184.902 175.723 184.93 175.736 184.958ZM176.01 185.615C176.009 185.612 176.008 185.61 176.007 185.607C176.008 185.61 176.009 185.612 176.01 185.615ZM174.584 182.948C174.544 182.89 174.503 182.833 174.461 182.776C174.503 182.833 174.544 182.89 174.584 182.948ZM174.125 182.33C174.08 182.272 174.037 182.215 173.99 182.158C174.036 182.215 174.08 182.272 174.125 182.33Z" fill="black"/>
<path d="M173.494 181.573C168.891 176.434 160.312 173.289 150.546 173.161C136.541 172.977 124.306 179.106 121.561 187.232C121.294 188.023 121.116 188.833 121.037 189.658C120.742 192.697 121.832 195.693 124.19 198.326C128.793 203.465 137.372 206.609 147.138 206.738C162.507 206.94 175.744 199.543 176.648 190.24C176.942 187.203 175.851 184.205 173.494 181.573Z" fill="white"/>
<path d="M166.348 183.821C163.145 180.244 156.915 177.967 150.088 177.876C140.162 177.746 131.493 182.059 129.562 187.776C129.376 188.329 129.252 188.894 129.196 189.469C128.991 191.574 129.751 193.654 131.392 195.486C134.595 199.063 140.826 201.34 147.652 201.431C158.538 201.574 167.911 196.376 168.544 189.837C168.748 187.734 167.989 185.653 166.348 183.821Z" fill="white"/>
<path d="M150.112 176.083C144.462 176.008 139.006 177.3 134.754 179.721C130.376 182.212 127.768 185.612 127.411 189.297C127.157 191.914 128.072 194.469 130.056 196.685C133.637 200.682 140.207 203.129 147.629 203.226C153.28 203.3 158.735 202.008 162.988 199.587C166.529 197.572 168.913 194.962 169.883 192.087C170.112 191.409 170.263 190.716 170.331 190.012C170.585 187.394 169.67 184.839 167.686 182.623C164.103 178.626 157.534 176.181 150.112 176.083ZM147.652 201.432C140.826 201.341 134.595 199.064 131.392 195.488C129.751 193.655 128.992 191.575 129.196 189.47C129.252 188.894 129.376 188.33 129.562 187.778C131.492 182.06 140.161 177.746 150.089 177.878C156.915 177.967 163.145 180.245 166.348 183.822C167.989 185.653 168.748 187.734 168.545 189.839C167.911 196.377 158.538 201.575 147.652 201.432Z" fill="black"/>
<path d="M148.984 184.694L148.928 184.692C148.588 182.316 147.232 181.166 145.563 181.09C143.867 181.013 142.391 182.002 141.424 183.418C140.808 184.251 140.354 185.173 139.981 186.336L137.128 186.206L136.717 188.397L139.417 188.519C139.35 188.832 139.285 189.159 139.221 189.501C139.126 190.005 139.039 190.517 138.959 191.023L136.249 190.9L135.839 193.089L138.655 193.217C138.543 194.182 138.478 195.019 138.473 195.59L156.885 196.427C157.072 195.848 157.298 195.059 157.536 194.076L159.986 194.188L160.396 191.999L158.014 191.89C158.048 191.716 158.083 191.539 158.116 191.357C158.247 190.654 158.351 190 158.43 189.385L160.865 189.496L161.275 187.305L158.618 187.184C158.675 185.375 158.435 184.06 157.948 183.114C157.244 181.777 156.07 180.855 154.375 180.777C151.954 180.665 150.013 182.348 148.984 184.694ZM142.153 191.065C142.172 190.662 142.227 190.074 142.417 189.058C142.816 186.931 143.791 185.763 145.21 185.828C146.6 185.891 147.271 187.257 146.809 189.723L146.52 191.264L142.153 191.065ZM155.232 189.826C155.082 190.627 154.978 191.183 154.835 191.642L149.55 191.402L149.85 189.799C150.289 187.459 151.392 185.612 153.284 185.698C155.26 185.788 155.63 187.7 155.232 189.826Z" fill="black"/>
<path d="M163.311 159.491C155.488 159.388 147.942 161.175 142.06 164.521C136.23 167.839 132.691 172.318 132.042 177.171L132.041 177.173L131.512 183.399C131.449 183.75 131.4 184.102 131.365 184.457C130.844 189.825 134.518 194.832 140.08 198.555C145.373 202.098 152.639 203.911 160.542 203.911C169.235 203.911 175.484 201.605 181.45 198.21C187.719 194.642 190.56 190.619 191.081 185.252C191.116 184.896 191.135 184.544 191.141 184.192L191.23 178.535C191.216 178.482 191.2 178.429 191.184 178.376C191.475 174.882 190.23 171.47 187.57 168.501C182.64 162.995 173.57 159.627 163.311 159.491ZM136.983 170.814C137.085 170.695 137.188 170.577 137.294 170.46C137.187 170.577 137.084 170.695 136.983 170.814ZM137.57 170.165C137.679 170.051 137.789 169.937 137.903 169.824C137.79 169.937 137.68 170.051 137.57 170.165ZM135.466 172.888C135.553 172.745 135.64 172.601 135.732 172.459C135.638 172.601 135.553 172.745 135.466 172.888ZM135.933 172.167C136.023 172.037 136.112 171.906 136.207 171.778C136.112 171.906 136.023 172.037 135.933 172.167ZM136.437 171.479C136.533 171.356 136.628 171.232 136.728 171.111C136.628 171.233 136.532 171.356 136.437 171.479ZM138.2 169.536C138.316 169.425 138.433 169.315 138.553 169.206C138.433 169.315 138.316 169.425 138.2 169.536ZM138.871 168.924C138.993 168.816 139.119 168.71 139.245 168.604C139.119 168.71 138.993 168.816 138.871 168.924ZM187.691 171.622C187.703 171.641 187.716 171.66 187.728 171.679C187.716 171.66 187.703 171.641 187.691 171.622ZM188.112 172.341C188.117 172.351 188.122 172.361 188.127 172.37C188.122 172.36 188.116 172.35 188.112 172.341ZM157.067 161.624C157.293 161.596 157.521 161.571 157.749 161.548C157.521 161.572 157.293 161.596 157.067 161.624ZM153.513 162.209C153.724 162.165 153.936 162.123 154.151 162.082C153.937 162.123 153.725 162.165 153.513 162.209ZM154.679 161.984C154.896 161.945 155.112 161.908 155.33 161.873C155.112 161.908 154.896 161.945 154.679 161.984ZM155.865 161.789C156.085 161.756 156.307 161.725 156.529 161.695C156.306 161.725 156.084 161.756 155.865 161.789ZM163.287 161.286C162.863 161.281 162.44 161.282 162.019 161.287C162.441 161.281 162.863 161.28 163.287 161.286ZM161.596 161.298C161.317 161.304 161.038 161.311 160.761 161.322C161.039 161.311 161.317 161.304 161.596 161.298ZM160.264 161.347C160.014 161.36 159.764 161.373 159.517 161.389C159.764 161.373 160.014 161.36 160.264 161.347ZM158.991 161.431C158.756 161.45 158.519 161.469 158.284 161.492C158.519 161.469 158.754 161.451 158.991 161.431ZM152.992 162.32C152.782 162.366 152.574 162.413 152.368 162.463C152.574 162.413 152.782 162.366 152.992 162.32ZM151.855 162.587C151.648 162.638 151.444 162.692 151.24 162.746C151.444 162.691 151.648 162.637 151.855 162.587ZM150.741 162.881C150.536 162.938 150.334 162.998 150.131 163.058C150.334 162.998 150.536 162.938 150.741 162.881ZM149.651 163.201C149.447 163.265 149.245 163.332 149.043 163.399C149.244 163.332 149.447 163.266 149.651 163.201ZM148.585 163.55C148.378 163.621 148.174 163.697 147.97 163.771C148.174 163.696 148.379 163.621 148.585 163.55ZM147.546 163.924C147.326 164.007 147.109 164.094 146.892 164.181C147.109 164.094 147.326 164.007 147.546 163.924ZM146.534 164.322C146.236 164.445 145.941 164.572 145.65 164.702C145.942 164.572 146.236 164.445 146.534 164.322ZM145.551 164.745C145.229 164.89 144.914 165.038 144.603 165.191C144.914 165.038 145.229 164.89 145.551 164.745ZM139.58 168.331C139.71 168.226 139.844 168.123 139.978 168.02C139.844 168.123 139.711 168.226 139.58 168.331ZM140.328 167.756C140.467 167.654 140.608 167.553 140.75 167.453C140.608 167.553 140.467 167.655 140.328 167.756ZM141.113 167.201C141.261 167.101 141.412 167.003 141.562 166.906C141.412 167.003 141.261 167.101 141.113 167.201ZM141.935 166.667C142.092 166.569 142.253 166.472 142.415 166.377C142.255 166.472 142.093 166.568 141.935 166.667ZM142.791 166.153C142.962 166.054 143.137 165.958 143.313 165.862C143.139 165.959 142.962 166.055 142.791 166.153ZM143.68 165.661C143.877 165.556 144.078 165.455 144.279 165.355C144.078 165.456 143.877 165.556 143.68 165.661ZM135.304 173.154C135.194 173.345 135.093 173.538 134.994 173.731C135.093 173.538 135.195 173.345 135.304 173.154ZM188.477 173.082C188.464 173.054 188.452 173.027 188.439 172.999C188.452 173.027 188.465 173.055 188.477 173.082ZM188.753 173.74C188.751 173.737 188.75 173.735 188.749 173.731C188.749 173.735 188.751 173.738 188.753 173.74ZM187.326 171.073C187.286 171.016 187.245 170.959 187.203 170.902C187.244 170.959 187.286 171.016 187.326 171.073ZM186.866 170.455C186.821 170.398 186.778 170.341 186.732 170.284C186.778 170.341 186.822 170.398 186.866 170.455Z" fill="black"/>
<path d="M186.235 169.698C181.633 164.559 173.054 161.414 163.287 161.286C149.282 161.102 137.047 167.232 134.302 175.357C134.035 176.148 133.858 176.958 133.778 177.784C133.483 180.822 134.574 183.819 136.932 186.451C141.534 191.59 150.113 194.735 159.88 194.863C175.248 195.065 188.486 187.669 189.389 178.365C189.684 175.327 188.593 172.331 186.235 169.698Z" fill="white"/>
<path d="M179.089 171.946C175.886 168.369 169.656 166.092 162.83 166.002C152.903 165.872 144.235 170.185 142.303 175.902C142.117 176.454 141.993 177.019 141.937 177.594C141.732 179.699 142.492 181.779 144.133 183.612C147.336 187.189 153.567 189.466 160.393 189.556C171.279 189.699 180.652 184.501 181.285 177.963C181.49 175.859 180.731 173.778 179.089 171.946Z" fill="white"/>
<path d="M162.853 164.208C157.203 164.134 151.747 165.426 147.495 167.846C143.117 170.338 140.509 173.738 140.152 177.422C139.898 180.039 140.813 182.594 142.797 184.81C146.378 188.808 152.948 191.254 160.37 191.351C166.021 191.425 171.476 190.133 175.729 187.713C179.27 185.697 181.654 183.088 182.624 180.213C182.853 179.535 183.004 178.841 183.072 178.137C183.326 175.52 182.411 172.965 180.427 170.749C176.846 166.75 170.276 164.305 162.853 164.208ZM160.394 189.557C153.568 189.467 147.337 187.19 144.134 183.613C142.494 181.78 141.734 179.7 141.938 177.595C141.994 177.019 142.118 176.455 142.304 175.903C144.234 170.186 152.903 165.872 162.831 166.003C169.657 166.092 175.887 168.371 179.091 171.947C180.731 173.779 181.49 175.86 181.287 177.965C180.653 184.502 171.279 189.7 160.394 189.557Z" fill="black"/>
<path d="M161.726 172.819L161.67 172.817C161.33 170.441 159.974 169.291 158.306 169.216C156.61 169.138 155.134 170.128 154.167 171.543C153.55 172.377 153.097 173.298 152.723 174.461L149.87 174.331L149.46 176.522L152.159 176.645C152.092 176.957 152.027 177.284 151.963 177.627C151.868 178.131 151.781 178.642 151.701 179.148L148.991 179.025L148.581 181.214L151.398 181.342C151.286 182.307 151.22 183.145 151.216 183.715L169.628 184.553C169.814 183.974 170.04 183.184 170.278 182.201L172.729 182.312L173.139 180.123L170.756 180.015C170.791 179.84 170.825 179.664 170.858 179.482C170.99 178.779 171.093 178.124 171.173 177.509L173.607 177.62L174.017 175.429L171.36 175.309C171.417 173.5 171.177 172.184 170.69 171.239C169.986 169.902 168.813 168.979 167.117 168.901C164.697 168.79 162.754 170.473 161.726 172.819ZM154.896 179.19C154.914 178.787 154.969 178.199 155.159 177.183C155.558 175.057 156.533 173.888 157.952 173.953C159.342 174.017 160.013 175.383 159.551 177.848L159.263 179.389L154.896 179.19ZM167.974 177.951C167.824 178.752 167.72 179.306 167.578 179.766L162.292 179.526L162.593 177.924C163.031 175.583 164.135 173.737 166.026 173.823C168.001 173.913 168.372 175.825 167.974 177.951Z" fill="black"/>
<path d="M206.101 122.684C206.101 122.66 206.103 122.635 206.103 122.61C206.103 122.544 206.099 122.479 206.098 122.413L206.096 122.288H206.093C205.897 117.507 201.342 113.092 193.211 109.828C185.158 106.595 174.468 104.814 163.113 104.814C151.758 104.814 141.069 106.595 133.015 109.828C124.752 113.145 120.181 117.65 120.126 122.522H120.124V122.6C120.124 122.604 120.124 122.608 120.124 122.611C120.124 122.614 120.124 122.618 120.124 122.62L120.086 135.843C120.086 145.177 138.906 152.743 163.095 152.743C187.284 152.743 206.282 145.789 206.282 136.455L206.101 122.684Z" fill="black"/>
<path d="M192.544 111.493C184.697 108.343 174.246 106.609 163.114 106.609C151.982 106.609 141.531 108.343 133.684 111.493C126.207 114.495 121.919 118.548 121.919 122.61C121.919 126.673 126.207 130.725 133.684 133.728C141.531 136.878 151.982 138.613 163.114 138.613C174.246 138.613 184.697 136.878 192.544 133.728C200.021 130.726 204.309 126.673 204.309 122.61C204.309 118.548 200.021 114.495 192.544 111.493Z" fill="white"/>
<path d="M177.134 104.096C176.666 104.096 176.287 103.716 176.287 103.248V43.1068C176.287 42.6385 176.667 42.2595 177.134 42.2595C177.602 42.2595 177.982 42.6395 177.982 43.1068V103.248C177.982 103.716 177.603 104.096 177.134 104.096ZM161.861 64.6035C161.392 64.6035 161.013 64.2235 161.013 63.7562V26.6597C161.013 26.1913 161.393 25.8123 161.861 25.8123C162.329 25.8123 162.708 26.1924 162.708 26.6597V63.7562C162.708 64.2235 162.329 64.6035 161.861 64.6035Z" fill="black"/>
<path d="M181.798 66.6611C179.393 59.217 175.287 52.6375 170.234 48.136C165.225 43.6743 159.851 41.7524 155.044 42.6923H155.042L148.783 43.615C148.431 43.6678 148.082 43.7345 147.734 43.8153C142.482 45.0395 138.626 49.2708 136.878 55.7318C135.214 61.8796 135.636 69.4077 138.065 76.9282C140.495 84.4487 144.656 91.1057 149.78 95.6719C155.166 100.47 161.025 102.439 166.277 101.215C166.624 101.134 166.965 101.039 167.3 100.931L172.688 99.2066C172.735 99.1753 172.778 99.1441 172.824 99.1118C176.228 98.2699 179.062 95.9992 181.024 92.5291C184.663 86.0949 184.953 76.4243 181.798 66.6611ZM162.649 45.3388C162.793 45.398 162.938 45.4572 163.083 45.5207C162.937 45.4561 162.793 45.3969 162.649 45.3388ZM163.45 45.6876C163.593 45.7544 163.736 45.8222 163.879 45.8933C163.736 45.8222 163.593 45.7544 163.45 45.6876ZM160.196 44.5657C160.36 44.6023 160.523 44.6379 160.688 44.6799C160.525 44.6379 160.361 44.6023 160.196 44.5657ZM161.029 44.7778C161.181 44.8209 161.333 44.864 161.486 44.9124C161.334 44.864 161.181 44.8209 161.029 44.7778ZM161.842 45.0352C161.99 45.0858 162.136 45.1374 162.284 45.1924C162.137 45.1364 161.99 45.0858 161.842 45.0352ZM164.249 46.0828C164.391 46.157 164.533 46.2335 164.674 46.3121C164.532 46.2335 164.39 46.1581 164.249 46.0828ZM165.042 46.5231C165.183 46.6049 165.324 46.69 165.465 46.7761C165.324 46.6889 165.184 46.6049 165.042 46.5231ZM178.104 93.6402C178.09 93.6574 178.076 93.6757 178.062 93.693C178.076 93.6768 178.09 93.6585 178.104 93.6402ZM177.558 94.269C177.551 94.2765 177.543 94.284 177.536 94.2927C177.543 94.284 177.551 94.2765 177.558 94.269ZM177.779 61.4274C177.878 61.6331 177.974 61.8409 178.07 62.0486C177.974 61.8409 177.878 61.6331 177.779 61.4274ZM176.09 58.248C176.199 58.4343 176.307 58.6216 176.414 58.8111C176.306 58.6216 176.199 58.4343 176.09 58.248ZM176.676 59.2805C176.781 59.4733 176.886 59.6671 176.989 59.8619C176.884 59.6671 176.781 59.4733 176.676 59.2805ZM177.239 60.3411C177.341 60.5392 177.44 60.7394 177.54 60.9408C177.441 60.7394 177.341 60.5392 177.239 60.3411ZM180.091 67.2134C179.961 66.8097 179.825 66.4091 179.684 66.0119C179.825 66.4091 179.961 66.8086 180.091 67.2134ZM179.538 65.6135C179.444 65.3519 179.348 65.0892 179.249 64.8308C179.348 65.0902 179.443 65.3519 179.538 65.6135ZM179.065 64.3678C178.972 64.1352 178.881 63.9027 178.786 63.6733C178.881 63.9027 178.972 64.1352 179.065 64.3678ZM178.578 63.1888C178.484 62.9713 178.392 62.7528 178.295 62.5385C178.392 62.7528 178.484 62.9713 178.578 63.1888ZM175.818 57.7894C175.707 57.6052 175.595 57.4233 175.482 57.2435C175.595 57.4233 175.707 57.6052 175.818 57.7894ZM175.201 56.7967C175.085 56.6179 174.969 56.4414 174.853 56.2648C174.969 56.4414 175.086 56.6179 175.201 56.7967ZM174.565 55.8363C174.446 55.6608 174.324 55.4874 174.203 55.3152C174.324 55.4874 174.446 55.6608 174.565 55.8363ZM173.913 54.906C173.787 54.7327 173.66 54.5626 173.532 54.3925C173.659 54.5626 173.787 54.7327 173.913 54.906ZM173.242 54.0081C173.109 53.8337 172.972 53.6646 172.836 53.4945C172.972 53.6646 173.109 53.8337 173.242 54.0081ZM172.555 53.1425C172.406 52.9594 172.254 52.7829 172.103 52.6052C172.255 52.7829 172.406 52.9605 172.555 53.1425ZM171.854 52.3113C171.642 52.0679 171.428 51.83 171.212 51.5953C171.427 51.83 171.642 52.0679 171.854 52.3113ZM171.138 51.5156C170.898 51.2572 170.656 51.0053 170.413 50.7587C170.657 51.0053 170.898 51.2572 171.138 51.5156ZM165.831 47.0055C165.972 47.0959 166.112 47.1885 166.253 47.2832C166.114 47.1885 165.972 47.0959 165.831 47.0055ZM166.615 47.5309C166.756 47.6299 166.896 47.7311 167.036 47.8345C166.896 47.7311 166.756 47.6288 166.615 47.5309ZM167.392 48.0972C167.534 48.2049 167.675 48.3168 167.815 48.4288C167.675 48.3158 167.534 48.2049 167.392 48.0972ZM168.161 48.7044C168.305 48.8218 168.448 48.9445 168.591 49.0662C168.448 48.9445 168.305 48.8218 168.161 48.7044ZM168.921 49.3504C169.07 49.4807 169.216 49.6175 169.364 49.752C169.216 49.6175 169.07 49.4818 168.921 49.3504ZM169.673 50.0363C169.834 50.1892 169.995 50.3474 170.154 50.5057C169.995 50.3474 169.834 50.1892 169.673 50.0363ZM159.894 44.4968C159.678 44.4538 159.463 44.4193 159.248 44.3881C159.462 44.4193 159.677 44.4538 159.894 44.4968ZM176.973 94.8525C176.995 94.8321 177.017 94.8116 177.04 94.7901C177.018 94.8116 176.995 94.8321 176.973 94.8525ZM176.438 95.323C176.44 95.3209 176.442 95.3187 176.444 95.3176C176.442 95.3198 176.44 95.322 176.438 95.323ZM178.508 93.1191C178.549 93.0631 178.59 93.006 178.631 92.9479C178.591 93.005 178.55 93.0631 178.508 93.1191ZM178.947 92.486C178.987 92.4257 179.027 92.3654 179.066 92.3041C179.027 92.3654 178.986 92.4257 178.947 92.486Z" fill="black"/>
<path d="M179.462 91.6462C182.858 85.6416 183.093 76.5072 180.091 67.2134C175.784 53.8853 166.063 44.2535 157.486 44.2535C156.651 44.2535 155.827 44.345 155.02 44.5334C152.047 45.2257 149.557 47.2175 147.817 50.2936C144.421 56.2992 144.186 65.4326 147.188 74.7264C151.913 89.3518 163.156 99.5274 172.259 97.4064C175.232 96.7141 177.723 94.7222 179.462 91.6462Z" fill="white"/>
<path d="M175.047 85.5953C177.41 81.4157 177.575 74.7845 175.476 68.289C172.424 58.8423 165.564 52.0087 159.53 52.0087C158.947 52.0087 158.372 52.0723 157.809 52.2036C155.75 52.6838 154.022 54.0684 152.81 56.2099C150.447 60.3895 150.282 67.0207 152.381 73.5173C155.728 83.877 163.651 91.0939 170.049 89.6027C172.107 89.1214 173.835 87.7358 175.047 85.5953Z" fill="white"/>
<path d="M177.184 67.7367C175.447 62.3587 172.478 57.6042 168.824 54.3494C165.063 50.9988 161.007 49.6164 157.401 50.4562C154.84 51.0527 152.712 52.7366 151.248 55.326C148.606 59.9976 148.391 67.0046 150.673 74.0675C152.411 79.4454 155.379 84.2 159.033 87.4548C162.076 90.1647 165.311 91.5881 168.346 91.5881C169.061 91.5881 169.767 91.5084 170.456 91.348C173.017 90.7515 175.145 89.0665 176.609 86.4772C179.251 81.8066 179.465 74.7996 177.184 67.7367ZM152.38 73.5162C150.281 67.0207 150.446 60.3884 152.809 56.2088C154.02 54.0684 155.749 52.6827 157.808 52.2025C158.371 52.0712 158.946 52.0077 159.529 52.0077C165.563 52.0077 172.424 58.8402 175.475 68.2879C177.574 74.7835 177.409 81.4157 175.046 85.5943C173.835 87.7347 172.106 89.1204 170.047 89.6006C163.65 91.0928 155.727 83.8759 152.38 73.5162Z" fill="black"/>
<path d="M168.664 69.4227L168.649 69.3689C170.792 68.2858 171.447 66.6342 170.986 65.0289C170.516 63.3966 169.107 62.3157 167.456 61.8527C166.469 61.5351 165.45 61.4005 164.231 61.4177L163.44 58.6722L161.233 58.9845L161.98 61.5803C161.663 61.618 161.333 61.66 160.987 61.7095C160.478 61.7816 159.966 61.8624 159.462 61.9474L158.712 59.3408L156.507 59.6531L157.286 62.362C156.336 62.5644 155.521 62.77 154.98 62.9487L160.077 80.661C160.685 80.6524 161.504 80.6136 162.512 80.5253L163.19 82.8822L165.395 82.5699L164.735 80.2777C164.912 80.254 165.091 80.2303 165.274 80.2045C165.982 80.1044 166.635 79.9924 167.243 79.8718L167.917 82.2135L170.124 81.9013L169.389 79.3453C171.12 78.821 172.29 78.1717 173.031 77.4084C174.073 76.3134 174.572 74.9062 174.102 73.2751C173.432 70.9484 171.216 69.6478 168.664 69.4227ZM160.443 64.989C160.83 64.8781 161.405 64.7414 162.429 64.596C164.571 64.2935 165.99 64.8437 166.383 66.2089C166.768 67.5461 165.687 68.6185 163.204 68.9695L161.653 69.1891L160.443 64.989ZM165.8 76.9842C164.993 77.0983 164.434 77.178 163.954 77.1898L162.491 72.1058L164.105 71.8775C166.462 71.5438 168.564 71.9992 169.088 73.8188C169.635 75.718 167.942 76.6816 165.8 76.9842ZM136.928 129.887C136.46 129.887 136.081 129.507 136.081 129.04V91.9434C136.081 91.475 136.461 91.096 136.928 91.096C137.397 91.096 137.776 91.4761 137.776 91.9434V129.04C137.776 129.508 137.397 129.887 136.928 129.887ZM136.928 40.0157C136.46 40.0157 136.081 39.6357 136.081 39.1684V16.23C136.081 15.7617 136.461 15.3827 136.928 15.3827C137.397 15.3827 137.776 15.7627 137.776 16.23V39.1684C137.776 39.6357 137.397 40.0157 136.928 40.0157ZM188.655 129.887C188.186 129.887 187.807 129.507 187.807 129.04V91.9434C187.807 91.475 188.187 91.096 188.655 91.096C189.122 91.096 189.502 91.4761 189.502 91.9434V129.04C189.503 129.508 189.123 129.887 188.655 129.887ZM188.655 83.3903C188.186 83.3903 187.807 83.0103 187.807 82.543V14.1747C187.807 13.7063 188.187 13.3273 188.655 13.3273C189.122 13.3273 189.502 13.7074 189.502 14.1747V82.543C189.503 83.0103 189.123 83.3903 188.655 83.3903ZM198.45 101.938C197.982 101.938 197.603 101.558 197.603 101.091V63.9942C197.603 63.5258 197.983 63.1469 198.45 63.1469C198.917 63.1469 199.298 63.5269 199.298 63.9942V101.091C199.299 101.559 198.919 101.938 198.45 101.938ZM198.45 53.3266C197.982 53.3266 197.603 52.9465 197.603 52.4792V31.8309C197.603 31.3626 197.983 30.9836 198.45 30.9836C198.917 30.9836 199.298 31.3636 199.298 31.8309V52.4782C199.299 52.9465 198.919 53.3266 198.45 53.3266ZM123.802 91.5687C123.333 91.5687 122.954 91.1886 122.954 90.7214V34.7778C122.954 34.3094 123.334 33.9304 123.802 33.9304C124.269 33.9304 124.649 34.3105 124.649 34.7778V90.7203C124.65 91.1886 124.27 91.5687 123.802 91.5687ZM123.802 110.147C123.333 110.147 122.954 109.767 122.954 109.299V98.8254C122.954 98.3571 123.334 97.9781 123.802 97.9781C124.269 97.9781 124.649 98.3582 124.649 98.8254V109.299C124.65 109.767 124.27 110.147 123.802 110.147ZM148.798 101.105C148.329 101.105 147.95 100.725 147.95 100.257V32.1345C147.95 31.6662 148.33 31.2872 148.798 31.2872C149.266 31.2872 149.645 31.6673 149.645 32.1345V100.257C149.645 100.726 149.266 101.105 148.798 101.105ZM148.798 133.603C148.329 133.603 147.95 133.223 147.95 132.756V111.091C147.95 110.622 148.33 110.243 148.798 110.243C149.266 110.243 149.645 110.624 149.645 111.091V132.756C149.645 133.223 149.266 133.603 148.798 133.603ZM148.798 20.8597C148.329 20.8597 147.95 20.4796 147.95 20.0124V8.33482C147.95 7.86647 148.33 7.48749 148.798 7.48749C149.266 7.48749 149.645 7.86755 149.645 8.33482V20.0113C149.645 20.4796 149.266 20.8597 148.798 20.8597ZM167.986 134.433C167.518 134.433 167.139 134.053 167.139 133.586V87.3977C167.139 86.9293 167.519 86.5503 167.986 86.5503C168.453 86.5503 168.833 86.9304 168.833 87.3977V133.585C168.833 134.053 168.454 134.433 167.986 134.433ZM167.986 52.0744C167.518 52.0744 167.139 51.6943 167.139 51.2271V16.3162C167.139 15.8478 167.519 15.4688 167.986 15.4688C168.453 15.4688 168.833 15.8489 168.833 16.3162V51.226C168.833 51.6943 168.454 52.0744 167.986 52.0744Z" fill="black"/>
</g>
</svg>
